<svg width="352" height="140" viewBox="0 0 352 140" fill="none" xmlns="http://www.w3.org/2000/svg">
<rect width="352" height="140" fill="#FFF5E8"/>
<g clip-path="url(#clip0_25_112)">
<path d="M277.312 66.5625V72.1875C277.312 73.7381 278.574 75 280.125 75H313.875C315.426 75 316.688 73.7381 316.688 72.1875V66.5625C316.688 65.0119 315.426 63.75 313.875 63.75H312.765C312.87 63.4556 312.938 63.1425 312.938 62.8125V40.3125C312.938 38.7619 311.676 37.5 310.125 37.5H297.938V31.875C297.938 31.3575 297.517 30.9375 297 30.9375C296.483 30.9375 296.062 31.3575 296.062 31.875V37.5H283.875C282.324 37.5 281.062 38.7619 281.062 40.3125V62.8125C281.062 63.1425 281.13 63.4556 281.235 63.75H280.125C278.574 63.75 277.312 65.0119 277.312 66.5625ZM314.812 66.5625V72.1875C314.812 72.705 314.391 73.125 313.875 73.125H280.125C279.609 73.125 279.188 72.705 279.188 72.1875V66.5625C279.188 66.045 279.609 65.625 280.125 65.625H283.875H310.125H313.875C314.391 65.625 314.812 66.045 314.812 66.5625ZM282.938 62.8125V40.3125C282.938 39.795 283.359 39.375 283.875 39.375H301.688V43.125C301.688 43.6425 302.108 44.0625 302.625 44.0625C303.142 44.0625 303.562 43.6425 303.562 43.125V39.375H310.125C310.641 39.375 311.062 39.795 311.062 40.3125V62.8125C311.062 63.33 310.641 63.75 310.125 63.75H283.875C283.359 63.75 282.938 63.33 282.938 62.8125Z" fill="#735F3D"/>
<path d="M292.845 35.3738C293.192 35.2444 293.428 34.9256 293.453 34.5581C293.777 29.7262 295.958 27.2662 297.008 26.3512C300.225 29.6719 301.054 34.5938 301.061 34.6444C301.121 35.0119 301.393 35.31 301.753 35.4037C302.106 35.4994 302.496 35.37 302.724 35.0775C305.048 32.1281 305.978 29.0119 305.494 25.815C304.53 19.4756 298.339 15.1537 298.074 14.9737C297.754 14.7525 297.33 14.7544 297.009 14.9756C291.928 18.495 289.161 22.3631 288.786 26.4713C288.323 31.5413 291.709 35.0119 291.853 35.1562C292.033 35.3363 292.273 35.4319 292.517 35.4319C292.628 35.4319 292.74 35.4131 292.845 35.3738ZM290.655 26.6175C290.974 23.2388 293.284 19.9744 297.527 16.905C298.963 18.0356 302.948 21.5419 303.639 26.0944C303.956 28.17 303.536 30.2269 302.396 32.2275C301.748 30.1031 300.381 26.8163 297.707 24.42C297.529 24.2625 297.306 24.1819 297.081 24.1819C296.914 24.1819 296.745 24.2269 296.595 24.3169C296.432 24.4163 293.034 26.5387 291.902 32.0438C291.174 30.7575 290.445 28.8581 290.655 26.6175Z" fill="#735F3D"/>
<path d="M287.625 42.1875C287.108 42.1875 286.688 42.6075 286.688 43.125V60C286.688 60.5175 287.108 60.9375 287.625 60.9375C288.143 60.9375 288.562 60.5175 288.562 60V43.125C288.562 42.6075 288.143 42.1875 287.625 42.1875Z" fill="#735F3D"/>
</g>
<path d="M58.8333 99V87.8H68.2573V99H67.0893V88.504L67.3933 88.824H59.6973L60.0013 88.504V99H58.8333ZM75.2204 99.08C74.4098 99.08 73.6791 98.8987 73.0284 98.536C72.3884 98.1627 71.8818 97.656 71.5084 97.016C71.1351 96.3653 70.9484 95.624 70.9484 94.792C70.9484 93.9493 71.1351 93.208 71.5084 92.568C71.8818 91.928 72.3884 91.4267 73.0284 91.064C73.6684 90.7013 74.3991 90.52 75.2204 90.52C76.0524 90.52 76.7884 90.7013 77.4284 91.064C78.0791 91.4267 78.5858 91.928 78.9484 92.568C79.3218 93.208 79.5084 93.9493 79.5084 94.792C79.5084 95.624 79.3218 96.3653 78.9484 97.016C78.5858 97.656 78.0791 98.1627 77.4284 98.536C76.7778 98.8987 76.0418 99.08 75.2204 99.08ZM75.2204 98.072C75.8284 98.072 76.3671 97.9387 76.8364 97.672C77.3058 97.3947 77.6738 97.0107 77.9404 96.52C78.2178 96.0187 78.3564 95.4427 78.3564 94.792C78.3564 94.1307 78.2178 93.5547 77.9404 93.064C77.6738 92.5733 77.3058 92.1947 76.8364 91.928C76.3671 91.6507 75.8338 91.512 75.2364 91.512C74.6391 91.512 74.1058 91.6507 73.6364 91.928C73.1671 92.1947 72.7938 92.5733 72.5164 93.064C72.2391 93.5547 72.1004 94.1307 72.1004 94.792C72.1004 95.4427 72.2391 96.0187 72.5164 96.52C72.7938 97.0107 73.1671 97.3947 73.6364 97.672C74.1058 97.9387 74.6338 98.072 75.2204 98.072ZM81.9363 99V90.6H83.0723V94.312H88.3683V90.6H89.5043V99H88.3683V95.288H83.0723V99H81.9363ZM97.9492 99V97.144L97.9012 96.84V93.736C97.9012 93.0213 97.6985 92.472 97.2932 92.088C96.8985 91.704 96.3065 91.512 95.5172 91.512C94.9732 91.512 94.4559 91.6027 93.9652 91.784C93.4745 91.9653 93.0585 92.2053 92.7172 92.504L92.2052 91.656C92.6319 91.2933 93.1439 91.016 93.7412 90.824C94.3385 90.6213 94.9679 90.52 95.6292 90.52C96.7172 90.52 97.5545 90.792 98.1412 91.336C98.7385 91.8693 99.0372 92.6853 99.0372 93.784V99H97.9492ZM95.0532 99.08C94.4239 99.08 93.8745 98.9787 93.4052 98.776C92.9465 98.5627 92.5945 98.2747 92.3492 97.912C92.1039 97.5387 91.9812 97.112 91.9812 96.632C91.9812 96.1947 92.0825 95.8 92.2852 95.448C92.4985 95.0853 92.8399 94.7973 93.3092 94.584C93.7892 94.36 94.4292 94.248 95.2292 94.248H98.1252V95.096H95.2612C94.4505 95.096 93.8852 95.24 93.5652 95.528C93.2559 95.816 93.1012 96.1733 93.1012 96.6C93.1012 97.08 93.2879 97.464 93.6612 97.752C94.0345 98.04 94.5572 98.184 95.2292 98.184C95.8692 98.184 96.4185 98.04 96.8772 97.752C97.3465 97.4533 97.6879 97.0267 97.9012 96.472L98.1572 97.256C97.9439 97.8107 97.5705 98.2533 97.0372 98.584C96.5145 98.9147 95.8532 99.08 95.0532 99.08ZM107.821 98.456V91.592H103.773L103.677 93.464C103.656 94.0293 103.619 94.584 103.565 95.128C103.523 95.672 103.443 96.1733 103.325 96.632C103.219 97.08 103.064 97.448 102.861 97.736C102.659 98.0133 102.397 98.1733 102.077 98.216L100.941 98.008C101.272 98.0187 101.544 97.9013 101.757 97.656C101.971 97.4 102.136 97.0533 102.253 96.616C102.371 96.1787 102.456 95.6827 102.509 95.128C102.563 94.5627 102.605 93.9867 102.637 93.4L102.749 90.6H108.957V98.456H107.821ZM100.589 101.032V98.008H110.269V101.032H109.197V99H101.661V101.032H100.589ZM117.839 99V88.28L118.351 88.824H115.199V87.8H118.991V99H117.839ZM126.132 99.096C125.268 99.096 124.5 98.872 123.828 98.424C123.156 97.9653 122.628 97.3147 122.244 96.472C121.86 95.6187 121.668 94.5947 121.668 93.4C121.668 92.2053 121.86 91.1867 122.244 90.344C122.628 89.4907 123.156 88.84 123.828 88.392C124.5 87.9333 125.268 87.704 126.132 87.704C126.996 87.704 127.764 87.9333 128.436 88.392C129.108 88.84 129.636 89.4907 130.02 90.344C130.415 91.1867 130.612 92.2053 130.612 93.4C130.612 94.5947 130.415 95.6187 130.02 96.472C129.636 97.3147 129.108 97.9653 128.436 98.424C127.764 98.872 126.996 99.096 126.132 99.096ZM126.132 98.04C126.793 98.04 127.369 97.864 127.86 97.512C128.351 97.1493 128.735 96.6267 129.012 95.944C129.289 95.2507 129.428 94.4027 129.428 93.4C129.428 92.3973 129.289 91.5547 129.012 90.872C128.735 90.1787 128.351 89.656 127.86 89.304C127.369 88.9413 126.793 88.76 126.132 88.76C125.492 88.76 124.921 88.9413 124.42 89.304C123.919 89.656 123.529 90.1787 123.252 90.872C122.975 91.5547 122.836 92.3973 122.836 93.4C122.836 94.4027 122.975 95.2507 123.252 95.944C123.529 96.6267 123.919 97.1493 124.42 97.512C124.921 97.864 125.492 98.04 126.132 98.04ZM136.726 99.096C135.862 99.096 135.094 98.872 134.422 98.424C133.75 97.9653 133.222 97.3147 132.838 96.472C132.454 95.6187 132.262 94.5947 132.262 93.4C132.262 92.2053 132.454 91.1867 132.838 90.344C133.222 89.4907 133.75 88.84 134.422 88.392C135.094 87.9333 135.862 87.704 136.726 87.704C137.59 87.704 138.358 87.9333 139.03 88.392C139.702 88.84 140.23 89.4907 140.614 90.344C141.008 91.1867 141.206 92.2053 141.206 93.4C141.206 94.5947 141.008 95.6187 140.614 96.472C140.23 97.3147 139.702 97.9653 139.03 98.424C138.358 98.872 137.59 99.096 136.726 99.096ZM136.726 98.04C137.387 98.04 137.963 97.864 138.454 97.512C138.944 97.1493 139.328 96.6267 139.606 95.944C139.883 95.2507 140.022 94.4027 140.022 93.4C140.022 92.3973 139.883 91.5547 139.606 90.872C139.328 90.1787 138.944 89.656 138.454 89.304C137.963 88.9413 137.387 88.76 136.726 88.76C136.086 88.76 135.515 88.9413 135.014 89.304C134.512 89.656 134.123 90.1787 133.846 90.872C133.568 91.5547 133.43 92.3973 133.43 93.4C133.43 94.4027 133.568 95.2507 133.846 95.944C134.123 96.6267 134.512 97.1493 135.014 97.512C135.515 97.864 136.086 98.04 136.726 98.04ZM147.827 99V90.6H151.539C152.488 90.6 153.235 90.7813 153.779 91.144C154.334 91.5067 154.611 92.04 154.611 92.744C154.611 93.4267 154.35 93.9547 153.827 94.328C153.304 94.6907 152.616 94.872 151.763 94.872L151.987 94.536C152.99 94.536 153.726 94.7227 154.195 95.096C154.664 95.4693 154.899 96.008 154.899 96.712C154.899 97.4373 154.632 98.0027 154.099 98.408C153.576 98.8027 152.76 99 151.651 99H147.827ZM148.931 98.104H151.603C152.318 98.104 152.856 97.992 153.219 97.768C153.592 97.5333 153.779 97.16 153.779 96.648C153.779 96.136 153.614 95.7627 153.283 95.528C152.952 95.2933 152.43 95.176 151.715 95.176H148.931V98.104ZM148.931 94.328H151.459C152.11 94.328 152.606 94.2053 152.947 93.96C153.299 93.7147 153.475 93.3573 153.475 92.888C153.475 92.4187 153.299 92.0667 152.947 91.832C152.606 91.5973 152.11 91.48 151.459 91.48H148.931V94.328ZM157.561 99V90.6H158.697V97.272L164.313 90.6H165.321V99H164.185V92.312L158.585 99H157.561ZM174.337 98.456V91.592H170.289L170.193 93.464C170.172 94.0293 170.134 94.584 170.081 95.128C170.038 95.672 169.958 96.1733 169.841 96.632C169.734 97.08 169.58 97.448 169.377 97.736C169.174 98.0133 168.913 98.1733 168.593 98.216L167.457 98.008C167.788 98.0187 168.06 97.9013 168.273 97.656C168.486 97.4 168.652 97.0533 168.769 96.616C168.886 96.1787 168.972 95.6827 169.025 95.128C169.078 94.5627 169.121 93.9867 169.153 93.4L169.265 90.6H175.473V98.456H174.337ZM167.105 101.032V98.008H176.785V101.032H175.713V99H168.177V101.032H167.105ZM178.999 99V90.6H180.135V99H178.999ZM179.575 88.744C179.34 88.744 179.143 88.664 178.983 88.504C178.823 88.344 178.743 88.152 178.743 87.928C178.743 87.704 178.823 87.5173 178.983 87.368C179.143 87.208 179.34 87.128 179.575 87.128C179.809 87.128 180.007 87.2027 180.167 87.352C180.327 87.5013 180.407 87.688 180.407 87.912C180.407 88.1467 180.327 88.344 180.167 88.504C180.017 88.664 179.82 88.744 179.575 88.744ZM183.374 99V90.6H187.086C188.035 90.6 188.782 90.7813 189.326 91.144C189.88 91.5067 190.158 92.04 190.158 92.744C190.158 93.4267 189.896 93.9547 189.374 94.328C188.851 94.6907 188.163 94.872 187.31 94.872L187.534 94.536C188.536 94.536 189.272 94.7227 189.742 95.096C190.211 95.4693 190.446 96.008 190.446 96.712C190.446 97.4373 190.179 98.0027 189.646 98.408C189.123 98.8027 188.307 99 187.198 99H183.374ZM184.478 98.104H187.15C187.864 98.104 188.403 97.992 188.766 97.768C189.139 97.5333 189.326 97.16 189.326 96.648C189.326 96.136 189.16 95.7627 188.83 95.528C188.499 95.2933 187.976 95.176 187.262 95.176H184.478V98.104ZM184.478 94.328H187.006C187.656 94.328 188.152 94.2053 188.494 93.96C188.846 93.7147 189.022 93.3573 189.022 92.888C189.022 92.4187 188.846 92.0667 188.494 91.832C188.152 91.5973 187.656 91.48 187.006 91.48H184.478V94.328ZM198.896 99V91.288L199.184 91.592H195.712V90.6H203.216V91.592H199.744L200.032 91.288V99H198.896ZM210.074 99V97.144L210.026 96.84V93.736C210.026 93.0213 209.824 92.472 209.418 92.088C209.024 91.704 208.432 91.512 207.642 91.512C207.098 91.512 206.581 91.6027 206.09 91.784C205.6 91.9653 205.184 92.2053 204.842 92.504L204.33 91.656C204.757 91.2933 205.269 91.016 205.866 90.824C206.464 90.6213 207.093 90.52 207.754 90.52C208.842 90.52 209.68 90.792 210.266 91.336C210.864 91.8693 211.162 92.6853 211.162 93.784V99H210.074ZM207.178 99.08C206.549 99.08 206 98.9787 205.53 98.776C205.072 98.5627 204.72 98.2747 204.474 97.912C204.229 97.5387 204.106 97.112 204.106 96.632C204.106 96.1947 204.208 95.8 204.41 95.448C204.624 95.0853 204.965 94.7973 205.434 94.584C205.914 94.36 206.554 94.248 207.354 94.248H210.25V95.096H207.386C206.576 95.096 206.01 95.24 205.69 95.528C205.381 95.816 205.226 96.1733 205.226 96.6C205.226 97.08 205.413 97.464 205.786 97.752C206.16 98.04 206.682 98.184 207.354 98.184C207.994 98.184 208.544 98.04 209.002 97.752C209.472 97.4533 209.813 97.0267 210.026 96.472L210.282 97.256C210.069 97.8107 209.696 98.2533 209.162 98.584C208.64 98.9147 207.978 99.08 207.178 99.08ZM223.59 99V97.144L223.542 96.84V93.736C223.542 93.0213 223.339 92.472 222.934 92.088C222.539 91.704 221.947 91.512 221.158 91.512C220.614 91.512 220.096 91.6027 219.606 91.784C219.115 91.9653 218.699 92.2053 218.358 92.504L217.846 91.656C218.272 91.2933 218.784 91.016 219.382 90.824C219.979 90.6213 220.608 90.52 221.27 90.52C222.358 90.52 223.195 90.792 223.782 91.336C224.379 91.8693 224.678 92.6853 224.678 93.784V99H223.59ZM220.694 99.08C220.064 99.08 219.515 98.9787 219.046 98.776C218.587 98.5627 218.235 98.2747 217.99 97.912C217.744 97.5387 217.622 97.112 217.622 96.632C217.622 96.1947 217.723 95.8 217.926 95.448C218.139 95.0853 218.48 94.7973 218.95 94.584C219.43 94.36 220.07 94.248 220.87 94.248H223.766V95.096H220.902C220.091 95.096 219.526 95.24 219.206 95.528C218.896 95.816 218.742 96.1733 218.742 96.6C218.742 97.08 218.928 97.464 219.302 97.752C219.675 98.04 220.198 98.184 220.87 98.184C221.51 98.184 222.059 98.04 222.518 97.752C222.987 97.4533 223.328 97.0267 223.542 96.472L223.798 97.256C223.584 97.8107 223.211 98.2533 222.678 98.584C222.155 98.9147 221.494 99.08 220.694 99.08ZM232.038 99.08C231.313 99.08 230.657 98.9147 230.07 98.584C229.483 98.2427 229.014 97.7573 228.662 97.128C228.321 96.488 228.15 95.7093 228.15 94.792C228.15 93.8747 228.321 93.1013 228.662 92.472C229.003 91.832 229.467 91.3467 230.054 91.016C230.641 90.6853 231.302 90.52 232.038 90.52C232.838 90.52 233.553 90.7013 234.182 91.064C234.822 91.416 235.323 91.9173 235.686 92.568C236.049 93.208 236.23 93.9493 236.23 94.792C236.23 95.6453 236.049 96.392 235.686 97.032C235.323 97.672 234.822 98.1733 234.182 98.536C233.553 98.8987 232.838 99.08 232.038 99.08ZM227.702 102.104V90.6H228.79V93.128L228.678 94.808L228.838 96.504V102.104H227.702ZM231.958 98.072C232.555 98.072 233.089 97.9387 233.558 97.672C234.027 97.3947 234.401 97.0107 234.678 96.52C234.955 96.0187 235.094 95.4427 235.094 94.792C235.094 94.1413 234.955 93.5707 234.678 93.08C234.401 92.5893 234.027 92.2053 233.558 91.928C233.089 91.6507 232.555 91.512 231.958 91.512C231.361 91.512 230.822 91.6507 230.342 91.928C229.873 92.2053 229.499 92.5893 229.222 93.08C228.955 93.5707 228.822 94.1413 228.822 94.792C228.822 95.4427 228.955 96.0187 229.222 96.52C229.499 97.0107 229.873 97.3947 230.342 97.672C230.822 97.9387 231.361 98.072 231.958 98.072ZM242.127 99.08C241.316 99.08 240.585 98.8987 239.935 98.536C239.295 98.1627 238.788 97.656 238.415 97.016C238.041 96.3653 237.855 95.624 237.855 94.792C237.855 93.9493 238.041 93.208 238.415 92.568C238.788 91.928 239.295 91.4267 239.935 91.064C240.575 90.7013 241.305 90.52 242.127 90.52C242.959 90.52 243.695 90.7013 244.335 91.064C244.985 91.4267 245.492 91.928 245.855 92.568C246.228 93.208 246.415 93.9493 246.415 94.792C246.415 95.624 246.228 96.3653 245.855 97.016C245.492 97.656 244.985 98.1627 244.335 98.536C243.684 98.8987 242.948 99.08 242.127 99.08ZM242.127 98.072C242.735 98.072 243.273 97.9387 243.743 97.672C244.212 97.3947 244.58 97.0107 244.847 96.52C245.124 96.0187 245.263 95.4427 245.263 94.792C245.263 94.1307 245.124 93.5547 244.847 93.064C244.58 92.5733 244.212 92.1947 243.743 91.928C243.273 91.6507 242.74 91.512 242.143 91.512C241.545 91.512 241.012 91.6507 240.543 91.928C240.073 92.1947 239.7 92.5733 239.423 93.064C239.145 93.5547 239.007 94.1307 239.007 94.792C239.007 95.4427 239.145 96.0187 239.423 96.52C239.7 97.0107 240.073 97.3947 240.543 97.672C241.012 97.9387 241.54 98.072 242.127 98.072ZM248.843 99V90.6H249.995L253.803 97.048H253.323L257.195 90.6H258.251V99H257.211V91.896L257.419 91.992L253.803 97.976H253.291L249.643 91.928L249.883 91.88V99H248.843ZM266.699 99V97.144L266.651 96.84V93.736C266.651 93.0213 266.449 92.472 266.043 92.088C265.649 91.704 265.057 91.512 264.267 91.512C263.723 91.512 263.206 91.6027 262.715 91.784C262.225 91.9653 261.809 92.2053 261.467 92.504L260.955 91.656C261.382 91.2933 261.894 91.016 262.491 90.824C263.089 90.6213 263.718 90.52 264.379 90.52C265.467 90.52 266.305 90.792 266.891 91.336C267.489 91.8693 267.787 92.6853 267.787 93.784V99H266.699ZM263.803 99.08C263.174 99.08 262.625 98.9787 262.155 98.776C261.697 98.5627 261.345 98.2747 261.099 97.912C260.854 97.5387 260.731 97.112 260.731 96.632C260.731 96.1947 260.833 95.8 261.035 95.448C261.249 95.0853 261.59 94.7973 262.059 94.584C262.539 94.36 263.179 94.248 263.979 94.248H266.875V95.096H264.011C263.201 95.096 262.635 95.24 262.315 95.528C262.006 95.816 261.851 96.1733 261.851 96.6C261.851 97.08 262.038 97.464 262.411 97.752C262.785 98.04 263.307 98.184 263.979 98.184C264.619 98.184 265.169 98.04 265.627 97.752C266.097 97.4533 266.438 97.0267 266.651 96.472L266.907 97.256C266.694 97.8107 266.321 98.2533 265.787 98.584C265.265 98.9147 264.603 99.08 263.803 99.08ZM272.411 99V91.288L272.699 91.592H269.227V90.6H276.731V91.592H273.259L273.547 91.288V99H272.411ZM278.374 99V90.6H279.51V99H278.374ZM278.95 88.744C278.715 88.744 278.518 88.664 278.358 88.504C278.198 88.344 278.118 88.152 278.118 87.928C278.118 87.704 278.198 87.5173 278.358 87.368C278.518 87.208 278.715 87.128 278.95 87.128C279.184 87.128 279.382 87.2027 279.542 87.352C279.702 87.5013 279.782 87.688 279.782 87.912C279.782 88.1467 279.702 88.344 279.542 88.504C279.392 88.664 279.195 88.744 278.95 88.744ZM282.749 99V90.6H286.461C287.41 90.6 288.157 90.7813 288.701 91.144C289.255 91.5067 289.533 92.04 289.533 92.744C289.533 93.4267 289.271 93.9547 288.749 94.328C288.226 94.6907 287.538 94.872 286.685 94.872L286.909 94.536C287.911 94.536 288.647 94.7227 289.117 95.096C289.586 95.4693 289.821 96.008 289.821 96.712C289.821 97.4373 289.554 98.0027 289.021 98.408C288.498 98.8027 287.682 99 286.573 99H282.749ZM283.853 98.104H286.525C287.239 98.104 287.778 97.992 288.141 97.768C288.514 97.5333 288.701 97.16 288.701 96.648C288.701 96.136 288.535 95.7627 288.205 95.528C287.874 95.2933 287.351 95.176 286.637 95.176H283.853V98.104ZM283.853 94.328H286.381C287.031 94.328 287.527 94.2053 287.869 93.96C288.221 93.7147 288.397 93.3573 288.397 92.888C288.397 92.4187 288.221 92.0667 287.869 91.832C287.527 91.5973 287.031 91.48 286.381 91.48H283.853V94.328ZM93.5501 119.08C92.7181 119.08 91.9714 118.899 91.3101 118.536C90.6594 118.163 90.1474 117.656 89.7741 117.016C89.4007 116.365 89.2141 115.624 89.2141 114.792C89.2141 113.949 89.4007 113.208 89.7741 112.568C90.1474 111.928 90.6594 111.427 91.3101 111.064C91.9714 110.701 92.7181 110.52 93.5501 110.52C94.2647 110.52 94.9101 110.659 95.4861 110.936C96.0621 111.213 96.5154 111.629 96.8461 112.184L95.9981 112.76C95.7101 112.333 95.3527 112.019 94.9261 111.816C94.4994 111.613 94.0354 111.512 93.5341 111.512C92.9367 111.512 92.3981 111.651 91.9181 111.928C91.4381 112.195 91.0594 112.573 90.7821 113.064C90.5047 113.555 90.3661 114.131 90.3661 114.792C90.3661 115.453 90.5047 116.029 90.7821 116.52C91.0594 117.011 91.4381 117.395 91.9181 117.672C92.3981 117.939 92.9367 118.072 93.5341 118.072C94.0354 118.072 94.4994 117.971 94.9261 117.768C95.3527 117.565 95.7101 117.256 95.9981 116.84L96.8461 117.416C96.5154 117.96 96.0621 118.376 95.4861 118.664C94.9101 118.941 94.2647 119.08 93.5501 119.08ZM99.0457 119V110.6H102.758C103.707 110.6 104.454 110.781 104.998 111.144C105.552 111.507 105.83 112.04 105.83 112.744C105.83 113.427 105.568 113.955 105.046 114.328C104.523 114.691 103.835 114.872 102.982 114.872L103.206 114.536C104.208 114.536 104.944 114.723 105.414 115.096C105.883 115.469 106.118 116.008 106.118 116.712C106.118 117.437 105.851 118.003 105.318 118.408C104.795 118.803 103.979 119 102.87 119H99.0457ZM100.15 118.104H102.822C103.536 118.104 104.075 117.992 104.438 117.768C104.811 117.533 104.998 117.16 104.998 116.648C104.998 116.136 104.832 115.763 104.502 115.528C104.171 115.293 103.648 115.176 102.934 115.176H100.15V118.104ZM100.15 114.328H102.678C103.328 114.328 103.824 114.205 104.166 113.96C104.518 113.715 104.694 113.357 104.694 112.888C104.694 112.419 104.518 112.067 104.166 111.832C103.824 111.597 103.328 111.48 102.678 111.48H100.15V114.328ZM108.78 119V110.6H109.916V119H108.78ZM109.356 108.744C109.121 108.744 108.924 108.664 108.764 108.504C108.604 108.344 108.524 108.152 108.524 107.928C108.524 107.704 108.604 107.517 108.764 107.368C108.924 107.208 109.121 107.128 109.356 107.128C109.591 107.128 109.788 107.203 109.948 107.352C110.108 107.501 110.188 107.688 110.188 107.912C110.188 108.147 110.108 108.344 109.948 108.504C109.799 108.664 109.601 108.744 109.356 108.744ZM118.467 115.448C117.976 115.661 117.48 115.832 116.979 115.96C116.488 116.077 115.998 116.136 115.507 116.136C114.515 116.136 113.731 115.912 113.155 115.464C112.579 115.005 112.291 114.301 112.291 113.352V110.6H113.411V113.288C113.411 113.928 113.619 114.408 114.035 114.728C114.451 115.048 115.011 115.208 115.715 115.208C116.142 115.208 116.59 115.155 117.059 115.048C117.528 114.931 118.003 114.765 118.483 114.552L118.467 115.448ZM118.371 119V110.6H119.507V119H118.371ZM126.189 119.08C125.379 119.08 124.648 118.899 123.997 118.536C123.357 118.163 122.851 117.656 122.477 117.016C122.104 116.365 121.917 115.624 121.917 114.792C121.917 113.949 122.104 113.208 122.477 112.568C122.851 111.928 123.357 111.427 123.997 111.064C124.637 110.701 125.368 110.52 126.189 110.52C127.021 110.52 127.757 110.701 128.397 111.064C129.048 111.427 129.555 111.928 129.917 112.568C130.291 113.208 130.477 113.949 130.477 114.792C130.477 115.624 130.291 116.365 129.917 117.016C129.555 117.656 129.048 118.163 128.397 118.536C127.747 118.899 127.011 119.08 126.189 119.08ZM126.189 118.072C126.797 118.072 127.336 117.939 127.805 117.672C128.275 117.395 128.643 117.011 128.909 116.52C129.187 116.019 129.325 115.443 129.325 114.792C129.325 114.131 129.187 113.555 128.909 113.064C128.643 112.573 128.275 112.195 127.805 111.928C127.336 111.651 126.803 111.512 126.205 111.512C125.608 111.512 125.075 111.651 124.605 111.928C124.136 112.195 123.763 112.573 123.485 113.064C123.208 113.555 123.069 114.131 123.069 114.792C123.069 115.443 123.208 116.019 123.485 116.52C123.763 117.011 124.136 117.395 124.605 117.672C125.075 117.939 125.603 118.072 126.189 118.072ZM139.065 119L135.609 114.84L136.553 114.28L140.409 119H139.065ZM132.905 119V110.6H134.041V119H132.905ZM133.689 115.256V114.28H136.393V115.256H133.689ZM136.649 114.92L135.593 114.76L138.937 110.6H140.169L136.649 114.92ZM150.725 119.08C150 119.08 149.344 118.915 148.757 118.584C148.171 118.243 147.701 117.757 147.349 117.128C147.008 116.488 146.837 115.709 146.837 114.792C146.837 113.875 147.008 113.101 147.349 112.472C147.691 111.832 148.155 111.347 148.741 111.016C149.328 110.685 149.989 110.52 150.725 110.52C151.525 110.52 152.24 110.701 152.869 111.064C153.509 111.416 154.011 111.917 154.373 112.568C154.736 113.208 154.917 113.949 154.917 114.792C154.917 115.645 154.736 116.392 154.373 117.032C154.011 117.672 153.509 118.173 152.869 118.536C152.24 118.899 151.525 119.08 150.725 119.08ZM146.389 122.104V110.6H147.477V113.128L147.365 114.808L147.525 116.504V122.104H146.389ZM150.645 118.072C151.243 118.072 151.776 117.939 152.245 117.672C152.715 117.395 153.088 117.011 153.365 116.52C153.643 116.019 153.781 115.443 153.781 114.792C153.781 114.141 153.643 113.571 153.365 113.08C153.088 112.589 152.715 112.205 152.245 111.928C151.776 111.651 151.243 111.512 150.645 111.512C150.048 111.512 149.509 111.651 149.029 111.928C148.56 112.205 148.187 112.589 147.909 113.08C147.643 113.571 147.509 114.141 147.509 114.792C147.509 115.443 147.643 116.019 147.909 116.52C148.187 117.011 148.56 117.395 149.029 117.672C149.509 117.939 150.048 118.072 150.645 118.072ZM157.268 122.184C156.873 122.184 156.494 122.12 156.132 121.992C155.78 121.864 155.476 121.672 155.22 121.416L155.748 120.568C155.961 120.771 156.19 120.925 156.436 121.032C156.692 121.149 156.974 121.208 157.284 121.208C157.657 121.208 157.977 121.101 158.244 120.888C158.521 120.685 158.782 120.323 159.028 119.8L159.572 118.568L159.7 118.392L163.156 110.6H164.276L160.068 120.008C159.833 120.552 159.572 120.984 159.284 121.304C159.006 121.624 158.702 121.848 158.372 121.976C158.041 122.115 157.673 122.184 157.268 122.184ZM159.508 119.24L155.636 110.6H156.82L160.244 118.312L159.508 119.24ZM171.358 115.448C170.867 115.661 170.371 115.832 169.87 115.96C169.379 116.077 168.888 116.136 168.398 116.136C167.406 116.136 166.622 115.912 166.046 115.464C165.47 115.005 165.182 114.301 165.182 113.352V110.6H166.302V113.288C166.302 113.928 166.51 114.408 166.926 114.728C167.342 115.048 167.902 115.208 168.606 115.208C169.032 115.208 169.48 115.155 169.95 115.048C170.419 114.931 170.894 114.765 171.374 114.552L171.358 115.448ZM171.262 119V110.6H172.398V119H171.262ZM175.624 119V110.6H176.76V114.312H182.056V110.6H183.192V119H182.056V115.288H176.76V119H175.624ZM189.877 119.08C189.066 119.08 188.335 118.899 187.685 118.536C187.045 118.163 186.538 117.656 186.165 117.016C185.791 116.365 185.605 115.624 185.605 114.792C185.605 113.949 185.791 113.208 186.165 112.568C186.538 111.928 187.045 111.427 187.685 111.064C188.325 110.701 189.055 110.52 189.877 110.52C190.709 110.52 191.445 110.701 192.085 111.064C192.735 111.427 193.242 111.928 193.605 112.568C193.978 113.208 194.165 113.949 194.165 114.792C194.165 115.624 193.978 116.365 193.605 117.016C193.242 117.656 192.735 118.163 192.085 118.536C191.434 118.899 190.698 119.08 189.877 119.08ZM189.877 118.072C190.485 118.072 191.023 117.939 191.493 117.672C191.962 117.395 192.33 117.011 192.597 116.52C192.874 116.019 193.013 115.443 193.013 114.792C193.013 114.131 192.874 113.555 192.597 113.064C192.33 112.573 191.962 112.195 191.493 111.928C191.023 111.651 190.49 111.512 189.893 111.512C189.295 111.512 188.762 111.651 188.293 111.928C187.823 112.195 187.45 112.573 187.173 113.064C186.895 113.555 186.757 114.131 186.757 114.792C186.757 115.443 186.895 116.019 187.173 116.52C187.45 117.011 187.823 117.395 188.293 117.672C188.762 117.939 189.29 118.072 189.877 118.072ZM196.561 119V110.6H197.697V119H196.561ZM198.193 108.92C198.011 108.92 197.857 108.856 197.729 108.728C197.601 108.589 197.537 108.424 197.537 108.232C197.537 108.051 197.601 107.896 197.729 107.768C197.857 107.629 198.011 107.56 198.193 107.56C198.385 107.56 198.545 107.624 198.673 107.752C198.801 107.88 198.865 108.04 198.865 108.232C198.865 108.424 198.801 108.589 198.673 108.728C198.545 108.856 198.385 108.92 198.193 108.92ZM196.081 108.92C195.889 108.92 195.729 108.856 195.601 108.728C195.473 108.589 195.409 108.424 195.409 108.232C195.409 108.051 195.473 107.896 195.601 107.768C195.729 107.629 195.889 107.56 196.081 107.56C196.273 107.56 196.427 107.624 196.545 107.752C196.673 107.88 196.737 108.04 196.737 108.232C196.737 108.424 196.673 108.589 196.545 108.728C196.427 108.856 196.273 108.92 196.081 108.92ZM209.413 119.08C208.688 119.08 208.032 118.915 207.445 118.584C206.858 118.243 206.389 117.757 206.037 117.128C205.696 116.488 205.525 115.709 205.525 114.792C205.525 113.875 205.696 113.101 206.037 112.472C206.378 111.832 206.842 111.347 207.429 111.016C208.016 110.685 208.677 110.52 209.413 110.52C210.213 110.52 210.928 110.701 211.557 111.064C212.197 111.416 212.698 111.917 213.061 112.568C213.424 113.208 213.605 113.949 213.605 114.792C213.605 115.645 213.424 116.392 213.061 117.032C212.698 117.672 212.197 118.173 211.557 118.536C210.928 118.899 210.213 119.08 209.413 119.08ZM205.077 122.104V110.6H206.165V113.128L206.053 114.808L206.213 116.504V122.104H205.077ZM209.333 118.072C209.93 118.072 210.464 117.939 210.933 117.672C211.402 117.395 211.776 117.011 212.053 116.52C212.33 116.019 212.469 115.443 212.469 114.792C212.469 114.141 212.33 113.571 212.053 113.08C211.776 112.589 211.402 112.205 210.933 111.928C210.464 111.651 209.93 111.512 209.333 111.512C208.736 111.512 208.197 111.651 207.717 111.928C207.248 112.205 206.874 112.589 206.597 113.08C206.33 113.571 206.197 114.141 206.197 114.792C206.197 115.443 206.33 116.019 206.597 116.52C206.874 117.011 207.248 117.395 207.717 117.672C208.197 117.939 208.736 118.072 209.333 118.072ZM219.502 119.08C218.691 119.08 217.96 118.899 217.31 118.536C216.67 118.163 216.163 117.656 215.79 117.016C215.416 116.365 215.23 115.624 215.23 114.792C215.23 113.949 215.416 113.208 215.79 112.568C216.163 111.928 216.67 111.427 217.31 111.064C217.95 110.701 218.68 110.52 219.502 110.52C220.334 110.52 221.07 110.701 221.71 111.064C222.36 111.427 222.867 111.928 223.23 112.568C223.603 113.208 223.79 113.949 223.79 114.792C223.79 115.624 223.603 116.365 223.23 117.016C222.867 117.656 222.36 118.163 221.71 118.536C221.059 118.899 220.323 119.08 219.502 119.08ZM219.502 118.072C220.11 118.072 220.648 117.939 221.118 117.672C221.587 117.395 221.955 117.011 222.222 116.52C222.499 116.019 222.638 115.443 222.638 114.792C222.638 114.131 222.499 113.555 222.222 113.064C221.955 112.573 221.587 112.195 221.118 111.928C220.648 111.651 220.115 111.512 219.518 111.512C218.92 111.512 218.387 111.651 217.918 111.928C217.448 112.195 217.075 112.573 216.798 113.064C216.52 113.555 216.382 114.131 216.382 114.792C216.382 115.443 216.52 116.019 216.798 116.52C217.075 117.011 217.448 117.395 217.918 117.672C218.387 117.939 218.915 118.072 219.502 118.072ZM229.994 119.096C229.311 119.096 228.703 118.984 228.17 118.76C227.647 118.536 227.199 118.195 226.826 117.736C226.452 117.277 226.17 116.712 225.978 116.04C225.786 115.357 225.69 114.568 225.69 113.672C225.69 112.872 225.764 112.173 225.914 111.576C226.063 110.968 226.271 110.445 226.538 110.008C226.804 109.571 227.114 109.203 227.466 108.904C227.828 108.595 228.218 108.349 228.634 108.168C229.06 107.976 229.498 107.832 229.946 107.736L233.722 106.856L233.914 107.912L230.362 108.712C230.138 108.765 229.866 108.84 229.546 108.936C229.236 109.032 228.916 109.176 228.586 109.368C228.266 109.56 227.967 109.827 227.69 110.168C227.412 110.509 227.188 110.952 227.018 111.496C226.858 112.029 226.778 112.696 226.778 113.496C226.778 113.667 226.783 113.805 226.794 113.912C226.804 114.008 226.815 114.115 226.826 114.232C226.847 114.339 226.863 114.499 226.874 114.712L226.378 114.296C226.495 113.645 226.735 113.08 227.098 112.6C227.46 112.109 227.914 111.731 228.458 111.464C229.012 111.187 229.626 111.048 230.298 111.048C231.076 111.048 231.77 111.219 232.378 111.56C232.986 111.891 233.46 112.355 233.802 112.952C234.154 113.549 234.33 114.243 234.33 115.032C234.33 115.811 234.148 116.509 233.786 117.128C233.434 117.747 232.932 118.232 232.282 118.584C231.631 118.925 230.868 119.096 229.994 119.096ZM230.122 118.152C230.719 118.152 231.247 118.019 231.706 117.752C232.164 117.475 232.522 117.101 232.778 116.632C233.044 116.163 233.178 115.635 233.178 115.048C233.178 114.472 233.044 113.96 232.778 113.512C232.522 113.064 232.164 112.712 231.706 112.456C231.247 112.189 230.714 112.056 230.106 112.056C229.508 112.056 228.98 112.184 228.522 112.44C228.063 112.685 227.7 113.032 227.434 113.48C227.178 113.928 227.05 114.445 227.05 115.032C227.05 115.619 227.178 116.147 227.434 116.616C227.7 117.085 228.063 117.459 228.522 117.736C228.991 118.013 229.524 118.152 230.122 118.152ZM240.22 119.08C239.41 119.08 238.679 118.899 238.028 118.536C237.388 118.163 236.882 117.656 236.508 117.016C236.135 116.365 235.948 115.624 235.948 114.792C235.948 113.949 236.135 113.208 236.508 112.568C236.882 111.928 237.388 111.427 238.028 111.064C238.668 110.701 239.399 110.52 240.22 110.52C241.052 110.52 241.788 110.701 242.428 111.064C243.079 111.427 243.586 111.928 243.948 112.568C244.322 113.208 244.508 113.949 244.508 114.792C244.508 115.624 244.322 116.365 243.948 117.016C243.586 117.656 243.079 118.163 242.428 118.536C241.778 118.899 241.042 119.08 240.22 119.08ZM240.22 118.072C240.828 118.072 241.367 117.939 241.836 117.672C242.306 117.395 242.674 117.011 242.94 116.52C243.218 116.019 243.356 115.443 243.356 114.792C243.356 114.131 243.218 113.555 242.94 113.064C242.674 112.573 242.306 112.195 241.836 111.928C241.367 111.651 240.834 111.512 240.236 111.512C239.639 111.512 239.106 111.651 238.636 111.928C238.167 112.195 237.794 112.573 237.516 113.064C237.239 113.555 237.1 114.131 237.1 114.792C237.1 115.443 237.239 116.019 237.516 116.52C237.794 117.011 238.167 117.395 238.636 117.672C239.106 117.939 239.634 118.072 240.22 118.072ZM248.224 119V111.288L248.512 111.592H245.04V110.6H252.544V111.592H249.072L249.36 111.288V119H248.224ZM254.186 119V110.6H255.322V117.272L260.938 110.6H261.946V119H260.81V112.312L255.21 119H254.186Z" fill="#735F3D"/>
<path d="M45.6305 56V34.56L46.6545 35.648H40.3505V33.6H47.9345V56H45.6305ZM62.217 56.192C60.489 56.192 58.953 55.744 57.609 54.848C56.265 53.9307 55.209 52.6293 54.441 50.944C53.673 49.2373 53.289 47.1893 53.289 44.8C53.289 42.4107 53.673 40.3733 54.441 38.688C55.209 36.9813 56.265 35.68 57.609 34.784C58.953 33.8667 60.489 33.408 62.217 33.408C63.945 33.408 65.481 33.8667 66.825 34.784C68.169 35.68 69.225 36.9813 69.993 38.688C70.7823 40.3733 71.177 42.4107 71.177 44.8C71.177 47.1893 70.7823 49.2373 69.993 50.944C69.225 52.6293 68.169 53.9307 66.825 54.848C65.481 55.744 63.945 56.192 62.217 56.192ZM62.217 54.08C63.5397 54.08 64.6917 53.728 65.673 53.024C66.6543 52.2987 67.4223 51.2533 67.977 49.888C68.5317 48.5013 68.809 46.8053 68.809 44.8C68.809 42.7947 68.5317 41.1093 67.977 39.744C67.4223 38.3573 66.6543 37.312 65.673 36.608C64.6917 35.8827 63.5397 35.52 62.217 35.52C60.937 35.52 59.7957 35.8827 58.793 36.608C57.7903 37.312 57.0117 38.3573 56.457 39.744C55.9023 41.1093 55.625 42.7947 55.625 44.8C55.625 46.8053 55.9023 48.5013 56.457 49.888C57.0117 51.2533 57.7903 52.2987 58.793 53.024C59.7957 53.728 60.937 54.08 62.217 54.08ZM83.4045 56.192C81.6765 56.192 80.1405 55.744 78.7965 54.848C77.4525 53.9307 76.3965 52.6293 75.6285 50.944C74.8605 49.2373 74.4765 47.1893 74.4765 44.8C74.4765 42.4107 74.8605 40.3733 75.6285 38.688C76.3965 36.9813 77.4525 35.68 78.7965 34.784C80.1405 33.8667 81.6765 33.408 83.4045 33.408C85.1325 33.408 86.6685 33.8667 88.0125 34.784C89.3565 35.68 90.4125 36.9813 91.1805 38.688C91.9698 40.3733 92.3645 42.4107 92.3645 44.8C92.3645 47.1893 91.9698 49.2373 91.1805 50.944C90.4125 52.6293 89.3565 53.9307 88.0125 54.848C86.6685 55.744 85.1325 56.192 83.4045 56.192ZM83.4045 54.08C84.7272 54.08 85.8792 53.728 86.8605 53.024C87.8418 52.2987 88.6098 51.2533 89.1645 49.888C89.7192 48.5013 89.9965 46.8053 89.9965 44.8C89.9965 42.7947 89.7192 41.1093 89.1645 39.744C88.6098 38.3573 87.8418 37.312 86.8605 36.608C85.8792 35.8827 84.7272 35.52 83.4045 35.52C82.1245 35.52 80.9832 35.8827 79.9805 36.608C78.9778 37.312 78.1992 38.3573 77.6445 39.744C77.0898 41.1093 76.8125 42.7947 76.8125 44.8C76.8125 46.8053 77.0898 48.5013 77.6445 49.888C78.1992 51.2533 78.9778 52.2987 79.9805 53.024C80.9832 53.728 82.1245 54.08 83.4045 54.08ZM105.607 56V39.2H113.031C114.93 39.2 116.423 39.5627 117.511 40.288C118.62 41.0133 119.175 42.08 119.175 43.488C119.175 44.8533 118.652 45.9093 117.607 46.656C116.562 47.3813 115.186 47.744 113.479 47.744L113.927 47.072C115.932 47.072 117.404 47.4453 118.343 48.192C119.282 48.9387 119.751 50.016 119.751 51.424C119.751 52.8747 119.218 54.0053 118.151 54.816C117.106 55.6053 115.474 56 113.255 56H105.607ZM107.815 54.208H113.159C114.588 54.208 115.666 53.984 116.391 53.536C117.138 53.0667 117.511 52.32 117.511 51.296C117.511 50.272 117.18 49.5253 116.519 49.056C115.858 48.5867 114.812 48.352 113.383 48.352H107.815V54.208ZM107.815 46.656H112.871C114.172 46.656 115.164 46.4107 115.847 45.92C116.551 45.4293 116.903 44.7147 116.903 43.776C116.903 42.8373 116.551 42.1333 115.847 41.664C115.164 41.1947 114.172 40.96 112.871 40.96H107.815V46.656ZM125.076 56V39.2H127.348V52.544L138.58 39.2H140.596V56H138.324V42.624L127.124 56H125.076ZM158.627 54.912V41.184H150.531L150.339 44.928C150.296 46.0587 150.222 47.168 150.115 48.256C150.03 49.344 149.87 50.3467 149.635 51.264C149.422 52.16 149.112 52.896 148.707 53.472C148.302 54.0267 147.779 54.3467 147.139 54.432L144.867 54.016C145.528 54.0373 146.072 53.8027 146.499 53.312C146.926 52.8 147.256 52.1067 147.491 51.232C147.726 50.3573 147.896 49.3653 148.003 48.256C148.11 47.1253 148.195 45.9733 148.259 44.8L148.483 39.2H160.899V54.912H158.627ZM144.163 60.064V54.016H163.523V60.064H161.379V56H146.307V60.064H144.163ZM167.951 56V39.2H170.223V56H167.951ZM169.103 35.488C168.633 35.488 168.239 35.328 167.919 35.008C167.599 34.688 167.439 34.304 167.439 33.856C167.439 33.408 167.599 33.0347 167.919 32.736C168.239 32.416 168.633 32.256 169.103 32.256C169.572 32.256 169.967 32.4053 170.287 32.704C170.607 33.0027 170.767 33.376 170.767 33.824C170.767 34.2933 170.607 34.688 170.287 35.008C169.988 35.328 169.593 35.488 169.103 35.488ZM176.701 56V39.2H184.125C186.023 39.2 187.517 39.5627 188.605 40.288C189.714 41.0133 190.269 42.08 190.269 43.488C190.269 44.8533 189.746 45.9093 188.701 46.656C187.655 47.3813 186.279 47.744 184.573 47.744L185.021 47.072C187.026 47.072 188.498 47.4453 189.437 48.192C190.375 48.9387 190.845 50.016 190.845 51.424C190.845 52.8747 190.311 54.0053 189.245 54.816C188.199 55.6053 186.567 56 184.349 56H176.701ZM178.909 54.208H184.253C185.682 54.208 186.759 53.984 187.485 53.536C188.231 53.0667 188.605 52.32 188.605 51.296C188.605 50.272 188.274 49.5253 187.613 49.056C186.951 48.5867 185.906 48.352 184.477 48.352H178.909V54.208ZM178.909 46.656H183.965C185.266 46.656 186.258 46.4107 186.941 45.92C187.645 45.4293 187.997 44.7147 187.997 43.776C187.997 42.8373 187.645 42.1333 186.941 41.664C186.258 41.1947 185.266 40.96 183.965 40.96H178.909V46.656Z" fill="#735F3D"/>
<defs>
<clipPath id="clip0_25_112">
<rect width="60" height="60" fill="white" transform="translate(267 15)"/>
</clipPath>
</defs>
</svg>
