<svg width="60" height="40" viewBox="0 0 60 40" fill="none" xmlns="http://www.w3.org/2000/svg">
<rect width="60" height="40" fill="#F2D0A4"/>
<path d="M44 7.83795L43.0713 10.3311H40.66L36.3175 25.2901H19.7687L14 11.5777H35.015L34.31 14.0709H17.76L21.4313 22.797H34.4662L38.7563 7.83795H44ZM24.625 26.5367C23.59 26.5367 22.75 27.3744 22.75 28.4066C22.75 29.44 23.59 30.2765 24.625 30.2765C25.66 30.2765 26.5 29.44 26.5 28.4066C26.5 27.3744 25.66 26.5367 24.625 26.5367ZM33.25 17.8106L30.875 26.5367C29.84 26.5367 29 27.3732 29 28.4066C29 29.44 29.84 30.2765 30.875 30.2765C31.91 30.2765 32.75 29.44 32.75 28.4066C32.75 27.3744 31.91 26.5367 30.875 26.5367L33.25 17.8106Z" fill="white"/>
</svg>
