<svg width="352" height="140" viewBox="0 0 352 140" fill="none" xmlns="http://www.w3.org/2000/svg">
<rect width="352" height="140" fill="#FFF5E8"/>
<path d="M300.75 15H269.25C268.01 15 267 16.0516 267 17.3438V51.7188C267 53.0109 268.01 54.0625 269.25 54.0625H300.75C301.991 54.0625 303 53.0109 303 51.7188V17.3438C303 16.0516 301.991 15 300.75 15ZM301.5 51.7188C301.5 52.1484 301.162 52.5 300.75 52.5H269.25C268.837 52.5 268.5 52.1484 268.5 51.7188V17.3438C268.5 16.9141 268.837 16.5625 269.25 16.5625H300.75C301.162 16.5625 301.5 16.9141 301.5 17.3438V51.7188Z" fill="#735F3D"/>
<path d="M321.337 24.0797C320.949 23.2985 320.182 22.8126 319.338 22.8126H309.75C308.51 22.8126 307.5 23.8641 307.5 25.1563V37.6563C307.5 38.9485 308.51 40.0001 309.75 40.0001H319.5C319.914 40.0001 320.25 39.6501 320.25 39.2188C320.25 38.7876 319.914 38.4376 319.5 38.4376H309.75C309.338 38.4376 309 38.086 309 37.6563V25.1563C309 24.7266 309.338 24.3751 309.75 24.3751H319.338C319.62 24.3751 319.875 24.5376 320.004 24.7985L325.417 35.6735C325.47 35.7797 325.5 35.9032 325.5 36.0282V51.7188C325.5 52.1485 325.163 52.5001 324.75 52.5001H307.5C307.086 52.5001 306.75 52.8501 306.75 53.2813C306.75 53.7126 307.086 54.0626 307.5 54.0626H324.75C325.99 54.0626 327 53.011 327 51.7188V36.0282C327 35.6516 326.912 35.2782 326.748 34.9501L321.337 24.0797Z" fill="#735F3D"/>
<path d="M297 36.8751H274.5C274.086 36.8751 273.75 37.2252 273.75 37.6566C273.75 38.088 274.086 38.4382 274.5 38.4382H297C297.414 38.4382 297.75 38.088 297.75 37.6566C297.75 37.2252 297.414 36.8751 297 36.8751Z" fill="#735F3D"/>
<path d="M321.75 57.1876C321.336 57.1876 321 57.5376 321 57.9688C321 60.9844 318.645 63.4376 315.75 63.4376C312.855 63.4376 310.5 60.9844 310.5 57.9688C310.5 57.5376 310.164 57.1876 309.75 57.1876C309.336 57.1876 309 57.5376 309 57.9688C309 61.8454 312.029 65.0001 315.75 65.0001C319.472 65.0001 322.5 61.8454 322.5 57.9688C322.5 57.5376 322.164 57.1876 321.75 57.1876Z" fill="#735F3D"/>
<path d="M284.25 57.1876C283.836 57.1876 283.5 57.5376 283.5 57.9688C283.5 60.9844 281.145 63.4376 278.25 63.4376C275.355 63.4376 273 60.9844 273 57.9688C273 57.5376 272.664 57.1876 272.25 57.1876C271.836 57.1876 271.5 57.5376 271.5 57.9688C271.5 61.8454 274.529 65.0001 278.25 65.0001C281.972 65.0001 285 61.8454 285 57.9688C285 57.5376 284.664 57.1876 284.25 57.1876Z" fill="#735F3D"/>
<path d="M59.0623 54.88V35.648H48.3423L48.1503 41.088C48.0863 42.7733 47.9796 44.3947 47.8303 45.952C47.7023 47.488 47.4889 48.8747 47.1903 50.112C46.9129 51.328 46.5289 52.32 46.0383 53.088C45.5689 53.856 44.9503 54.304 44.1823 54.432L41.5903 53.952C42.4436 53.9947 43.1476 53.6853 43.7023 53.024C44.2783 52.3627 44.7156 51.4347 45.0143 50.24C45.3343 49.0453 45.5689 47.648 45.7183 46.048C45.8676 44.448 45.9743 42.72 46.0383 40.864L46.2943 33.6H61.3983V54.88H59.0623ZM40.7583 61.024L40.7903 53.952H64.7583V61.024H62.5503V56H42.9983L42.9663 61.024H40.7583ZM75.4878 56.16C73.8664 56.16 72.4051 55.7973 71.1038 55.072C69.8238 54.3253 68.8104 53.312 68.0638 52.032C67.3171 50.7307 66.9438 49.248 66.9438 47.584C66.9438 45.8987 67.3171 44.416 68.0638 43.136C68.8104 41.856 69.8238 40.8533 71.1038 40.128C72.3838 39.4027 73.8451 39.04 75.4878 39.04C77.1518 39.04 78.6238 39.4027 79.9038 40.128C81.2051 40.8533 82.2184 41.856 82.9438 43.136C83.6904 44.416 84.0638 45.8987 84.0638 47.584C84.0638 49.248 83.6904 50.7307 82.9438 52.032C82.2184 53.312 81.2051 54.3253 79.9038 55.072C78.6024 55.7973 77.1304 56.16 75.4878 56.16ZM75.4878 54.144C76.7038 54.144 77.7811 53.8773 78.7198 53.344C79.6584 52.7893 80.3944 52.0213 80.9278 51.04C81.4824 50.0373 81.7598 48.8853 81.7598 47.584C81.7598 46.2613 81.4824 45.1093 80.9278 44.128C80.3944 43.1467 79.6584 42.3893 78.7198 41.856C77.7811 41.3013 76.7144 41.024 75.5198 41.024C74.3251 41.024 73.2584 41.3013 72.3198 41.856C71.3811 42.3893 70.6344 43.1467 70.0798 44.128C69.5251 45.1093 69.2478 46.2613 69.2478 47.584C69.2478 48.8853 69.5251 50.0373 70.0798 51.04C70.6344 52.0213 71.3811 52.7893 72.3198 53.344C73.2584 53.8773 74.3144 54.144 75.4878 54.144ZM95.9595 56.16C94.2955 56.16 92.8022 55.7973 91.4795 55.072C90.1782 54.3253 89.1542 53.312 88.4075 52.032C87.6608 50.7307 87.2875 49.248 87.2875 47.584C87.2875 45.8987 87.6608 44.416 88.4075 43.136C89.1542 41.856 90.1782 40.8533 91.4795 40.128C92.8022 39.4027 94.2955 39.04 95.9595 39.04C97.3888 39.04 98.6795 39.3173 99.8315 39.872C100.984 40.4267 101.89 41.2587 102.552 42.368L100.856 43.52C100.28 42.6667 99.5648 42.0373 98.7115 41.632C97.8582 41.2267 96.9302 41.024 95.9275 41.024C94.7328 41.024 93.6555 41.3013 92.6955 41.856C91.7355 42.3893 90.9782 43.1467 90.4235 44.128C89.8688 45.1093 89.5915 46.2613 89.5915 47.584C89.5915 48.9067 89.8688 50.0587 90.4235 51.04C90.9782 52.0213 91.7355 52.7893 92.6955 53.344C93.6555 53.8773 94.7328 54.144 95.9275 54.144C96.9302 54.144 97.8582 53.9413 98.7115 53.536C99.5648 53.1307 100.28 52.512 100.856 51.68L102.552 52.832C101.89 53.92 100.984 54.752 99.8315 55.328C98.6795 55.8827 97.3888 56.16 95.9595 56.16ZM109.838 56V40.576L110.414 41.184H103.47V39.2H118.478V41.184H111.534L112.11 40.576V56H109.838ZM132.195 56V52.288L132.099 51.68V45.472C132.099 44.0427 131.694 42.944 130.883 42.176C130.094 41.408 128.91 41.024 127.331 41.024C126.243 41.024 125.209 41.2053 124.227 41.568C123.246 41.9307 122.414 42.4107 121.731 43.008L120.707 41.312C121.561 40.5867 122.585 40.032 123.779 39.648C124.974 39.2427 126.233 39.04 127.555 39.04C129.731 39.04 131.406 39.584 132.579 40.672C133.774 41.7387 134.371 43.3707 134.371 45.568V56H132.195ZM126.403 56.16C125.145 56.16 124.046 55.9573 123.107 55.552C122.19 55.1253 121.486 54.5493 120.995 53.824C120.505 53.0773 120.259 52.224 120.259 51.264C120.259 50.3893 120.462 49.6 120.867 48.896C121.294 48.1707 121.977 47.5947 122.915 47.168C123.875 46.72 125.155 46.496 126.755 46.496H132.547V48.192H126.819C125.198 48.192 124.067 48.48 123.427 49.056C122.809 49.632 122.499 50.3467 122.499 51.2C122.499 52.16 122.873 52.928 123.619 53.504C124.366 54.08 125.411 54.368 126.755 54.368C128.035 54.368 129.134 54.08 130.051 53.504C130.99 52.9067 131.673 52.0533 132.099 50.944L132.611 52.512C132.185 53.6213 131.438 54.5067 130.371 55.168C129.326 55.8293 128.003 56.16 126.403 56.16ZM140.42 56V39.2H147.844C149.742 39.2 151.236 39.5627 152.324 40.288C153.433 41.0133 153.988 42.08 153.988 43.488C153.988 44.8533 153.465 45.9093 152.42 46.656C151.374 47.3813 149.998 47.744 148.292 47.744L148.74 47.072C150.745 47.072 152.217 47.4453 153.156 48.192C154.094 48.9387 154.564 50.016 154.564 51.424C154.564 52.8747 154.03 54.0053 152.964 54.816C151.918 55.6053 150.286 56 148.068 56H140.42ZM142.628 54.208H147.972C149.401 54.208 150.478 53.984 151.204 53.536C151.95 53.0667 152.324 52.32 152.324 51.296C152.324 50.272 151.993 49.5253 151.332 49.056C150.67 48.5867 149.625 48.352 148.196 48.352H142.628V54.208ZM142.628 46.656H147.684C148.985 46.656 149.977 46.4107 150.66 45.92C151.364 45.4293 151.716 44.7147 151.716 43.776C151.716 42.8373 151.364 42.1333 150.66 41.664C149.977 41.1947 148.985 40.96 147.684 40.96H142.628V46.656ZM172.208 56L165.296 47.68L167.184 46.56L174.896 56H172.208ZM159.888 56V39.2H162.16V56H159.888ZM161.456 48.512V46.56H166.864V48.512H161.456ZM167.376 47.84L165.264 47.52L171.952 39.2H174.416L167.376 47.84ZM188.602 56V52.288L188.506 51.68V45.472C188.506 44.0427 188.1 42.944 187.29 42.176C186.5 41.408 185.316 41.024 183.738 41.024C182.65 41.024 181.615 41.2053 180.634 41.568C179.652 41.9307 178.82 42.4107 178.138 43.008L177.114 41.312C177.967 40.5867 178.991 40.032 180.186 39.648C181.38 39.2427 182.639 39.04 183.962 39.04C186.138 39.04 187.812 39.584 188.986 40.672C190.18 41.7387 190.778 43.3707 190.778 45.568V56H188.602ZM182.81 56.16C181.551 56.16 180.452 55.9573 179.514 55.552C178.596 55.1253 177.892 54.5493 177.402 53.824C176.911 53.0773 176.666 52.224 176.666 51.264C176.666 50.3893 176.868 49.6 177.274 48.896C177.7 48.1707 178.383 47.5947 179.322 47.168C180.282 46.72 181.562 46.496 183.161 46.496H188.954V48.192H183.226C181.604 48.192 180.474 48.48 179.834 49.056C179.215 49.632 178.906 50.3467 178.906 51.2C178.906 52.16 179.279 52.928 180.026 53.504C180.772 54.08 181.818 54.368 183.161 54.368C184.442 54.368 185.54 54.08 186.458 53.504C187.396 52.9067 188.079 52.0533 188.506 50.944L189.018 52.512C188.591 53.6213 187.844 54.5067 186.778 55.168C185.732 55.8293 184.41 56.16 182.81 56.16Z" fill="#735F3D"/>
<path d="M62.9349 90V78.8H71.1269V79.808H64.1029V83.472H67.7669C69.0895 83.472 70.0922 83.744 70.7749 84.288C71.4682 84.8213 71.8149 85.6107 71.8149 86.656C71.8149 87.7333 71.4415 88.56 70.6949 89.136C69.9589 89.712 68.8975 90 67.5109 90H62.9349ZM64.1029 89.056H67.4949C68.5295 89.056 69.3082 88.8587 69.8309 88.464C70.3642 88.0587 70.6309 87.472 70.6309 86.704C70.6309 85.1787 69.5855 84.416 67.4949 84.416H64.1029V89.056ZM77.8723 90.08C76.9976 90.08 76.2296 89.8987 75.5683 89.536C74.9069 89.1627 74.3896 88.656 74.0163 88.016C73.6429 87.3653 73.4563 86.624 73.4563 85.792C73.4563 84.96 73.6323 84.224 73.9843 83.584C74.3469 82.944 74.8376 82.4427 75.4563 82.08C76.0856 81.7067 76.7896 81.52 77.5683 81.52C78.3576 81.52 79.0563 81.7013 79.6643 82.064C80.2829 82.416 80.7683 82.9173 81.1203 83.568C81.4723 84.208 81.6483 84.9493 81.6483 85.792C81.6483 85.8453 81.6429 85.904 81.6323 85.968C81.6323 86.0213 81.6323 86.08 81.6323 86.144H74.3203V85.296H81.0243L80.5763 85.632C80.5763 85.024 80.4429 84.4853 80.1763 84.016C79.9203 83.536 79.5683 83.1627 79.1203 82.896C78.6723 82.6293 78.1549 82.496 77.5683 82.496C76.9923 82.496 76.4749 82.6293 76.0163 82.896C75.5576 83.1627 75.2003 83.536 74.9443 84.016C74.6883 84.496 74.5603 85.0453 74.5603 85.664V85.84C74.5603 86.48 74.6989 87.0453 74.9763 87.536C75.2643 88.016 75.6589 88.3947 76.1603 88.672C76.6723 88.9387 77.2536 89.072 77.9043 89.072C78.4163 89.072 78.8909 88.9813 79.3283 88.8C79.7763 88.6187 80.1603 88.3413 80.4803 87.968L81.1203 88.704C80.7469 89.152 80.2776 89.4933 79.7123 89.728C79.1576 89.9627 78.5443 90.08 77.8723 90.08ZM86.1845 90.096C86.8778 90.096 87.5018 89.9893 88.0565 89.776C88.6218 89.5627 89.0698 89.2693 89.4005 88.896C89.7312 88.512 89.8965 88.0693 89.8965 87.568C89.8965 86.928 89.6245 86.4213 89.0805 86.048C88.5472 85.6747 87.8005 85.488 86.8405 85.488L86.7925 85.792C87.3365 85.792 87.8218 85.7067 88.2485 85.536C88.6752 85.3653 89.0165 85.1253 89.2725 84.816C89.5285 84.5067 89.6565 84.144 89.6565 83.728C89.6565 83.2587 89.4965 82.8587 89.1765 82.528C88.8565 82.1867 88.4245 81.9253 87.8805 81.744C87.3472 81.5627 86.7445 81.4827 86.0725 81.504C85.5818 81.504 85.0912 81.5733 84.6005 81.712C84.1205 81.84 83.6352 82.032 83.1445 82.288L83.4645 83.168C83.9018 82.944 84.3445 82.7787 84.7925 82.672C85.2405 82.5547 85.6725 82.4907 86.0885 82.48C86.5472 82.48 86.9578 82.5333 87.3205 82.64C87.6832 82.7467 87.9658 82.9067 88.1685 83.12C88.3818 83.3333 88.4885 83.5893 88.4885 83.888C88.4885 84.1653 88.3978 84.4053 88.2165 84.608C88.0458 84.8107 87.8005 84.9653 87.4805 85.072C87.1605 85.1787 86.7925 85.232 86.3765 85.232H85.0165V86.064H86.4565C87.1605 86.064 87.7152 86.192 88.1205 86.448C88.5258 86.6933 88.7285 87.04 88.7285 87.488C88.7285 87.7973 88.6218 88.0747 88.4085 88.32C88.1952 88.5653 87.8965 88.7573 87.5125 88.896C87.1285 89.0347 86.6752 89.1093 86.1525 89.12C85.6298 89.12 85.1018 89.0453 84.5685 88.896C84.0352 88.736 83.5658 88.5067 83.1605 88.208L82.7925 89.056C83.2512 89.408 83.7792 89.6693 84.3765 89.84C84.9738 90.0107 85.5765 90.096 86.1845 90.096ZM98.6354 90L95.1794 85.84L96.1234 85.28L99.9794 90H98.6354ZM92.4754 90V81.6H93.6114V90H92.4754ZM93.2594 86.256V85.28H95.9634V86.256H93.2594ZM96.2194 85.92L95.1634 85.76L98.5074 81.6H99.7394L96.2194 85.92ZM104.931 90.08C104.121 90.08 103.39 89.8987 102.739 89.536C102.099 89.1627 101.593 88.656 101.219 88.016C100.846 87.3653 100.659 86.624 100.659 85.792C100.659 84.9493 100.846 84.208 101.219 83.568C101.593 82.928 102.099 82.4267 102.739 82.064C103.379 81.7013 104.11 81.52 104.931 81.52C105.763 81.52 106.499 81.7013 107.139 82.064C107.79 82.4267 108.297 82.928 108.659 83.568C109.033 84.208 109.219 84.9493 109.219 85.792C109.219 86.624 109.033 87.3653 108.659 88.016C108.297 88.656 107.79 89.1627 107.139 89.536C106.489 89.8987 105.753 90.08 104.931 90.08ZM104.931 89.072C105.539 89.072 106.078 88.9387 106.547 88.672C107.017 88.3947 107.385 88.0107 107.651 87.52C107.929 87.0187 108.067 86.4427 108.067 85.792C108.067 85.1307 107.929 84.5547 107.651 84.064C107.385 83.5733 107.017 83.1947 106.547 82.928C106.078 82.6507 105.545 82.512 104.947 82.512C104.35 82.512 103.817 82.6507 103.347 82.928C102.878 83.1947 102.505 83.5733 102.227 84.064C101.95 84.5547 101.811 85.1307 101.811 85.792C101.811 86.4427 101.95 87.0187 102.227 87.52C102.505 88.0107 102.878 88.3947 103.347 88.672C103.817 88.9387 104.345 89.072 104.931 89.072ZM117.167 89.008L116.911 89.312V81.6H118.047V89.312L117.743 89.008H122.431L122.127 89.312V81.6H123.263V90H111.647V81.6H112.783V89.312L112.495 89.008H117.167ZM128.091 90V82.288L128.379 82.592H124.907V81.6H132.411V82.592H128.939L129.227 82.288V90H128.091ZM137.119 90.08C136.308 90.08 135.578 89.8987 134.927 89.536C134.287 89.1627 133.78 88.656 133.407 88.016C133.034 87.3653 132.847 86.624 132.847 85.792C132.847 84.9493 133.034 84.208 133.407 83.568C133.78 82.928 134.287 82.4267 134.927 82.064C135.567 81.7013 136.298 81.52 137.119 81.52C137.951 81.52 138.687 81.7013 139.327 82.064C139.978 82.4267 140.484 82.928 140.847 83.568C141.22 84.208 141.407 84.9493 141.407 85.792C141.407 86.624 141.22 87.3653 140.847 88.016C140.484 88.656 139.978 89.1627 139.327 89.536C138.676 89.8987 137.94 90.08 137.119 90.08ZM137.119 89.072C137.727 89.072 138.266 88.9387 138.735 88.672C139.204 88.3947 139.572 88.0107 139.839 87.52C140.116 87.0187 140.255 86.4427 140.255 85.792C140.255 85.1307 140.116 84.5547 139.839 84.064C139.572 83.5733 139.204 83.1947 138.735 82.928C138.266 82.6507 137.732 82.512 137.135 82.512C136.538 82.512 136.004 82.6507 135.535 82.928C135.066 83.1947 134.692 83.5733 134.415 84.064C134.138 84.5547 133.999 85.1307 133.999 85.792C133.999 86.4427 134.138 87.0187 134.415 87.52C134.692 88.0107 135.066 88.3947 135.535 88.672C136.004 88.9387 136.532 89.072 137.119 89.072ZM143.835 90V81.6H147.547C148.496 81.6 149.243 81.7813 149.787 82.144C150.341 82.5067 150.619 83.04 150.619 83.744C150.619 84.4267 150.357 84.9547 149.835 85.328C149.312 85.6907 148.624 85.872 147.771 85.872L147.995 85.536C148.997 85.536 149.733 85.7227 150.203 86.096C150.672 86.4693 150.907 87.008 150.907 87.712C150.907 88.4373 150.64 89.0027 150.107 89.408C149.584 89.8027 148.768 90 147.659 90H143.835ZM144.939 89.104H147.611C148.325 89.104 148.864 88.992 149.227 88.768C149.6 88.5333 149.787 88.16 149.787 87.648C149.787 87.136 149.621 86.7627 149.291 86.528C148.96 86.2933 148.437 86.176 147.723 86.176H144.939V89.104ZM144.939 85.328H147.467C148.117 85.328 148.613 85.2053 148.955 84.96C149.307 84.7147 149.483 84.3573 149.483 83.888C149.483 83.4187 149.307 83.0667 148.955 82.832C148.613 82.5973 148.117 82.48 147.467 82.48H144.939V85.328ZM153.569 90V81.6H154.705V85.312H160.001V81.6H161.137V90H160.001V86.288H154.705V90H153.569ZM169.582 90V88.144L169.534 87.84V84.736C169.534 84.0213 169.331 83.472 168.926 83.088C168.531 82.704 167.939 82.512 167.15 82.512C166.606 82.512 166.089 82.6027 165.598 82.784C165.107 82.9653 164.691 83.2053 164.35 83.504L163.838 82.656C164.265 82.2933 164.777 82.016 165.374 81.824C165.971 81.6213 166.601 81.52 167.262 81.52C168.35 81.52 169.187 81.792 169.774 82.336C170.371 82.8693 170.67 83.6853 170.67 84.784V90H169.582ZM166.686 90.08C166.057 90.08 165.507 89.9787 165.038 89.776C164.579 89.5627 164.227 89.2747 163.982 88.912C163.737 88.5387 163.614 88.112 163.614 87.632C163.614 87.1947 163.715 86.8 163.918 86.448C164.131 86.0853 164.473 85.7973 164.942 85.584C165.422 85.36 166.062 85.248 166.862 85.248H169.758V86.096H166.894C166.083 86.096 165.518 86.24 165.198 86.528C164.889 86.816 164.734 87.1733 164.734 87.6C164.734 88.08 164.921 88.464 165.294 88.752C165.667 89.04 166.19 89.184 166.862 89.184C167.502 89.184 168.051 89.04 168.51 88.752C168.979 88.4533 169.321 88.0267 169.534 87.472L169.79 88.256C169.577 88.8107 169.203 89.2533 168.67 89.584C168.147 89.9147 167.486 90.08 166.686 90.08ZM183.642 89.456V82.592H179.594L179.498 84.464C179.476 85.0293 179.439 85.584 179.386 86.128C179.343 86.672 179.263 87.1733 179.146 87.632C179.039 88.08 178.884 88.448 178.682 88.736C178.479 89.0133 178.218 89.1733 177.898 89.216L176.762 89.008C177.092 89.0187 177.364 88.9013 177.578 88.656C177.791 88.4 177.956 88.0533 178.074 87.616C178.191 87.1787 178.276 86.6827 178.33 86.128C178.383 85.5627 178.426 84.9867 178.458 84.4L178.57 81.6H184.778V89.456H183.642ZM176.41 92.032V89.008H186.09V92.032H185.018V90H177.482V92.032H176.41ZM191.76 90.08C190.949 90.08 190.218 89.8987 189.568 89.536C188.928 89.1627 188.421 88.656 188.048 88.016C187.674 87.3653 187.488 86.624 187.488 85.792C187.488 84.9493 187.674 84.208 188.048 83.568C188.421 82.928 188.928 82.4267 189.568 82.064C190.208 81.7013 190.938 81.52 191.76 81.52C192.592 81.52 193.328 81.7013 193.968 82.064C194.618 82.4267 195.125 82.928 195.488 83.568C195.861 84.208 196.048 84.9493 196.048 85.792C196.048 86.624 195.861 87.3653 195.488 88.016C195.125 88.656 194.618 89.1627 193.968 89.536C193.317 89.8987 192.581 90.08 191.76 90.08ZM191.76 89.072C192.368 89.072 192.906 88.9387 193.376 88.672C193.845 88.3947 194.213 88.0107 194.48 87.52C194.757 87.0187 194.896 86.4427 194.896 85.792C194.896 85.1307 194.757 84.5547 194.48 84.064C194.213 83.5733 193.845 83.1947 193.376 82.928C192.906 82.6507 192.373 82.512 191.776 82.512C191.178 82.512 190.645 82.6507 190.176 82.928C189.706 83.1947 189.333 83.5733 189.056 84.064C188.778 84.5547 188.64 85.1307 188.64 85.792C188.64 86.4427 188.778 87.0187 189.056 87.52C189.333 88.0107 189.706 88.3947 190.176 88.672C190.645 88.9387 191.173 89.072 191.76 89.072ZM201.995 90.08C201.163 90.08 200.417 89.8987 199.755 89.536C199.105 89.1627 198.593 88.656 198.219 88.016C197.846 87.3653 197.659 86.624 197.659 85.792C197.659 84.9493 197.846 84.208 198.219 83.568C198.593 82.928 199.105 82.4267 199.755 82.064C200.417 81.7013 201.163 81.52 201.995 81.52C202.71 81.52 203.355 81.6587 203.931 81.936C204.507 82.2133 204.961 82.6293 205.291 83.184L204.443 83.76C204.155 83.3333 203.798 83.0187 203.371 82.816C202.945 82.6133 202.481 82.512 201.979 82.512C201.382 82.512 200.843 82.6507 200.363 82.928C199.883 83.1947 199.505 83.5733 199.227 84.064C198.95 84.5547 198.811 85.1307 198.811 85.792C198.811 86.4533 198.95 87.0293 199.227 87.52C199.505 88.0107 199.883 88.3947 200.363 88.672C200.843 88.9387 201.382 89.072 201.979 89.072C202.481 89.072 202.945 88.9707 203.371 88.768C203.798 88.5653 204.155 88.256 204.443 87.84L205.291 88.416C204.961 88.96 204.507 89.376 203.931 89.664C203.355 89.9413 202.71 90.08 201.995 90.08ZM208.935 90V82.288L209.223 82.592H205.751V81.6H213.255V82.592H209.783L210.071 82.288V90H208.935ZM220.113 90V88.144L220.065 87.84V84.736C220.065 84.0213 219.863 83.472 219.457 83.088C219.063 82.704 218.471 82.512 217.681 82.512C217.137 82.512 216.62 82.6027 216.129 82.784C215.639 82.9653 215.223 83.2053 214.881 83.504L214.369 82.656C214.796 82.2933 215.308 82.016 215.905 81.824C216.503 81.6213 217.132 81.52 217.793 81.52C218.881 81.52 219.719 81.792 220.305 82.336C220.903 82.8693 221.201 83.6853 221.201 84.784V90H220.113ZM217.217 90.08C216.588 90.08 216.039 89.9787 215.569 89.776C215.111 89.5627 214.759 89.2747 214.513 88.912C214.268 88.5387 214.145 88.112 214.145 87.632C214.145 87.1947 214.247 86.8 214.449 86.448C214.663 86.0853 215.004 85.7973 215.473 85.584C215.953 85.36 216.593 85.248 217.393 85.248H220.289V86.096H217.425C216.615 86.096 216.049 86.24 215.729 86.528C215.42 86.816 215.265 87.1733 215.265 87.6C215.265 88.08 215.452 88.464 215.825 88.752C216.199 89.04 216.721 89.184 217.393 89.184C218.033 89.184 218.583 89.04 219.041 88.752C219.511 88.4533 219.852 88.0267 220.065 87.472L220.321 88.256C220.108 88.8107 219.735 89.2533 219.201 89.584C218.679 89.9147 218.017 90.08 217.217 90.08ZM224.225 90V81.6H227.937C228.887 81.6 229.633 81.7813 230.177 82.144C230.732 82.5067 231.009 83.04 231.009 83.744C231.009 84.4267 230.748 84.9547 230.225 85.328C229.703 85.6907 229.015 85.872 228.161 85.872L228.385 85.536C229.388 85.536 230.124 85.7227 230.593 86.096C231.063 86.4693 231.297 87.008 231.297 87.712C231.297 88.4373 231.031 89.0027 230.497 89.408C229.975 89.8027 229.159 90 228.049 90H224.225ZM225.329 89.104H228.001C228.716 89.104 229.255 88.992 229.617 88.768C229.991 88.5333 230.177 88.16 230.177 87.648C230.177 87.136 230.012 86.7627 229.681 86.528C229.351 86.2933 228.828 86.176 228.113 86.176H225.329V89.104ZM225.329 85.328H227.857C228.508 85.328 229.004 85.2053 229.345 84.96C229.697 84.7147 229.873 84.3573 229.873 83.888C229.873 83.4187 229.697 83.0667 229.345 82.832C229.004 82.5973 228.508 82.48 227.857 82.48H225.329V85.328ZM240.12 90L236.664 85.84L237.608 85.28L241.464 90H240.12ZM233.96 90V81.6H235.096V90H233.96ZM234.744 86.256V85.28H237.448V86.256H234.744ZM237.704 85.92L236.648 85.76L239.992 81.6H241.224L237.704 85.92ZM248.316 90V88.144L248.268 87.84V84.736C248.268 84.0213 248.066 83.472 247.66 83.088C247.266 82.704 246.674 82.512 245.884 82.512C245.34 82.512 244.823 82.6027 244.332 82.784C243.842 82.9653 243.426 83.2053 243.084 83.504L242.572 82.656C242.999 82.2933 243.511 82.016 244.108 81.824C244.706 81.6213 245.335 81.52 245.996 81.52C247.084 81.52 247.922 81.792 248.508 82.336C249.106 82.8693 249.404 83.6853 249.404 84.784V90H248.316ZM245.42 90.08C244.791 90.08 244.242 89.9787 243.772 89.776C243.314 89.5627 242.962 89.2747 242.716 88.912C242.471 88.5387 242.348 88.112 242.348 87.632C242.348 87.1947 242.45 86.8 242.652 86.448C242.866 86.0853 243.207 85.7973 243.676 85.584C244.156 85.36 244.796 85.248 245.596 85.248H248.492V86.096H245.628C244.818 86.096 244.252 86.24 243.932 86.528C243.623 86.816 243.468 87.1733 243.468 87.6C243.468 88.08 243.655 88.464 244.028 88.752C244.402 89.04 244.924 89.184 245.596 89.184C246.236 89.184 246.786 89.04 247.244 88.752C247.714 88.4533 248.055 88.0267 248.268 87.472L248.524 88.256C248.311 88.8107 247.938 89.2533 247.404 89.584C246.882 89.9147 246.22 90.08 245.42 90.08ZM256.616 90V81.6H264.168V90H263.032V82.288L263.32 82.592H257.464L257.752 82.288V90H256.616ZM271.733 90.08C271.008 90.08 270.352 89.9147 269.765 89.584C269.179 89.2427 268.709 88.7573 268.357 88.128C268.016 87.488 267.845 86.7093 267.845 85.792C267.845 84.8747 268.016 84.1013 268.357 83.472C268.699 82.832 269.163 82.3467 269.749 82.016C270.336 81.6853 270.997 81.52 271.733 81.52C272.533 81.52 273.248 81.7013 273.877 82.064C274.517 82.416 275.019 82.9173 275.381 83.568C275.744 84.208 275.925 84.9493 275.925 85.792C275.925 86.6453 275.744 87.392 275.381 88.032C275.019 88.672 274.517 89.1733 273.877 89.536C273.248 89.8987 272.533 90.08 271.733 90.08ZM267.397 93.104V81.6H268.485V84.128L268.373 85.808L268.533 87.504V93.104H267.397ZM271.653 89.072C272.251 89.072 272.784 88.9387 273.253 88.672C273.723 88.3947 274.096 88.0107 274.373 87.52C274.651 87.0187 274.789 86.4427 274.789 85.792C274.789 85.1413 274.651 84.5707 274.373 84.08C274.096 83.5893 273.723 83.2053 273.253 82.928C272.784 82.6507 272.251 82.512 271.653 82.512C271.056 82.512 270.517 82.6507 270.037 82.928C269.568 83.2053 269.195 83.5893 268.917 84.08C268.651 84.5707 268.517 85.1413 268.517 85.792C268.517 86.4427 268.651 87.0187 268.917 87.52C269.195 88.0107 269.568 88.3947 270.037 88.672C270.517 88.9387 271.056 89.072 271.653 89.072ZM278.366 90V81.6H279.502V88.272L285.118 81.6H286.126V90H284.99V83.312L279.39 90H278.366ZM80.1689 110.096C80.8622 110.096 81.4862 109.989 82.0409 109.776C82.6062 109.563 83.0542 109.269 83.3849 108.896C83.7155 108.512 83.8809 108.069 83.8809 107.568C83.8809 106.928 83.6089 106.421 83.0649 106.048C82.5315 105.675 81.7849 105.488 80.8249 105.488L80.7769 105.792C81.3209 105.792 81.8062 105.707 82.2329 105.536C82.6595 105.365 83.0009 105.125 83.2569 104.816C83.5129 104.507 83.6409 104.144 83.6409 103.728C83.6409 103.259 83.4809 102.859 83.1609 102.528C82.8409 102.187 82.4089 101.925 81.8649 101.744C81.3315 101.563 80.7289 101.483 80.0569 101.504C79.5662 101.504 79.0755 101.573 78.5849 101.712C78.1049 101.84 77.6195 102.032 77.1289 102.288L77.4489 103.168C77.8862 102.944 78.3289 102.779 78.7769 102.672C79.2249 102.555 79.6569 102.491 80.0729 102.48C80.5315 102.48 80.9422 102.533 81.3049 102.64C81.6675 102.747 81.9502 102.907 82.1529 103.12C82.3662 103.333 82.4729 103.589 82.4729 103.888C82.4729 104.165 82.3822 104.405 82.2009 104.608C82.0302 104.811 81.7849 104.965 81.4649 105.072C81.1449 105.179 80.7769 105.232 80.3609 105.232H79.0009V106.064H80.4409C81.1449 106.064 81.6995 106.192 82.1049 106.448C82.5102 106.693 82.7129 107.04 82.7129 107.488C82.7129 107.797 82.6062 108.075 82.3929 108.32C82.1795 108.565 81.8809 108.757 81.4969 108.896C81.1129 109.035 80.6595 109.109 80.1369 109.12C79.6142 109.12 79.0862 109.045 78.5529 108.896C78.0195 108.736 77.5502 108.507 77.1449 108.208L76.7769 109.056C77.2355 109.408 77.7635 109.669 78.3609 109.84C78.9582 110.011 79.5609 110.096 80.1689 110.096ZM91.6758 110V108.144L91.6278 107.84V104.736C91.6278 104.021 91.4251 103.472 91.0198 103.088C90.6251 102.704 90.0331 102.512 89.2438 102.512C88.6998 102.512 88.1824 102.603 87.6918 102.784C87.2011 102.965 86.7851 103.205 86.4438 103.504L85.9318 102.656C86.3584 102.293 86.8704 102.016 87.4678 101.824C88.0651 101.621 88.6944 101.52 89.3558 101.52C90.4438 101.52 91.2811 101.792 91.8678 102.336C92.4651 102.869 92.7638 103.685 92.7638 104.784V110H91.6758ZM88.7798 110.08C88.1504 110.08 87.6011 109.979 87.1318 109.776C86.6731 109.563 86.3211 109.275 86.0758 108.912C85.8304 108.539 85.7078 108.112 85.7078 107.632C85.7078 107.195 85.8091 106.8 86.0118 106.448C86.2251 106.085 86.5664 105.797 87.0358 105.584C87.5158 105.36 88.1558 105.248 88.9557 105.248H91.8518V106.096H88.9878C88.1771 106.096 87.6118 106.24 87.2918 106.528C86.9824 106.816 86.8278 107.173 86.8278 107.6C86.8278 108.08 87.0144 108.464 87.3878 108.752C87.7611 109.04 88.2838 109.184 88.9557 109.184C89.5958 109.184 90.1451 109.04 90.6038 108.752C91.0731 108.453 91.4144 108.027 91.6278 107.472L91.8838 108.256C91.6704 108.811 91.2971 109.253 90.7638 109.584C90.2411 109.915 89.5798 110.08 88.7798 110.08ZM95.7879 110V101.6H96.9399L100.748 108.048H100.268L104.14 101.6H105.196V110H104.156V102.896L104.364 102.992L100.748 108.976H100.236L96.5879 102.928L96.8279 102.88V110H95.7879ZM111.885 110.08C111.074 110.08 110.343 109.899 109.693 109.536C109.053 109.163 108.546 108.656 108.173 108.016C107.799 107.365 107.613 106.624 107.613 105.792C107.613 104.949 107.799 104.208 108.173 103.568C108.546 102.928 109.053 102.427 109.693 102.064C110.333 101.701 111.063 101.52 111.885 101.52C112.717 101.52 113.453 101.701 114.093 102.064C114.743 102.427 115.25 102.928 115.613 103.568C115.986 104.208 116.173 104.949 116.173 105.792C116.173 106.624 115.986 107.365 115.613 108.016C115.25 108.656 114.743 109.163 114.093 109.536C113.442 109.899 112.706 110.08 111.885 110.08ZM111.885 109.072C112.493 109.072 113.031 108.939 113.501 108.672C113.97 108.395 114.338 108.011 114.605 107.52C114.882 107.019 115.021 106.443 115.021 105.792C115.021 105.131 114.882 104.555 114.605 104.064C114.338 103.573 113.97 103.195 113.501 102.928C113.031 102.651 112.498 102.512 111.901 102.512C111.303 102.512 110.77 102.651 110.301 102.928C109.831 103.195 109.458 103.573 109.181 104.064C108.903 104.555 108.765 105.131 108.765 105.792C108.765 106.443 108.903 107.019 109.181 107.52C109.458 108.011 109.831 108.395 110.301 108.672C110.77 108.939 111.298 109.072 111.885 109.072ZM118.6 110V101.6H122.312C123.262 101.6 124.008 101.781 124.552 102.144C125.107 102.507 125.384 103.04 125.384 103.744C125.384 104.427 125.123 104.955 124.6 105.328C124.078 105.691 123.39 105.872 122.536 105.872L122.76 105.536C123.763 105.536 124.499 105.723 124.968 106.096C125.438 106.469 125.672 107.008 125.672 107.712C125.672 108.437 125.406 109.003 124.872 109.408C124.35 109.803 123.534 110 122.424 110H118.6ZM119.704 109.104H122.376C123.091 109.104 123.63 108.992 123.992 108.768C124.366 108.533 124.552 108.16 124.552 107.648C124.552 107.136 124.387 106.763 124.056 106.528C123.726 106.293 123.203 106.176 122.488 106.176H119.704V109.104ZM119.704 105.328H122.232C122.883 105.328 123.379 105.205 123.72 104.96C124.072 104.715 124.248 104.357 124.248 103.888C124.248 103.419 124.072 103.067 123.72 102.832C123.379 102.597 122.883 102.48 122.232 102.48H119.704V105.328ZM126.799 109.984L126.879 109.008C126.953 109.019 127.023 109.035 127.087 109.056C127.161 109.067 127.225 109.072 127.279 109.072C127.62 109.072 127.892 108.944 128.095 108.688C128.308 108.432 128.468 108.091 128.575 107.664C128.681 107.237 128.756 106.757 128.799 106.224C128.841 105.68 128.879 105.136 128.911 104.592L129.055 101.6H135.215V110H134.079V102.256L134.367 102.592H129.791L130.063 102.24L129.935 104.672C129.903 105.397 129.844 106.091 129.759 106.752C129.684 107.413 129.561 107.995 129.391 108.496C129.231 108.997 129.007 109.392 128.719 109.68C128.431 109.957 128.063 110.096 127.615 110.096C127.487 110.096 127.353 110.085 127.215 110.064C127.087 110.043 126.948 110.016 126.799 109.984ZM142.044 110.08C141.169 110.08 140.401 109.899 139.74 109.536C139.079 109.163 138.561 108.656 138.188 108.016C137.815 107.365 137.628 106.624 137.628 105.792C137.628 104.96 137.804 104.224 138.156 103.584C138.519 102.944 139.009 102.443 139.628 102.08C140.257 101.707 140.961 101.52 141.74 101.52C142.529 101.52 143.228 101.701 143.836 102.064C144.455 102.416 144.94 102.917 145.292 103.568C145.644 104.208 145.82 104.949 145.82 105.792C145.82 105.845 145.815 105.904 145.804 105.968C145.804 106.021 145.804 106.08 145.804 106.144H138.492V105.296H145.196L144.748 105.632C144.748 105.024 144.615 104.485 144.348 104.016C144.092 103.536 143.74 103.163 143.292 102.896C142.844 102.629 142.327 102.496 141.74 102.496C141.164 102.496 140.647 102.629 140.188 102.896C139.729 103.163 139.372 103.536 139.116 104.016C138.86 104.496 138.732 105.045 138.732 105.664V105.84C138.732 106.48 138.871 107.045 139.148 107.536C139.436 108.016 139.831 108.395 140.332 108.672C140.844 108.939 141.425 109.072 142.076 109.072C142.588 109.072 143.063 108.981 143.5 108.8C143.948 108.619 144.332 108.341 144.652 107.968L145.292 108.704C144.919 109.152 144.449 109.493 143.884 109.728C143.329 109.963 142.716 110.08 142.044 110.08ZM148.335 110V101.6H149.471V105.312H154.767V101.6H155.903V110H154.767V106.288H149.471V110H148.335ZM159.132 110V101.6H160.268V105.312H165.564V101.6H166.7V110H165.564V106.288H160.268V110H159.132ZM169.929 110V101.6H171.065V110H169.929ZM170.505 99.744C170.27 99.744 170.073 99.664 169.913 99.504C169.753 99.344 169.673 99.152 169.673 98.928C169.673 98.704 169.753 98.5173 169.913 98.368C170.073 98.208 170.27 98.128 170.505 98.128C170.739 98.128 170.937 98.2027 171.097 98.352C171.257 98.5013 171.337 98.688 171.337 98.912C171.337 99.1467 171.257 99.344 171.097 99.504C170.947 99.664 170.75 99.744 170.505 99.744ZM178.491 110V101.6H182.203C183.152 101.6 183.899 101.781 184.443 102.144C184.998 102.507 185.275 103.04 185.275 103.744C185.275 104.427 185.014 104.955 184.491 105.328C183.968 105.691 183.28 105.872 182.427 105.872L182.651 105.536C183.654 105.536 184.39 105.723 184.859 106.096C185.328 106.469 185.563 107.008 185.563 107.712C185.563 108.437 185.296 109.003 184.763 109.408C184.24 109.803 183.424 110 182.315 110H178.491ZM179.595 109.104H182.267C182.982 109.104 183.52 108.992 183.883 108.768C184.256 108.533 184.443 108.16 184.443 107.648C184.443 107.136 184.278 106.763 183.947 106.528C183.616 106.293 183.094 106.176 182.379 106.176H179.595V109.104ZM179.595 105.328H182.123C182.774 105.328 183.27 105.205 183.611 104.96C183.963 104.715 184.139 104.357 184.139 103.888C184.139 103.419 183.963 103.067 183.611 102.832C183.27 102.597 182.774 102.48 182.123 102.48H179.595V105.328ZM188.225 110V101.6H189.361V110H188.225ZM188.801 99.744C188.567 99.744 188.369 99.664 188.209 99.504C188.049 99.344 187.969 99.152 187.969 98.928C187.969 98.704 188.049 98.5173 188.209 98.368C188.369 98.208 188.567 98.128 188.801 98.128C189.036 98.128 189.233 98.2027 189.393 98.352C189.553 98.5013 189.633 98.688 189.633 98.912C189.633 99.1467 189.553 99.344 189.393 99.504C189.244 99.664 189.047 99.744 188.801 99.744ZM198.36 109.456V102.592H194.312L194.216 104.464C194.195 105.029 194.158 105.584 194.104 106.128C194.062 106.672 193.982 107.173 193.864 107.632C193.758 108.08 193.603 108.448 193.4 108.736C193.198 109.013 192.936 109.173 192.616 109.216L191.48 109.008C191.811 109.019 192.083 108.901 192.296 108.656C192.51 108.4 192.675 108.053 192.792 107.616C192.91 107.179 192.995 106.683 193.048 106.128C193.102 105.563 193.144 104.987 193.176 104.4L193.288 101.6H199.496V109.456H198.36ZM191.128 112.032V109.008H200.808V112.032H199.736V110H192.2V112.032H191.128ZM208.378 110V99.28L208.89 99.824H205.738V98.8H209.53V110H208.378ZM216.671 110.096C215.807 110.096 215.039 109.872 214.367 109.424C213.695 108.965 213.167 108.315 212.783 107.472C212.399 106.619 212.207 105.595 212.207 104.4C212.207 103.205 212.399 102.187 212.783 101.344C213.167 100.491 213.695 99.84 214.367 99.392C215.039 98.9333 215.807 98.704 216.671 98.704C217.535 98.704 218.303 98.9333 218.975 99.392C219.647 99.84 220.175 100.491 220.559 101.344C220.954 102.187 221.151 103.205 221.151 104.4C221.151 105.595 220.954 106.619 220.559 107.472C220.175 108.315 219.647 108.965 218.975 109.424C218.303 109.872 217.535 110.096 216.671 110.096ZM216.671 109.04C217.332 109.04 217.908 108.864 218.399 108.512C218.89 108.149 219.274 107.627 219.551 106.944C219.828 106.251 219.967 105.403 219.967 104.4C219.967 103.397 219.828 102.555 219.551 101.872C219.274 101.179 218.89 100.656 218.399 100.304C217.908 99.9413 217.332 99.76 216.671 99.76C216.031 99.76 215.46 99.9413 214.959 100.304C214.458 100.656 214.068 101.179 213.791 101.872C213.514 102.555 213.375 103.397 213.375 104.4C213.375 105.403 213.514 106.251 213.791 106.944C214.068 107.627 214.458 108.149 214.959 108.512C215.46 108.864 216.031 109.04 216.671 109.04ZM227.265 110.096C226.401 110.096 225.633 109.872 224.961 109.424C224.289 108.965 223.761 108.315 223.377 107.472C222.993 106.619 222.801 105.595 222.801 104.4C222.801 103.205 222.993 102.187 223.377 101.344C223.761 100.491 224.289 99.84 224.961 99.392C225.633 98.9333 226.401 98.704 227.265 98.704C228.129 98.704 228.897 98.9333 229.569 99.392C230.241 99.84 230.769 100.491 231.153 101.344C231.547 102.187 231.745 103.205 231.745 104.4C231.745 105.595 231.547 106.619 231.153 107.472C230.769 108.315 230.241 108.965 229.569 109.424C228.897 109.872 228.129 110.096 227.265 110.096ZM227.265 109.04C227.926 109.04 228.502 108.864 228.993 108.512C229.483 108.149 229.867 107.627 230.145 106.944C230.422 106.251 230.561 105.403 230.561 104.4C230.561 103.397 230.422 102.555 230.145 101.872C229.867 101.179 229.483 100.656 228.993 100.304C228.502 99.9413 227.926 99.76 227.265 99.76C226.625 99.76 226.054 99.9413 225.553 100.304C225.051 100.656 224.662 101.179 224.385 101.872C224.107 102.555 223.969 103.397 223.969 104.4C223.969 105.403 224.107 106.251 224.385 106.944C224.662 107.627 225.051 108.149 225.553 108.512C226.054 108.864 226.625 109.04 227.265 109.04ZM237.859 110.096C236.995 110.096 236.227 109.872 235.555 109.424C234.883 108.965 234.355 108.315 233.971 107.472C233.587 106.619 233.395 105.595 233.395 104.4C233.395 103.205 233.587 102.187 233.971 101.344C234.355 100.491 234.883 99.84 235.555 99.392C236.227 98.9333 236.995 98.704 237.859 98.704C238.723 98.704 239.491 98.9333 240.163 99.392C240.835 99.84 241.363 100.491 241.747 101.344C242.141 102.187 242.339 103.205 242.339 104.4C242.339 105.595 242.141 106.619 241.747 107.472C241.363 108.315 240.835 108.965 240.163 109.424C239.491 109.872 238.723 110.096 237.859 110.096ZM237.859 109.04C238.52 109.04 239.096 108.864 239.587 108.512C240.077 108.149 240.461 107.627 240.739 106.944C241.016 106.251 241.155 105.403 241.155 104.4C241.155 103.397 241.016 102.555 240.739 101.872C240.461 101.179 240.077 100.656 239.587 100.304C239.096 99.9413 238.52 99.76 237.859 99.76C237.219 99.76 236.648 99.9413 236.147 100.304C235.645 100.656 235.256 101.179 234.979 101.872C234.701 102.555 234.562 103.397 234.562 104.4C234.562 105.403 234.701 106.251 234.979 106.944C235.256 107.627 235.645 108.149 236.147 108.512C236.648 108.864 237.219 109.04 237.859 109.04ZM248.96 110V101.6H254.912V102.592H249.808L250.096 102.304V110H248.96ZM260.89 110.08C260.164 110.08 259.508 109.915 258.922 109.584C258.335 109.243 257.866 108.757 257.514 108.128C257.172 107.488 257.002 106.709 257.002 105.792C257.002 104.875 257.172 104.101 257.514 103.472C257.855 102.832 258.319 102.347 258.906 102.016C259.492 101.685 260.154 101.52 260.89 101.52C261.69 101.52 262.404 101.701 263.034 102.064C263.674 102.416 264.175 102.917 264.538 103.568C264.9 104.208 265.082 104.949 265.082 105.792C265.082 106.645 264.9 107.392 264.538 108.032C264.175 108.672 263.674 109.173 263.034 109.536C262.404 109.899 261.69 110.08 260.89 110.08ZM256.554 113.104V101.6H257.642V104.128L257.53 105.808L257.69 107.504V113.104H256.554ZM260.81 109.072C261.407 109.072 261.94 108.939 262.41 108.672C262.879 108.395 263.252 108.011 263.53 107.52C263.807 107.019 263.946 106.443 263.946 105.792C263.946 105.141 263.807 104.571 263.53 104.08C263.252 103.589 262.879 103.205 262.41 102.928C261.94 102.651 261.407 102.512 260.81 102.512C260.212 102.512 259.674 102.651 259.194 102.928C258.724 103.205 258.351 103.589 258.074 104.08C257.807 104.571 257.674 105.141 257.674 105.792C257.674 106.443 257.807 107.019 258.074 107.52C258.351 108.011 258.724 108.395 259.194 108.672C259.674 108.939 260.212 109.072 260.81 109.072ZM267.522 110V101.6H268.658V105.312H273.954V101.6H275.09V110H273.954V106.288H268.658V110H267.522Z" fill="#735F3D"/>
</svg>
