<svg width="352" height="140" viewBox="0 0 352 140" fill="none" xmlns="http://www.w3.org/2000/svg">
<rect width="352" height="140" fill="#FFF5E8"/>
<path d="M299.219 51.3422C301.299 49.0153 302.627 46.1135 303.028 43.0181C303.428 39.9226 302.883 36.7784 301.464 33.9984L295.431 22.2797C295.411 22.2424 295.385 22.2078 295.356 22.1766C295.312 22.1297 295.259 22.0924 295.201 22.0669C295.142 22.0413 295.078 22.0282 295.014 22.0282C294.95 22.0282 294.886 22.0413 294.828 22.0669C294.769 22.0924 294.716 22.1297 294.672 22.1766C294.643 22.2078 294.618 22.2424 294.597 22.2797L288.564 33.9984C287.145 36.7784 286.6 39.9226 287 43.0181C287.401 46.1135 288.729 49.0153 290.809 51.3422L294.559 55.4906V67.5C294.559 67.6243 294.609 67.7435 294.697 67.8314C294.785 67.9193 294.904 67.9687 295.028 67.9687C295.152 67.9687 295.272 67.9193 295.36 67.8314C295.447 67.7435 295.497 67.6243 295.497 67.5V55.4906L299.219 51.3422ZM295.469 24.4359L300.109 33.4547C300.07 33.4761 300.035 33.5047 300.006 33.5391L295.469 39.0844V24.4359ZM298.506 50.7141L295.469 54.089V40.5656L300.564 34.3406L300.616 34.4437C301.944 37.0526 302.453 40.0018 302.077 42.9051C301.7 45.8083 300.456 48.5302 298.506 50.7141ZM294.531 24.4359V43.2187L288.808 35.9344C288.791 35.916 288.773 35.9002 288.752 35.8875C288.933 35.3953 289.141 34.9134 289.375 34.4437L294.531 24.4359ZM288.4 36.9328L294.531 44.7375V54.1125L291.494 50.7375C289.845 48.8906 288.695 46.653 288.153 44.2371C287.612 41.8211 287.697 39.3068 288.4 36.9328Z" fill="#735F3D"/>
<path d="M313.492 48.3187C313.49 48.2738 313.48 48.2295 313.464 48.1875V48.1453C313.442 48.0945 313.41 48.0484 313.37 48.0094C313.332 47.9689 313.286 47.9369 313.234 47.9156H313.192C313.15 47.9018 313.106 47.8924 313.061 47.8875H313.033C312.988 47.8809 312.942 47.8809 312.897 47.8875L304.502 50.5828C302.493 51.2347 300.728 52.4789 299.438 54.152C298.149 55.8251 297.396 57.849 297.278 59.9578L297.077 63.8016C297.069 63.8466 297.069 63.8925 297.077 63.9375C297.072 63.9527 297.072 63.9691 297.077 63.9844C297.097 64.0465 297.133 64.1028 297.18 64.1484C297.223 64.1906 297.274 64.224 297.33 64.2469C297.386 64.2709 297.447 64.2836 297.508 64.2844H297.536L301.375 64.0828C303.484 63.9631 305.508 63.2088 307.181 61.919C308.854 60.6292 310.098 58.8639 310.75 56.8547L313.441 48.4734C313.448 48.4284 313.448 48.3825 313.441 48.3375L313.492 48.3187ZM304.787 51.4734L311.35 49.3781L303.236 57.4687L303.906 51.8109C304.194 51.6836 304.488 51.571 304.787 51.4734ZM302.912 52.3172L302.162 58.5422L298.075 62.6297L298.211 60C298.302 58.4313 298.778 56.9093 299.598 55.569C300.419 54.2288 301.557 53.1118 302.912 52.3172ZM301.356 63.1547L298.75 63.2812L304.792 57.2344L309.836 56.7187C309.223 58.5135 308.089 60.0846 306.579 61.2311C305.068 62.3777 303.25 63.0474 301.356 63.1547ZM310.155 55.7812L305.842 56.2125L311.987 50.0625L310.155 55.7812Z" fill="#735F3D"/>
<path d="M293.336 65.6859L293.125 61.8328C293.007 59.724 292.254 57.7001 290.965 56.027C289.676 54.3539 287.911 53.1097 285.902 52.4578L277.53 49.7672C277.483 49.7601 277.436 49.7601 277.389 49.7672C277.341 49.772 277.294 49.7814 277.248 49.7953H277.211C277.109 49.842 277.028 49.9235 276.981 50.025V50.0672C276.967 50.1097 276.958 50.1538 276.953 50.1984V50.2266C276.947 50.2716 276.947 50.3174 276.953 50.3625L279.644 58.7437C280.296 60.753 281.54 62.5182 283.213 63.8081C284.886 65.0979 286.91 65.8521 289.019 65.9719L292.858 66.1734H292.886C292.947 66.1727 293.008 66.1599 293.064 66.1359C293.12 66.1131 293.171 66.0797 293.214 66.0375C293.261 65.991 293.298 65.9351 293.322 65.8734C293.322 65.8734 293.322 65.8453 293.322 65.8265C293.332 65.7803 293.337 65.7332 293.336 65.6859ZM292.187 61.875L292.323 64.4953L286.281 58.4484L285.78 53.4047C287.566 54.0234 289.129 55.1587 290.27 56.6667C291.411 58.1746 292.078 59.9873 292.187 61.875ZM285.236 57.4031L279.086 51.2531L284.805 53.0859L285.236 57.4031ZM278.425 51.9141L286.511 60L280.858 59.325C280.73 59.0405 280.617 58.7495 280.52 58.4531L278.425 51.9141ZM281.364 60.3516L287.584 61.0781L291.677 65.1562L289.056 65.0203C287.487 64.9326 285.964 64.4589 284.622 63.6412C283.28 62.8234 282.161 61.687 281.364 60.3328V60.3516Z" fill="#735F3D"/>
<path d="M60.9229 33.6H63.2589V56H60.9229V33.6ZM46.9069 56H44.5389V33.6H46.9069V56ZM61.1469 45.664H46.6509V43.584H61.1469V45.664ZM80.7081 56V52.288L80.6121 51.68V45.472C80.6121 44.0427 80.2068 42.944 79.3961 42.176C78.6068 41.408 77.4228 41.024 75.8441 41.024C74.7561 41.024 73.7214 41.2053 72.7401 41.568C71.7588 41.9307 70.9268 42.4107 70.2441 43.008L69.2201 41.312C70.0734 40.5867 71.0974 40.032 72.2921 39.648C73.4868 39.2427 74.7454 39.04 76.0681 39.04C78.2441 39.04 79.9188 39.584 81.0921 40.672C82.2868 41.7387 82.8841 43.3707 82.8841 45.568V56H80.7081ZM74.9161 56.16C73.6574 56.16 72.5588 55.9573 71.6201 55.552C70.7028 55.1253 69.9988 54.5493 69.5081 53.824C69.0174 53.0773 68.7721 52.224 68.7721 51.264C68.7721 50.3893 68.9748 49.6 69.3801 48.896C69.8068 48.1707 70.4894 47.5947 71.4281 47.168C72.3881 46.72 73.6681 46.496 75.2681 46.496H81.0601V48.192H75.3321C73.7108 48.192 72.5801 48.48 71.9401 49.056C71.3214 49.632 71.0121 50.3467 71.0121 51.2C71.0121 52.16 71.3854 52.928 72.1321 53.504C72.8788 54.08 73.9241 54.368 75.2681 54.368C76.5481 54.368 77.6468 54.08 78.5641 53.504C79.5028 52.9067 80.1854 52.0533 80.6121 50.944L81.1241 52.512C80.6974 53.6213 79.9508 54.5067 78.8841 55.168C77.8388 55.8293 76.5161 56.16 74.9161 56.16ZM92.1324 56V40.576L92.7084 41.184H85.7644V39.2H100.772V41.184H93.8284L94.4044 40.576V56H92.1324ZM104.345 62.368C103.556 62.368 102.799 62.24 102.073 61.984C101.369 61.728 100.761 61.344 100.249 60.832L101.305 59.136C101.732 59.5413 102.191 59.8507 102.681 60.064C103.193 60.2987 103.759 60.416 104.377 60.416C105.124 60.416 105.764 60.2027 106.297 59.776C106.852 59.3707 107.375 58.6453 107.865 57.6L108.953 55.136L109.209 54.784L116.121 39.2H118.361L109.945 58.016C109.476 59.104 108.953 59.968 108.377 60.608C107.823 61.248 107.215 61.696 106.553 61.952C105.892 62.2293 105.156 62.368 104.345 62.368ZM108.825 56.48L101.081 39.2H103.449L110.297 54.624L108.825 56.48ZM130.573 56.16C129.122 56.16 127.81 55.8293 126.637 55.168C125.464 54.4853 124.525 53.5147 123.821 52.256C123.138 50.976 122.797 49.4187 122.797 47.584C122.797 45.7493 123.138 44.2027 123.821 42.944C124.504 41.664 125.432 40.6933 126.605 40.032C127.778 39.3707 129.101 39.04 130.573 39.04C132.173 39.04 133.602 39.4027 134.861 40.128C136.141 40.832 137.144 41.8347 137.869 43.136C138.594 44.416 138.957 45.8987 138.957 47.584C138.957 49.2907 138.594 50.784 137.869 52.064C137.144 53.344 136.141 54.3467 134.861 55.072C133.602 55.7973 132.173 56.16 130.573 56.16ZM121.901 62.208V39.2H124.077V44.256L123.853 47.616L124.173 51.008V62.208H121.901ZM130.413 54.144C131.608 54.144 132.674 53.8773 133.613 53.344C134.552 52.7893 135.298 52.0213 135.853 51.04C136.408 50.0373 136.685 48.8853 136.685 47.584C136.685 46.2827 136.408 45.1413 135.853 44.16C135.298 43.1787 134.552 42.4107 133.613 41.856C132.674 41.3013 131.608 41.024 130.413 41.024C129.218 41.024 128.141 41.3013 127.181 41.856C126.242 42.4107 125.496 43.1787 124.941 44.16C124.408 45.1413 124.141 46.2827 124.141 47.584C124.141 48.8853 124.408 50.0373 124.941 51.04C125.496 52.0213 126.242 52.7893 127.181 53.344C128.141 53.8773 129.218 54.144 130.413 54.144ZM154.177 56V52.288L154.081 51.68V45.472C154.081 44.0427 153.676 42.944 152.865 42.176C152.076 41.408 150.892 41.024 149.313 41.024C148.225 41.024 147.19 41.2053 146.209 41.568C145.228 41.9307 144.396 42.4107 143.713 43.008L142.689 41.312C143.542 40.5867 144.566 40.032 145.761 39.648C146.956 39.2427 148.214 39.04 149.537 39.04C151.713 39.04 153.388 39.584 154.561 40.672C155.756 41.7387 156.353 43.3707 156.353 45.568V56H154.177ZM148.385 56.16C147.126 56.16 146.028 55.9573 145.089 55.552C144.172 55.1253 143.468 54.5493 142.977 53.824C142.486 53.0773 142.241 52.224 142.241 51.264C142.241 50.3893 142.444 49.6 142.849 48.896C143.276 48.1707 143.958 47.5947 144.897 47.168C145.857 46.72 147.137 46.496 148.737 46.496H154.529V48.192H148.801C147.18 48.192 146.049 48.48 145.409 49.056C144.79 49.632 144.481 50.3467 144.481 51.2C144.481 52.16 144.854 52.928 145.601 53.504C146.348 54.08 147.393 54.368 148.737 54.368C150.017 54.368 151.116 54.08 152.033 53.504C152.972 52.9067 153.654 52.0533 154.081 50.944L154.593 52.512C154.166 53.6213 153.42 54.5067 152.353 55.168C151.308 55.8293 149.985 56.16 148.385 56.16ZM159.329 55.968L159.489 54.016C159.638 54.0373 159.777 54.0693 159.905 54.112C160.054 54.1333 160.182 54.144 160.289 54.144C160.972 54.144 161.516 53.888 161.921 53.376C162.348 52.864 162.668 52.1813 162.881 51.328C163.094 50.4747 163.244 49.5147 163.329 48.448C163.414 47.36 163.489 46.272 163.553 45.184L163.841 39.2H176.161V56H173.889V40.512L174.465 41.184H165.313L165.857 40.48L165.601 45.344C165.537 46.7947 165.42 48.1813 165.249 49.504C165.1 50.8267 164.854 51.9893 164.513 52.992C164.193 53.9947 163.745 54.784 163.169 55.36C162.593 55.9147 161.857 56.192 160.961 56.192C160.705 56.192 160.438 56.1707 160.161 56.128C159.905 56.0853 159.628 56.032 159.329 55.968ZM189.852 45.12C191.964 45.1413 193.564 45.6107 194.652 46.528C195.761 47.4453 196.316 48.768 196.316 50.496C196.316 52.288 195.719 53.664 194.524 54.624C193.351 55.584 191.644 56.0533 189.404 56.032L182.62 56V39.2H184.892V45.056L189.852 45.12ZM189.276 54.304C190.833 54.3253 192.007 54.016 192.796 53.376C193.607 52.7147 194.012 51.7547 194.012 50.496C194.012 49.2373 193.617 48.32 192.828 47.744C192.039 47.1467 190.855 46.8373 189.276 46.816L184.892 46.752V54.24L189.276 54.304ZM200.651 56V39.2H202.923V46.624H213.515V39.2H215.787V56H213.515V48.576H202.923V56H200.651ZM222.245 56V39.2H224.517V56H222.245ZM223.397 35.488C222.928 35.488 222.533 35.328 222.213 35.008C221.893 34.688 221.733 34.304 221.733 33.856C221.733 33.408 221.893 33.0347 222.213 32.736C222.533 32.416 222.928 32.256 223.397 32.256C223.866 32.256 224.261 32.4053 224.581 32.704C224.901 33.0027 225.061 33.376 225.061 33.824C225.061 34.2933 224.901 34.688 224.581 35.008C224.282 35.328 223.888 35.488 223.397 35.488Z" fill="#735F3D"/>
<path d="M23.6536 99V87.8H28.3096C29.4936 87.8 30.4216 88.0453 31.0936 88.536C31.7763 89.016 32.1176 89.7253 32.1176 90.664C32.1176 91.592 31.7923 92.296 31.1416 92.776C30.491 93.2453 29.6376 93.48 28.5816 93.48L28.8536 93.08C30.1016 93.08 31.051 93.3253 31.7016 93.816C32.3523 94.3067 32.6776 95.0267 32.6776 95.976C32.6776 96.936 32.3363 97.6827 31.6536 98.216C30.9816 98.7387 29.9683 99 28.6136 99H23.6536ZM24.8216 98.056H28.6136C29.563 98.056 30.283 97.88 30.7736 97.528C31.2643 97.176 31.5096 96.632 31.5096 95.896C31.5096 95.1707 31.2643 94.6373 30.7736 94.296C30.283 93.9547 29.563 93.784 28.6136 93.784H24.8216V98.056ZM24.8216 92.872H28.2456C29.1096 92.872 29.771 92.7013 30.2296 92.36C30.699 92.008 30.9336 91.4907 30.9336 90.808C30.9336 90.1253 30.699 89.6133 30.2296 89.272C29.771 88.92 29.1096 88.744 28.2456 88.744H24.8216V92.872ZM35.366 99V90.6H36.502V97.272L42.118 90.6H43.126V99H41.99V92.312L36.39 99H35.366ZM52.5416 99L49.0856 94.84L50.0296 94.28L53.8856 99H52.5416ZM46.3816 99V90.6H47.5176V99H46.3816ZM47.1656 95.256V94.28H49.8696V95.256H47.1656ZM50.1256 94.92L49.0696 94.76L52.4136 90.6H53.6456L50.1256 94.92ZM58.8376 99.08C58.027 99.08 57.2963 98.8987 56.6456 98.536C56.0056 98.1627 55.499 97.656 55.1256 97.016C54.7523 96.3653 54.5656 95.624 54.5656 94.792C54.5656 93.9493 54.7523 93.208 55.1256 92.568C55.499 91.928 56.0056 91.4267 56.6456 91.064C57.2856 90.7013 58.0163 90.52 58.8376 90.52C59.6696 90.52 60.4056 90.7013 61.0456 91.064C61.6963 91.4267 62.203 91.928 62.5656 92.568C62.939 93.208 63.1256 93.9493 63.1256 94.792C63.1256 95.624 62.939 96.3653 62.5656 97.016C62.203 97.656 61.6963 98.1627 61.0456 98.536C60.395 98.8987 59.659 99.08 58.8376 99.08ZM58.8376 98.072C59.4456 98.072 59.9843 97.9387 60.4536 97.672C60.923 97.3947 61.291 97.0107 61.5576 96.52C61.835 96.0187 61.9736 95.4427 61.9736 94.792C61.9736 94.1307 61.835 93.5547 61.5576 93.064C61.291 92.5733 60.923 92.1947 60.4536 91.928C59.9843 91.6507 59.451 91.512 58.8536 91.512C58.2563 91.512 57.723 91.6507 57.2536 91.928C56.7843 92.1947 56.411 92.5733 56.1336 93.064C55.8563 93.5547 55.7176 94.1307 55.7176 94.792C55.7176 95.4427 55.8563 96.0187 56.1336 96.52C56.411 97.0107 56.7843 97.3947 57.2536 97.672C57.723 97.9387 58.251 98.072 58.8376 98.072ZM69.8895 99.08C69.1642 99.08 68.5082 98.9147 67.9215 98.584C67.3348 98.2427 66.8655 97.7573 66.5135 97.128C66.1722 96.488 66.0015 95.7093 66.0015 94.792C66.0015 93.8747 66.1722 93.1013 66.5135 92.472C66.8548 91.832 67.3188 91.3467 67.9055 91.016C68.4922 90.6853 69.1535 90.52 69.8895 90.52C70.6895 90.52 71.4042 90.7013 72.0335 91.064C72.6735 91.416 73.1748 91.9173 73.5375 92.568C73.9002 93.208 74.0815 93.9493 74.0815 94.792C74.0815 95.6453 73.9002 96.392 73.5375 97.032C73.1748 97.672 72.6735 98.1733 72.0335 98.536C71.4042 98.8987 70.6895 99.08 69.8895 99.08ZM65.5535 102.104V90.6H66.6415V93.128L66.5295 94.808L66.6895 96.504V102.104H65.5535ZM69.8095 98.072C70.4068 98.072 70.9402 97.9387 71.4095 97.672C71.8788 97.3947 72.2522 97.0107 72.5295 96.52C72.8068 96.0187 72.9455 95.4427 72.9455 94.792C72.9455 94.1413 72.8068 93.5707 72.5295 93.08C72.2522 92.5893 71.8788 92.2053 71.4095 91.928C70.9402 91.6507 70.4068 91.512 69.8095 91.512C69.2122 91.512 68.6735 91.6507 68.1935 91.928C67.7242 92.2053 67.3508 92.5893 67.0735 93.08C66.8068 93.5707 66.6735 94.1413 66.6735 94.792C66.6735 95.4427 66.8068 96.0187 67.0735 96.52C67.3508 97.0107 67.7242 97.3947 68.1935 97.672C68.6735 97.9387 69.2122 98.072 69.8095 98.072ZM76.5223 99V90.6H77.6583V97.272L83.2743 90.6H84.2823V99H83.1463V92.312L77.5463 99H76.5223ZM91.0579 99.08C90.2259 99.08 89.4792 98.8987 88.8179 98.536C88.1672 98.1627 87.6552 97.656 87.2819 97.016C86.9085 96.3653 86.7219 95.624 86.7219 94.792C86.7219 93.9493 86.9085 93.208 87.2819 92.568C87.6552 91.928 88.1672 91.4267 88.8179 91.064C89.4792 90.7013 90.2259 90.52 91.0579 90.52C91.7725 90.52 92.4179 90.6587 92.9939 90.936C93.5699 91.2133 94.0232 91.6293 94.3539 92.184L93.5059 92.76C93.2179 92.3333 92.8605 92.0187 92.4339 91.816C92.0072 91.6133 91.5432 91.512 91.0419 91.512C90.4445 91.512 89.9059 91.6507 89.4259 91.928C88.9459 92.1947 88.5672 92.5733 88.2899 93.064C88.0125 93.5547 87.8739 94.1307 87.8739 94.792C87.8739 95.4533 88.0125 96.0293 88.2899 96.52C88.5672 97.0107 88.9459 97.3947 89.4259 97.672C89.9059 97.9387 90.4445 98.072 91.0419 98.072C91.5432 98.072 92.0072 97.9707 92.4339 97.768C92.8605 97.5653 93.2179 97.256 93.5059 96.84L94.3539 97.416C94.0232 97.96 93.5699 98.376 92.9939 98.664C92.4179 98.9413 91.7725 99.08 91.0579 99.08ZM97.9973 99V91.288L98.2853 91.592H94.8133V90.6H102.317V91.592H98.8453L99.1333 91.288V99H97.9973ZM107.025 99.08C106.214 99.08 105.484 98.8987 104.833 98.536C104.193 98.1627 103.686 97.656 103.313 97.016C102.94 96.3653 102.753 95.624 102.753 94.792C102.753 93.9493 102.94 93.208 103.313 92.568C103.686 91.928 104.193 91.4267 104.833 91.064C105.473 90.7013 106.204 90.52 107.025 90.52C107.857 90.52 108.593 90.7013 109.233 91.064C109.884 91.4267 110.39 91.928 110.753 92.568C111.126 93.208 111.313 93.9493 111.313 94.792C111.313 95.624 111.126 96.3653 110.753 97.016C110.39 97.656 109.884 98.1627 109.233 98.536C108.582 98.8987 107.846 99.08 107.025 99.08ZM107.025 98.072C107.633 98.072 108.172 97.9387 108.641 97.672C109.11 97.3947 109.478 97.0107 109.745 96.52C110.022 96.0187 110.161 95.4427 110.161 94.792C110.161 94.1307 110.022 93.5547 109.745 93.064C109.478 92.5733 109.11 92.1947 108.641 91.928C108.172 91.6507 107.638 91.512 107.041 91.512C106.444 91.512 105.91 91.6507 105.441 91.928C104.972 92.1947 104.598 92.5733 104.321 93.064C104.044 93.5547 103.905 94.1307 103.905 94.792C103.905 95.4427 104.044 96.0187 104.321 96.52C104.598 97.0107 104.972 97.3947 105.441 97.672C105.91 97.9387 106.438 98.072 107.025 98.072ZM113.741 99V90.6H117.453C118.402 90.6 119.149 90.7813 119.693 91.144C120.248 91.5067 120.525 92.04 120.525 92.744C120.525 93.4267 120.264 93.9547 119.741 94.328C119.218 94.6907 118.53 94.872 117.677 94.872L117.901 94.536C118.904 94.536 119.64 94.7227 120.109 95.096C120.578 95.4693 120.813 96.008 120.813 96.712C120.813 97.4373 120.546 98.0027 120.013 98.408C119.49 98.8027 118.674 99 117.565 99H113.741ZM114.845 98.104H117.517C118.232 98.104 118.77 97.992 119.133 97.768C119.506 97.5333 119.693 97.16 119.693 96.648C119.693 96.136 119.528 95.7627 119.197 95.528C118.866 95.2933 118.344 95.176 117.629 95.176H114.845V98.104ZM114.845 94.328H117.373C118.024 94.328 118.52 94.2053 118.861 93.96C119.213 93.7147 119.389 93.3573 119.389 92.888C119.389 92.4187 119.213 92.0667 118.861 91.832C118.52 91.5973 118.024 91.48 117.373 91.48H114.845V94.328ZM123.619 102.184C123.225 102.184 122.846 102.12 122.483 101.992C122.131 101.864 121.827 101.672 121.571 101.416L122.099 100.568C122.313 100.771 122.542 100.925 122.787 101.032C123.043 101.149 123.326 101.208 123.635 101.208C124.009 101.208 124.329 101.101 124.595 100.888C124.873 100.685 125.134 100.323 125.379 99.8L125.923 98.568L126.051 98.392L129.507 90.6H130.627L126.419 100.008C126.185 100.552 125.923 100.984 125.635 101.304C125.358 101.624 125.054 101.848 124.723 101.976C124.393 102.115 124.025 102.184 123.619 102.184ZM125.859 99.24L121.987 90.6H123.171L126.595 98.312L125.859 99.24ZM132.397 99V90.6H133.533V94.216H136.093V95.256H133.533V99H132.397ZM139.629 99.08C138.829 99.08 138.109 98.8987 137.469 98.536C136.84 98.1627 136.344 97.656 135.981 97.016C135.619 96.3653 135.437 95.624 135.437 94.792C135.437 93.9493 135.619 93.208 135.981 92.568C136.344 91.928 136.84 91.4267 137.469 91.064C138.109 90.7013 138.829 90.52 139.629 90.52C140.429 90.52 141.144 90.7013 141.773 91.064C142.403 91.4267 142.899 91.928 143.261 92.568C143.624 93.208 143.805 93.9493 143.805 94.792C143.805 95.624 143.624 96.3653 143.261 97.016C142.899 97.656 142.403 98.1627 141.773 98.536C141.144 98.8987 140.429 99.08 139.629 99.08ZM139.629 98.088C140.216 98.088 140.739 97.9493 141.197 97.672C141.656 97.3947 142.019 97.0107 142.285 96.52C142.552 96.0187 142.685 95.4427 142.685 94.792C142.685 94.1307 142.552 93.5547 142.285 93.064C142.019 92.5733 141.656 92.1947 141.197 91.928C140.739 91.6507 140.216 91.512 139.629 91.512C139.053 91.512 138.531 91.6507 138.061 91.928C137.603 92.1947 137.24 92.5733 136.973 93.064C136.707 93.5547 136.573 94.1307 136.573 94.792C136.573 95.4427 136.707 96.0187 136.973 96.52C137.24 97.0107 137.603 97.3947 138.061 97.672C138.531 97.9493 139.053 98.088 139.629 98.088ZM147.529 99V91.288L147.817 91.592H144.345V90.6H151.849V91.592H148.377L148.665 91.288V99H147.529ZM157.107 93.56C158.163 93.5707 158.963 93.8053 159.507 94.264C160.062 94.7227 160.339 95.384 160.339 96.248C160.339 97.144 160.04 97.832 159.443 98.312C158.856 98.792 158.003 99.0267 156.883 99.016L153.491 99V90.6H154.627V93.528L157.107 93.56ZM156.819 98.152C157.598 98.1627 158.184 98.008 158.579 97.688C158.984 97.3573 159.187 96.8773 159.187 96.248C159.187 95.6187 158.99 95.16 158.595 94.872C158.2 94.5733 157.608 94.4187 156.819 94.408L154.627 94.376V98.12L156.819 98.152ZM166.027 99.08C165.195 99.08 164.448 98.8987 163.787 98.536C163.136 98.1627 162.624 97.656 162.251 97.016C161.877 96.3653 161.691 95.624 161.691 94.792C161.691 93.9493 161.877 93.208 162.251 92.568C162.624 91.928 163.136 91.4267 163.787 91.064C164.448 90.7013 165.195 90.52 166.027 90.52C166.741 90.52 167.387 90.6587 167.963 90.936C168.539 91.2133 168.992 91.6293 169.323 92.184L168.475 92.76C168.187 92.3333 167.829 92.0187 167.403 91.816C166.976 91.6133 166.512 91.512 166.011 91.512C165.413 91.512 164.875 91.6507 164.395 91.928C163.915 92.1947 163.536 92.5733 163.259 93.064C162.981 93.5547 162.843 94.1307 162.843 94.792C162.843 95.4533 162.981 96.0293 163.259 96.52C163.536 97.0107 163.915 97.3947 164.395 97.672C164.875 97.9387 165.413 98.072 166.011 98.072C166.512 98.072 166.976 97.9707 167.403 97.768C167.829 97.5653 168.187 97.256 168.475 96.84L169.323 97.416C168.992 97.96 168.539 98.376 167.963 98.664C167.387 98.9413 166.741 99.08 166.027 99.08ZM176.665 99V95.976L176.873 96.216H174.025C172.948 96.216 172.105 95.9813 171.497 95.512C170.889 95.0427 170.585 94.36 170.585 93.464C170.585 92.504 170.91 91.7893 171.561 91.32C172.212 90.84 173.081 90.6 174.169 90.6H177.705V99H176.665ZM170.521 99L172.825 95.768H174.009L171.753 99H170.521ZM176.665 95.64V91.256L176.873 91.592H174.201C173.422 91.592 172.814 91.7413 172.377 92.04C171.95 92.3387 171.737 92.824 171.737 93.496C171.737 94.744 172.532 95.368 174.121 95.368H176.873L176.665 95.64ZM186.732 99V91.288L187.02 91.592H183.548V90.6H191.052V91.592H187.58L187.868 91.288V99H186.732ZM192.694 99V90.6H193.83V99H192.694ZM193.27 88.744C193.035 88.744 192.838 88.664 192.678 88.504C192.518 88.344 192.438 88.152 192.438 87.928C192.438 87.704 192.518 87.5173 192.678 87.368C192.838 87.208 193.035 87.128 193.27 87.128C193.505 87.128 193.702 87.2027 193.862 87.352C194.022 87.5013 194.102 87.688 194.102 87.912C194.102 88.1467 194.022 88.344 193.862 88.504C193.713 88.664 193.515 88.744 193.27 88.744ZM195.533 98.984L195.613 98.008C195.688 98.0187 195.757 98.0347 195.821 98.056C195.896 98.0667 195.96 98.072 196.013 98.072C196.354 98.072 196.626 97.944 196.829 97.688C197.042 97.432 197.202 97.0907 197.309 96.664C197.416 96.2373 197.49 95.7573 197.533 95.224C197.576 94.68 197.613 94.136 197.645 93.592L197.789 90.6H203.949V99H202.813V91.256L203.101 91.592H198.525L198.797 91.24L198.669 93.672C198.637 94.3973 198.578 95.0907 198.493 95.752C198.418 96.4133 198.296 96.9947 198.125 97.496C197.965 97.9973 197.741 98.392 197.453 98.68C197.165 98.9573 196.797 99.096 196.349 99.096C196.221 99.096 196.088 99.0853 195.949 99.064C195.821 99.0427 195.682 99.016 195.533 98.984ZM210.795 93.56C211.851 93.5707 212.651 93.8053 213.195 94.264C213.749 94.7227 214.027 95.384 214.027 96.248C214.027 97.144 213.728 97.832 213.131 98.312C212.544 98.792 211.691 99.0267 210.571 99.016L207.179 99V90.6H208.315V93.528L210.795 93.56ZM210.507 98.152C211.285 98.1627 211.872 98.008 212.267 97.688C212.672 97.3573 212.875 96.8773 212.875 96.248C212.875 95.6187 212.677 95.16 212.283 94.872C211.888 94.5733 211.296 94.4187 210.507 94.408L208.315 94.376V98.12L210.507 98.152ZM222.354 99L218.898 94.84L219.842 94.28L223.698 99H222.354ZM216.194 99V90.6H217.33V99H216.194ZM216.978 95.256V94.28H219.682V95.256H216.978ZM219.938 94.92L218.882 94.76L222.226 90.6H223.458L219.938 94.92ZM225.491 99V90.6H226.627V97.272L232.243 90.6H233.251V99H232.115V92.312L226.515 99H225.491ZM240.694 99V90.6H241.83V94.312H247.126V90.6H248.262V99H247.126V95.288H241.83V99H240.694ZM256.707 99V97.144L256.659 96.84V93.736C256.659 93.0213 256.456 92.472 256.051 92.088C255.656 91.704 255.064 91.512 254.275 91.512C253.731 91.512 253.214 91.6027 252.723 91.784C252.232 91.9653 251.816 92.2053 251.475 92.504L250.963 91.656C251.39 91.2933 251.902 91.016 252.499 90.824C253.096 90.6213 253.726 90.52 254.387 90.52C255.475 90.52 256.312 90.792 256.899 91.336C257.496 91.8693 257.795 92.6853 257.795 93.784V99H256.707ZM253.811 99.08C253.182 99.08 252.632 98.9787 252.163 98.776C251.704 98.5627 251.352 98.2747 251.107 97.912C250.862 97.5387 250.739 97.112 250.739 96.632C250.739 96.1947 250.84 95.8 251.043 95.448C251.256 95.0853 251.598 94.7973 252.067 94.584C252.547 94.36 253.187 94.248 253.987 94.248H256.883V95.096H254.019C253.208 95.096 252.643 95.24 252.323 95.528C252.014 95.816 251.859 96.1733 251.859 96.6C251.859 97.08 252.046 97.464 252.419 97.752C252.792 98.04 253.315 98.184 253.987 98.184C254.627 98.184 255.176 98.04 255.635 97.752C256.104 97.4533 256.446 97.0267 256.659 96.472L256.915 97.256C256.702 97.8107 256.328 98.2533 255.795 98.584C255.272 98.9147 254.611 99.08 253.811 99.08ZM262.419 99V91.288L262.707 91.592H259.235V90.6H266.739V91.592H263.267L263.555 91.288V99H262.419ZM268.526 102.184C268.131 102.184 267.752 102.12 267.39 101.992C267.038 101.864 266.734 101.672 266.478 101.416L267.006 100.568C267.219 100.771 267.448 100.925 267.694 101.032C267.95 101.149 268.232 101.208 268.542 101.208C268.915 101.208 269.235 101.101 269.502 100.888C269.779 100.685 270.04 100.323 270.286 99.8L270.83 98.568L270.958 98.392L274.414 90.6H275.534L271.326 100.008C271.091 100.552 270.83 100.984 270.542 101.304C270.264 101.624 269.96 101.848 269.63 101.976C269.299 102.115 268.931 102.184 268.526 102.184ZM270.766 99.24L266.894 90.6H268.078L271.502 98.312L270.766 99.24ZM281.64 99.08C280.914 99.08 280.258 98.9147 279.672 98.584C279.085 98.2427 278.616 97.7573 278.264 97.128C277.922 96.488 277.752 95.7093 277.752 94.792C277.752 93.8747 277.922 93.1013 278.264 92.472C278.605 91.832 279.069 91.3467 279.656 91.016C280.242 90.6853 280.904 90.52 281.64 90.52C282.44 90.52 283.154 90.7013 283.784 91.064C284.424 91.416 284.925 91.9173 285.288 92.568C285.65 93.208 285.832 93.9493 285.832 94.792C285.832 95.6453 285.65 96.392 285.288 97.032C284.925 97.672 284.424 98.1733 283.784 98.536C283.154 98.8987 282.44 99.08 281.64 99.08ZM277.304 102.104V90.6H278.392V93.128L278.28 94.808L278.44 96.504V102.104H277.304ZM281.56 98.072C282.157 98.072 282.69 97.9387 283.16 97.672C283.629 97.3947 284.002 97.0107 284.28 96.52C284.557 96.0187 284.696 95.4427 284.696 94.792C284.696 94.1413 284.557 93.5707 284.28 93.08C284.002 92.5893 283.629 92.2053 283.16 91.928C282.69 91.6507 282.157 91.512 281.56 91.512C280.962 91.512 280.424 91.6507 279.944 91.928C279.474 92.2053 279.101 92.5893 278.824 93.08C278.557 93.5707 278.424 94.1413 278.424 94.792C278.424 95.4427 278.557 96.0187 278.824 96.52C279.101 97.0107 279.474 97.3947 279.944 97.672C280.424 97.9387 280.962 98.072 281.56 98.072ZM293.441 99V97.144L293.393 96.84V93.736C293.393 93.0213 293.191 92.472 292.785 92.088C292.391 91.704 291.799 91.512 291.009 91.512C290.465 91.512 289.948 91.6027 289.457 91.784C288.967 91.9653 288.551 92.2053 288.209 92.504L287.697 91.656C288.124 91.2933 288.636 91.016 289.233 90.824C289.831 90.6213 290.46 90.52 291.121 90.52C292.209 90.52 293.047 90.792 293.633 91.336C294.231 91.8693 294.529 92.6853 294.529 93.784V99H293.441ZM290.545 99.08C289.916 99.08 289.367 98.9787 288.897 98.776C288.439 98.5627 288.087 98.2747 287.841 97.912C287.596 97.5387 287.473 97.112 287.473 96.632C287.473 96.1947 287.575 95.8 287.777 95.448C287.991 95.0853 288.332 94.7973 288.801 94.584C289.281 94.36 289.921 94.248 290.721 94.248H293.617V95.096H290.753C289.943 95.096 289.377 95.24 289.057 95.528C288.748 95.816 288.593 96.1733 288.593 96.6C288.593 97.08 288.78 97.464 289.153 97.752C289.527 98.04 290.049 98.184 290.721 98.184C291.361 98.184 291.911 98.04 292.369 97.752C292.839 97.4533 293.18 97.0267 293.393 96.472L293.649 97.256C293.436 97.8107 293.063 98.2533 292.529 98.584C292.007 98.9147 291.345 99.08 290.545 99.08ZM296.018 98.984L296.098 98.008C296.172 98.0187 296.242 98.0347 296.306 98.056C296.38 98.0667 296.444 98.072 296.498 98.072C296.839 98.072 297.111 97.944 297.314 97.688C297.527 97.432 297.687 97.0907 297.794 96.664C297.9 96.2373 297.975 95.7573 298.018 95.224C298.06 94.68 298.098 94.136 298.13 93.592L298.274 90.6H304.434V99H303.298V91.256L303.586 91.592H299.01L299.282 91.24L299.154 93.672C299.122 94.3973 299.063 95.0907 298.978 95.752C298.903 96.4133 298.78 96.9947 298.61 97.496C298.45 97.9973 298.226 98.392 297.938 98.68C297.65 98.9573 297.282 99.096 296.834 99.096C296.706 99.096 296.572 99.0853 296.434 99.064C296.306 99.0427 296.167 99.016 296.018 98.984ZM311.279 93.56C312.335 93.5707 313.135 93.8053 313.679 94.264C314.234 94.7227 314.511 95.384 314.511 96.248C314.511 97.144 314.212 97.832 313.615 98.312C313.028 98.792 312.175 99.0267 311.055 99.016L307.663 99V90.6H308.799V93.528L311.279 93.56ZM310.991 98.152C311.77 98.1627 312.356 98.008 312.751 97.688C313.156 97.3573 313.359 96.8773 313.359 96.248C313.359 95.6187 313.162 95.16 312.767 94.872C312.372 94.5733 311.78 94.4187 310.991 94.408L308.799 94.376V98.12L310.991 98.152ZM316.679 99V90.6H317.815V94.312H323.111V90.6H324.247V99H323.111V95.288H317.815V99H316.679ZM327.475 99V90.6H328.611V99H327.475ZM328.051 88.744C327.817 88.744 327.619 88.664 327.459 88.504C327.299 88.344 327.219 88.152 327.219 87.928C327.219 87.704 327.299 87.5173 327.459 87.368C327.619 87.208 327.817 87.128 328.051 87.128C328.286 87.128 328.483 87.2027 328.643 87.352C328.803 87.5013 328.883 87.688 328.883 87.912C328.883 88.1467 328.803 88.344 328.643 88.504C328.494 88.664 328.297 88.744 328.051 88.744ZM66.5769 119V110.6H67.7289L71.5369 117.048H71.0569L74.9289 110.6H75.9849V119H74.9449V111.896L75.1529 111.992L71.5369 117.976H71.0249L67.3769 111.928L67.6169 111.88V119H66.5769ZM84.4336 119V117.144L84.3856 116.84V113.736C84.3856 113.021 84.1829 112.472 83.7776 112.088C83.3829 111.704 82.7909 111.512 82.0016 111.512C81.4576 111.512 80.9402 111.603 80.4496 111.784C79.9589 111.965 79.5429 112.205 79.2016 112.504L78.6896 111.656C79.1162 111.293 79.6282 111.016 80.2256 110.824C80.8229 110.621 81.4522 110.52 82.1136 110.52C83.2016 110.52 84.0389 110.792 84.6256 111.336C85.2229 111.869 85.5216 112.685 85.5216 113.784V119H84.4336ZM81.5376 119.08C80.9082 119.08 80.3589 118.979 79.8896 118.776C79.4309 118.563 79.0789 118.275 78.8336 117.912C78.5882 117.539 78.4656 117.112 78.4656 116.632C78.4656 116.195 78.5669 115.8 78.7696 115.448C78.9829 115.085 79.3242 114.797 79.7936 114.584C80.2736 114.36 80.9136 114.248 81.7136 114.248H84.6096V115.096H81.7456C80.9349 115.096 80.3696 115.24 80.0496 115.528C79.7402 115.816 79.5856 116.173 79.5856 116.6C79.5856 117.08 79.7722 117.464 80.1456 117.752C80.5189 118.04 81.0416 118.184 81.7136 118.184C82.3536 118.184 82.9029 118.04 83.3616 117.752C83.8309 117.453 84.1722 117.027 84.3856 116.472L84.6416 117.256C84.4282 117.811 84.0549 118.253 83.5216 118.584C82.9989 118.915 82.3376 119.08 81.5376 119.08ZM90.1457 119V111.288L90.4337 111.592H86.9617V110.6H94.4657V111.592H90.9937L91.2817 111.288V119H90.1457ZM99.3176 119.08C98.4429 119.08 97.6749 118.899 97.0136 118.536C96.3522 118.163 95.8349 117.656 95.4616 117.016C95.0882 116.365 94.9016 115.624 94.9016 114.792C94.9016 113.96 95.0776 113.224 95.4296 112.584C95.7922 111.944 96.2829 111.443 96.9016 111.08C97.5309 110.707 98.2349 110.52 99.0136 110.52C99.8029 110.52 100.502 110.701 101.11 111.064C101.728 111.416 102.214 111.917 102.566 112.568C102.918 113.208 103.094 113.949 103.094 114.792C103.094 114.845 103.088 114.904 103.078 114.968C103.078 115.021 103.078 115.08 103.078 115.144H95.7656V114.296H102.47L102.022 114.632C102.022 114.024 101.888 113.485 101.622 113.016C101.366 112.536 101.014 112.163 100.566 111.896C100.118 111.629 99.6002 111.496 99.0136 111.496C98.4376 111.496 97.9202 111.629 97.4616 111.896C97.0029 112.163 96.6456 112.536 96.3896 113.016C96.1336 113.496 96.0056 114.045 96.0056 114.664V114.84C96.0056 115.48 96.1442 116.045 96.4216 116.536C96.7096 117.016 97.1042 117.395 97.6056 117.672C98.1176 117.939 98.6989 118.072 99.3496 118.072C99.8616 118.072 100.336 117.981 100.774 117.8C101.222 117.619 101.606 117.341 101.926 116.968L102.566 117.704C102.192 118.152 101.723 118.493 101.158 118.728C100.603 118.963 99.9896 119.08 99.3176 119.08ZM109.944 119.08C109.219 119.08 108.563 118.915 107.976 118.584C107.39 118.243 106.92 117.757 106.568 117.128C106.227 116.488 106.056 115.709 106.056 114.792C106.056 113.875 106.227 113.101 106.568 112.472C106.91 111.832 107.374 111.347 107.96 111.016C108.547 110.685 109.208 110.52 109.944 110.52C110.744 110.52 111.459 110.701 112.088 111.064C112.728 111.416 113.23 111.917 113.592 112.568C113.955 113.208 114.136 113.949 114.136 114.792C114.136 115.645 113.955 116.392 113.592 117.032C113.23 117.672 112.728 118.173 112.088 118.536C111.459 118.899 110.744 119.08 109.944 119.08ZM105.608 122.104V110.6H106.696V113.128L106.584 114.808L106.744 116.504V122.104H105.608ZM109.864 118.072C110.462 118.072 110.995 117.939 111.464 117.672C111.934 117.395 112.307 117.011 112.584 116.52C112.862 116.019 113 115.443 113 114.792C113 114.141 112.862 113.571 112.584 113.08C112.307 112.589 111.934 112.205 111.464 111.928C110.995 111.651 110.462 111.512 109.864 111.512C109.267 111.512 108.728 111.651 108.248 111.928C107.779 112.205 107.406 112.589 107.128 113.08C106.862 113.571 106.728 114.141 106.728 114.792C106.728 115.443 106.862 116.019 107.128 116.52C107.406 117.011 107.779 117.395 108.248 117.672C108.728 117.939 109.267 118.072 109.864 118.072ZM116.577 119V110.6H117.713V119H116.577ZM117.153 108.744C116.918 108.744 116.721 108.664 116.561 108.504C116.401 108.344 116.321 108.152 116.321 107.928C116.321 107.704 116.401 107.517 116.561 107.368C116.721 107.208 116.918 107.128 117.153 107.128C117.388 107.128 117.585 107.203 117.745 107.352C117.905 107.501 117.985 107.688 117.985 107.912C117.985 108.147 117.905 108.344 117.745 108.504C117.596 108.664 117.398 108.744 117.153 108.744ZM126.168 119V117.144L126.12 116.84V113.736C126.12 113.021 125.917 112.472 125.512 112.088C125.117 111.704 124.525 111.512 123.736 111.512C123.192 111.512 122.675 111.603 122.184 111.784C121.693 111.965 121.277 112.205 120.936 112.504L120.424 111.656C120.851 111.293 121.363 111.016 121.96 110.824C122.557 110.621 123.187 110.52 123.848 110.52C124.936 110.52 125.773 110.792 126.36 111.336C126.957 111.869 127.256 112.685 127.256 113.784V119H126.168ZM123.272 119.08C122.643 119.08 122.093 118.979 121.624 118.776C121.165 118.563 120.813 118.275 120.568 117.912C120.323 117.539 120.2 117.112 120.2 116.632C120.2 116.195 120.301 115.8 120.504 115.448C120.717 115.085 121.059 114.797 121.528 114.584C122.008 114.36 122.648 114.248 123.448 114.248H126.344V115.096H123.48C122.669 115.096 122.104 115.24 121.784 115.528C121.475 115.816 121.32 116.173 121.32 116.6C121.32 117.08 121.507 117.464 121.88 117.752C122.253 118.04 122.776 118.184 123.448 118.184C124.088 118.184 124.637 118.04 125.096 117.752C125.565 117.453 125.907 117.027 126.12 116.472L126.376 117.256C126.163 117.811 125.789 118.253 125.256 118.584C124.733 118.915 124.072 119.08 123.272 119.08ZM128.744 118.984L128.824 118.008C128.899 118.019 128.968 118.035 129.032 118.056C129.107 118.067 129.171 118.072 129.224 118.072C129.565 118.072 129.837 117.944 130.04 117.688C130.253 117.432 130.413 117.091 130.52 116.664C130.627 116.237 130.701 115.757 130.744 115.224C130.787 114.68 130.824 114.136 130.856 113.592L131 110.6H137.16V119H136.024V111.256L136.312 111.592H131.736L132.008 111.24L131.88 113.672C131.848 114.397 131.789 115.091 131.704 115.752C131.629 116.413 131.507 116.995 131.336 117.496C131.176 117.997 130.952 118.392 130.664 118.68C130.376 118.957 130.008 119.096 129.56 119.096C129.432 119.096 129.299 119.085 129.16 119.064C129.032 119.043 128.893 119.016 128.744 118.984ZM140.389 119V110.6H141.525V117.272L147.141 110.6H148.149V119H147.013V112.312L141.413 119H140.389ZM157.193 119V111.288L157.481 111.592H154.009V110.6H161.513V111.592H158.041L158.329 111.288V119H157.193ZM168.371 119V117.144L168.323 116.84V113.736C168.323 113.021 168.12 112.472 167.715 112.088C167.32 111.704 166.728 111.512 165.939 111.512C165.395 111.512 164.878 111.603 164.387 111.784C163.896 111.965 163.48 112.205 163.139 112.504L162.627 111.656C163.054 111.293 163.566 111.016 164.163 110.824C164.76 110.621 165.39 110.52 166.051 110.52C167.139 110.52 167.976 110.792 168.563 111.336C169.16 111.869 169.459 112.685 169.459 113.784V119H168.371ZM165.475 119.08C164.846 119.08 164.296 118.979 163.827 118.776C163.368 118.563 163.016 118.275 162.771 117.912C162.526 117.539 162.403 117.112 162.403 116.632C162.403 116.195 162.504 115.8 162.707 115.448C162.92 115.085 163.262 114.797 163.731 114.584C164.211 114.36 164.851 114.248 165.651 114.248H168.547V115.096H165.683C164.872 115.096 164.307 115.24 163.987 115.528C163.678 115.816 163.523 116.173 163.523 116.6C163.523 117.08 163.71 117.464 164.083 117.752C164.456 118.04 164.979 118.184 165.651 118.184C166.291 118.184 166.84 118.04 167.299 117.752C167.768 117.453 168.11 117.027 168.323 116.472L168.579 117.256C168.366 117.811 167.992 118.253 167.459 118.584C166.936 118.915 166.275 119.08 165.475 119.08ZM181.007 119.08C180.281 119.08 179.625 118.915 179.039 118.584C178.452 118.243 177.983 117.757 177.631 117.128C177.289 116.488 177.119 115.709 177.119 114.792C177.119 113.875 177.289 113.101 177.631 112.472C177.972 111.832 178.436 111.347 179.023 111.016C179.609 110.685 180.271 110.52 181.007 110.52C181.807 110.52 182.521 110.701 183.151 111.064C183.791 111.416 184.292 111.917 184.655 112.568C185.017 113.208 185.199 113.949 185.199 114.792C185.199 115.645 185.017 116.392 184.655 117.032C184.292 117.672 183.791 118.173 183.151 118.536C182.521 118.899 181.807 119.08 181.007 119.08ZM176.671 122.104V110.6H177.759V113.128L177.647 114.808L177.807 116.504V122.104H176.671ZM180.927 118.072C181.524 118.072 182.057 117.939 182.527 117.672C182.996 117.395 183.369 117.011 183.647 116.52C183.924 116.019 184.063 115.443 184.063 114.792C184.063 114.141 183.924 113.571 183.647 113.08C183.369 112.589 182.996 112.205 182.527 111.928C182.057 111.651 181.524 111.512 180.927 111.512C180.329 111.512 179.791 111.651 179.311 111.928C178.841 112.205 178.468 112.589 178.191 113.08C177.924 113.571 177.791 114.141 177.791 114.792C177.791 115.443 177.924 116.019 178.191 116.52C178.468 117.011 178.841 117.395 179.311 117.672C179.791 117.939 180.329 118.072 180.927 118.072ZM187.549 122.184C187.154 122.184 186.776 122.12 186.413 121.992C186.061 121.864 185.757 121.672 185.501 121.416L186.029 120.568C186.242 120.771 186.472 120.925 186.717 121.032C186.973 121.149 187.256 121.208 187.565 121.208C187.938 121.208 188.258 121.101 188.525 120.888C188.802 120.685 189.064 120.323 189.309 119.8L189.853 118.568L189.981 118.392L193.437 110.6H194.557L190.349 120.008C190.114 120.552 189.853 120.984 189.565 121.304C189.288 121.624 188.984 121.848 188.653 121.976C188.322 122.115 187.954 122.184 187.549 122.184ZM189.789 119.24L185.917 110.6H187.101L190.525 118.312L189.789 119.24ZM201.639 115.448C201.148 115.661 200.652 115.832 200.151 115.96C199.66 116.077 199.17 116.136 198.679 116.136C197.687 116.136 196.903 115.912 196.327 115.464C195.751 115.005 195.463 114.301 195.463 113.352V110.6H196.583V113.288C196.583 113.928 196.791 114.408 197.207 114.728C197.623 115.048 198.183 115.208 198.887 115.208C199.314 115.208 199.762 115.155 200.231 115.048C200.7 114.931 201.175 114.765 201.655 114.552L201.639 115.448ZM201.543 119V110.6H202.679V119H201.543ZM205.905 119V110.6H207.041V114.312H212.337V110.6H213.473V119H212.337V115.288H207.041V119H205.905ZM221.918 119V117.144L221.87 116.84V113.736C221.87 113.021 221.667 112.472 221.262 112.088C220.867 111.704 220.275 111.512 219.486 111.512C218.942 111.512 218.425 111.603 217.934 111.784C217.443 111.965 217.027 112.205 216.686 112.504L216.174 111.656C216.601 111.293 217.113 111.016 217.71 110.824C218.307 110.621 218.937 110.52 219.598 110.52C220.686 110.52 221.523 110.792 222.11 111.336C222.707 111.869 223.006 112.685 223.006 113.784V119H221.918ZM219.022 119.08C218.393 119.08 217.843 118.979 217.374 118.776C216.915 118.563 216.563 118.275 216.318 117.912C216.073 117.539 215.95 117.112 215.95 116.632C215.95 116.195 216.051 115.8 216.254 115.448C216.467 115.085 216.809 114.797 217.278 114.584C217.758 114.36 218.398 114.248 219.198 114.248H222.094V115.096H219.23C218.419 115.096 217.854 115.24 217.534 115.528C217.225 115.816 217.07 116.173 217.07 116.6C217.07 117.08 217.257 117.464 217.63 117.752C218.003 118.04 218.526 118.184 219.198 118.184C219.838 118.184 220.387 118.04 220.846 117.752C221.315 117.453 221.657 117.027 221.87 116.472L222.126 117.256C221.913 117.811 221.539 118.253 221.006 118.584C220.483 118.915 219.822 119.08 219.022 119.08ZM234.554 119.08C233.828 119.08 233.172 118.915 232.586 118.584C231.999 118.243 231.53 117.757 231.178 117.128C230.836 116.488 230.666 115.709 230.666 114.792C230.666 113.875 230.836 113.101 231.178 112.472C231.519 111.832 231.983 111.347 232.57 111.016C233.156 110.685 233.818 110.52 234.554 110.52C235.354 110.52 236.068 110.701 236.698 111.064C237.338 111.416 237.839 111.917 238.202 112.568C238.564 113.208 238.746 113.949 238.746 114.792C238.746 115.645 238.564 116.392 238.202 117.032C237.839 117.672 237.338 118.173 236.698 118.536C236.068 118.899 235.354 119.08 234.554 119.08ZM230.218 122.104V110.6H231.306V113.128L231.194 114.808L231.354 116.504V122.104H230.218ZM234.474 118.072C235.071 118.072 235.604 117.939 236.074 117.672C236.543 117.395 236.916 117.011 237.194 116.52C237.471 116.019 237.61 115.443 237.61 114.792C237.61 114.141 237.471 113.571 237.194 113.08C236.916 112.589 236.543 112.205 236.074 111.928C235.604 111.651 235.071 111.512 234.474 111.512C233.876 111.512 233.338 111.651 232.858 111.928C232.388 112.205 232.015 112.589 231.738 113.08C231.471 113.571 231.338 114.141 231.338 114.792C231.338 115.443 231.471 116.019 231.738 116.52C232.015 117.011 232.388 117.395 232.858 117.672C233.338 117.939 233.876 118.072 234.474 118.072ZM244.642 119.08C243.832 119.08 243.101 118.899 242.45 118.536C241.81 118.163 241.304 117.656 240.93 117.016C240.557 116.365 240.37 115.624 240.37 114.792C240.37 113.949 240.557 113.208 240.93 112.568C241.304 111.928 241.81 111.427 242.45 111.064C243.09 110.701 243.821 110.52 244.642 110.52C245.474 110.52 246.21 110.701 246.85 111.064C247.501 111.427 248.008 111.928 248.37 112.568C248.744 113.208 248.93 113.949 248.93 114.792C248.93 115.624 248.744 116.365 248.37 117.016C248.008 117.656 247.501 118.163 246.85 118.536C246.2 118.899 245.464 119.08 244.642 119.08ZM244.642 118.072C245.25 118.072 245.789 117.939 246.258 117.672C246.728 117.395 247.096 117.011 247.362 116.52C247.64 116.019 247.778 115.443 247.778 114.792C247.778 114.131 247.64 113.555 247.362 113.064C247.096 112.573 246.728 112.195 246.258 111.928C245.789 111.651 245.256 111.512 244.658 111.512C244.061 111.512 243.528 111.651 243.058 111.928C242.589 112.195 242.216 112.573 241.938 113.064C241.661 113.555 241.522 114.131 241.522 114.792C241.522 115.443 241.661 116.019 241.938 116.52C242.216 117.011 242.589 117.395 243.058 117.672C243.528 117.939 244.056 118.072 244.642 118.072ZM255.134 119.096C254.452 119.096 253.844 118.984 253.31 118.76C252.788 118.536 252.34 118.195 251.966 117.736C251.593 117.277 251.31 116.712 251.118 116.04C250.926 115.357 250.83 114.568 250.83 113.672C250.83 112.872 250.905 112.173 251.054 111.576C251.204 110.968 251.412 110.445 251.678 110.008C251.945 109.571 252.254 109.203 252.606 108.904C252.969 108.595 253.358 108.349 253.774 108.168C254.201 107.976 254.638 107.832 255.086 107.736L258.862 106.856L259.054 107.912L255.502 108.712C255.278 108.765 255.006 108.84 254.686 108.936C254.377 109.032 254.057 109.176 253.726 109.368C253.406 109.56 253.108 109.827 252.83 110.168C252.553 110.509 252.329 110.952 252.158 111.496C251.998 112.029 251.918 112.696 251.918 113.496C251.918 113.667 251.924 113.805 251.934 113.912C251.945 114.008 251.956 114.115 251.966 114.232C251.988 114.339 252.004 114.499 252.014 114.712L251.518 114.296C251.636 113.645 251.876 113.08 252.238 112.6C252.601 112.109 253.054 111.731 253.598 111.464C254.153 111.187 254.766 111.048 255.438 111.048C256.217 111.048 256.91 111.219 257.518 111.56C258.126 111.891 258.601 112.355 258.942 112.952C259.294 113.549 259.47 114.243 259.47 115.032C259.47 115.811 259.289 116.509 258.926 117.128C258.574 117.747 258.073 118.232 257.422 118.584C256.772 118.925 256.009 119.096 255.134 119.096ZM255.262 118.152C255.86 118.152 256.388 118.019 256.846 117.752C257.305 117.475 257.662 117.101 257.918 116.632C258.185 116.163 258.318 115.635 258.318 115.048C258.318 114.472 258.185 113.96 257.918 113.512C257.662 113.064 257.305 112.712 256.846 112.456C256.388 112.189 255.854 112.056 255.246 112.056C254.649 112.056 254.121 112.184 253.662 112.44C253.204 112.685 252.841 113.032 252.574 113.48C252.318 113.928 252.19 114.445 252.19 115.032C252.19 115.619 252.318 116.147 252.574 116.616C252.841 117.085 253.204 117.459 253.662 117.736C254.132 118.013 254.665 118.152 255.262 118.152ZM265.361 119.08C264.55 119.08 263.82 118.899 263.169 118.536C262.529 118.163 262.022 117.656 261.649 117.016C261.276 116.365 261.089 115.624 261.089 114.792C261.089 113.949 261.276 113.208 261.649 112.568C262.022 111.928 262.529 111.427 263.169 111.064C263.809 110.701 264.54 110.52 265.361 110.52C266.193 110.52 266.929 110.701 267.569 111.064C268.22 111.427 268.726 111.928 269.089 112.568C269.462 113.208 269.649 113.949 269.649 114.792C269.649 115.624 269.462 116.365 269.089 117.016C268.726 117.656 268.22 118.163 267.569 118.536C266.918 118.899 266.182 119.08 265.361 119.08ZM265.361 118.072C265.969 118.072 266.508 117.939 266.977 117.672C267.446 117.395 267.814 117.011 268.081 116.52C268.358 116.019 268.497 115.443 268.497 114.792C268.497 114.131 268.358 113.555 268.081 113.064C267.814 112.573 267.446 112.195 266.977 111.928C266.508 111.651 265.974 111.512 265.377 111.512C264.78 111.512 264.246 111.651 263.777 111.928C263.308 112.195 262.934 112.573 262.657 113.064C262.38 113.555 262.241 114.131 262.241 114.792C262.241 115.443 262.38 116.019 262.657 116.52C262.934 117.011 263.308 117.395 263.777 117.672C264.246 117.939 264.774 118.072 265.361 118.072ZM273.364 119V111.288L273.652 111.592H270.18V110.6H277.684V111.592H274.212L274.5 111.288V119H273.364ZM284.543 119V117.144L284.495 116.84V113.736C284.495 113.021 284.292 112.472 283.887 112.088C283.492 111.704 282.9 111.512 282.111 111.512C281.567 111.512 281.05 111.603 280.559 111.784C280.068 111.965 279.652 112.205 279.311 112.504L278.799 111.656C279.226 111.293 279.738 111.016 280.335 110.824C280.932 110.621 281.562 110.52 282.223 110.52C283.311 110.52 284.148 110.792 284.735 111.336C285.332 111.869 285.631 112.685 285.631 113.784V119H284.543ZM281.647 119.08C281.018 119.08 280.468 118.979 279.999 118.776C279.54 118.563 279.188 118.275 278.943 117.912C278.698 117.539 278.575 117.112 278.575 116.632C278.575 116.195 278.676 115.8 278.879 115.448C279.092 115.085 279.434 114.797 279.903 114.584C280.383 114.36 281.023 114.248 281.823 114.248H284.719V115.096H281.855C281.044 115.096 280.479 115.24 280.159 115.528C279.85 115.816 279.695 116.173 279.695 116.6C279.695 117.08 279.882 117.464 280.255 117.752C280.628 118.04 281.151 118.184 281.823 118.184C282.463 118.184 283.012 118.04 283.471 117.752C283.94 117.453 284.282 117.027 284.495 116.472L284.751 117.256C284.538 117.811 284.164 118.253 283.631 118.584C283.108 118.915 282.447 119.08 281.647 119.08Z" fill="#735F3D"/>
</svg>
