<svg width="20" height="20" viewBox="0 0 20 20" fill="none" xmlns="http://www.w3.org/2000/svg">
<path d="M10.4205 9.57216V0.484734C10.4205 0.216959 10.2036 0 9.93584 0C9.66807 0 9.45111 0.216959 9.45111 0.484734V9.57216C9.45111 9.83994 9.66807 10.0569 9.93584 10.0569C10.2036 10.0569 10.4205 9.83994 10.4205 9.57216Z" fill="black"/>
<path d="M10.4206 19.5151V14.694C10.4206 14.4262 10.2036 14.2092 9.93584 14.2092C9.66807 14.2092 9.45111 14.4262 9.45111 14.694V19.5151C9.45111 19.7829 9.66807 19.9999 9.93584 19.9999C10.2036 19.9999 10.4206 19.7829 10.4206 19.5151Z" fill="black"/>
<path d="M16.5591 7.01121V0.484734C16.5591 0.216959 16.3421 0 16.0744 0C15.8066 0 15.5896 0.216959 15.5896 0.484734V7.01121C15.5896 7.27898 15.8066 7.49594 16.0744 7.49594C16.3421 7.49594 16.5591 7.27898 16.5591 7.01121Z" fill="black"/>
<path d="M16.5591 19.5151V12.1328C16.5591 11.8651 16.3421 11.6481 16.0743 11.6481C15.8066 11.6481 15.5896 11.8651 15.5896 12.1328V19.5151C15.5896 19.7829 15.8066 19.9999 16.0743 19.9999C16.3421 19.9999 16.5591 19.7829 16.5591 19.5151Z" fill="black"/>
<path d="M4.41045 4.22767V0.484734C4.41045 0.216959 4.19346 0 3.92571 0C3.65797 0 3.44098 0.216959 3.44098 0.484734L3.44098 4.22767C3.44098 4.49541 3.65794 4.7124 3.92571 4.7124C4.19349 4.7124 4.41045 4.49545 4.41045 4.22767Z" fill="black"/>
<path d="M4.41045 19.5151L4.41045 9.3496C4.41045 9.08183 4.19349 8.86487 3.92571 8.86487C3.65794 8.86487 3.44098 9.08183 3.44098 9.3496L3.44098 19.5153C3.44098 19.783 3.65794 20 3.92571 20C4.19346 19.9998 4.41045 19.7828 4.41045 19.5151Z" fill="black"/>
<path d="M5.92202 5.73967C5.92202 4.63853 5.02641 3.74292 3.92531 3.74292C2.82457 3.74292 1.92896 4.63853 1.92896 5.73967C1.92896 6.84041 2.82457 7.73599 3.92531 7.73599C5.02644 7.73582 5.92202 6.84021 5.92202 5.73967ZM2.89846 5.73967C2.89846 5.1733 3.35914 4.71242 3.92531 4.71242C4.49168 4.71242 4.95255 5.1733 4.95255 5.73967C4.95255 6.30584 4.49164 6.76652 3.92531 6.76652C3.35917 6.76635 2.89846 6.30564 2.89846 5.73967Z" fill="black"/>
<path d="M18.071 8.42176C18.071 7.32063 17.1754 6.42505 16.0742 6.42505C14.9733 6.42505 14.0777 7.32063 14.0777 8.42176C14.0777 9.5227 14.9733 10.4183 16.0742 10.4183C17.1754 10.4181 18.071 9.52254 18.071 8.42176ZM15.0472 8.42176C15.0472 7.8554 15.508 7.39452 16.0743 7.39452C16.6407 7.39452 17.1016 7.8554 17.1016 8.42176C17.1016 8.98813 16.6407 9.44881 16.0743 9.44881C15.508 9.44881 15.0472 8.98797 15.0472 8.42176Z" fill="black"/>
<path d="M11.932 11.084C11.932 9.98301 11.0364 9.0874 9.93544 9.0874C8.8347 9.0874 7.93909 9.98301 7.93909 11.084C7.93909 12.1849 8.8347 13.0805 9.93544 13.0805C11.0364 13.0805 11.932 12.1849 11.932 11.084ZM8.90859 11.084C8.90859 10.5176 9.36927 10.0569 9.93544 10.0569C10.5018 10.0569 10.9625 10.5176 10.9625 11.084C10.9625 11.6503 10.5018 12.111 9.93544 12.111C9.36927 12.111 8.90859 11.6503 8.90859 11.084Z" fill="black"/>
</svg>
