<svg width="352" height="140" viewBox="0 0 352 140" fill="none" xmlns="http://www.w3.org/2000/svg">
<rect width="352" height="140" fill="#FFF5E8"/>
<path d="M317.706 31.888C315.314 29.4952 312.134 28.1772 308.751 28.1772C305.368 28.1772 302.188 29.4952 299.796 31.8885L299.756 31.9282L299.716 31.8885C297.324 29.4953 294.144 28.1772 290.761 28.1772C287.378 28.1772 284.198 29.4952 281.806 31.8884C279.414 34.2813 278.096 37.4629 278.096 40.847C278.096 41.5931 278.162 42.3288 278.287 43.0487C277.241 43.4472 276.281 44.0639 275.466 44.8795C273.947 46.3988 273.111 48.4184 273.111 50.5666C273.111 52.7152 273.948 54.7349 275.466 56.2539L284.98 65.7813C285.414 66.2158 285.992 66.455 286.605 66.455C287.219 66.455 287.796 66.2158 288.23 65.7812L292.995 61.0099L297.498 65.519C298.102 66.1226 298.904 66.455 299.756 66.455C300.609 66.455 301.411 66.1226 302.014 65.5188L312.808 54.7104C313.167 54.3515 313.166 53.77 312.808 53.4117C312.449 53.0531 311.867 53.0537 311.509 53.4125L300.715 64.2207C300.459 64.4773 300.118 64.6185 299.756 64.6185C299.394 64.6185 299.054 64.4773 298.798 64.221L294.294 59.7104L297.745 56.2543C299.264 54.735 300.1 52.7152 300.1 50.5668C300.1 49.1847 299.746 47.8242 299.076 46.6321C298.827 46.1899 298.267 46.0328 297.825 46.2815C297.383 46.53 297.226 47.0899 297.475 47.5321C297.991 48.4499 298.263 49.4993 298.263 50.5668C298.263 52.2246 297.618 53.7834 296.446 54.9563L286.931 64.4834C286.844 64.5706 286.729 64.6185 286.606 64.6185C286.485 64.6185 286.366 64.5693 286.281 64.4834L276.766 54.9558C275.594 53.7833 274.948 52.2246 274.948 50.5666C274.948 48.9089 275.594 47.3503 276.766 46.1779C277.937 45.0056 279.495 44.36 281.152 44.36C282.809 44.36 284.367 45.0056 285.538 46.178C286.111 46.9874 287.089 46.9758 287.673 46.1779C288.845 45.0056 290.403 44.36 292.06 44.36C293.209 44.36 294.328 44.674 295.296 45.2681C295.727 45.5333 296.293 45.3984 296.559 44.9661C296.824 44.5341 296.689 43.9683 296.257 43.703C295 42.9312 293.549 42.5231 292.06 42.5231C290.019 42.5231 288.095 43.2783 286.606 44.6563C285.116 43.2783 283.192 42.5231 281.152 42.5231C280.788 42.5231 280.429 42.549 280.074 42.5964C279.982 42.0232 279.934 41.4387 279.934 40.8468C279.934 37.9531 281.06 35.2327 283.106 33.1866C285.15 31.1405 287.869 30.0137 290.761 30.0137C293.653 30.0137 296.373 31.1405 298.418 33.1867C299.23 34.285 300.283 34.285 301.095 33.1867C303.141 31.1405 305.86 30.0137 308.752 30.0137C311.644 30.0137 314.363 31.1405 316.408 33.1866C318.453 35.233 319.579 37.9535 319.579 40.8468C319.579 43.7402 318.453 46.4607 316.408 48.5073L314.444 50.4735C314.086 50.8324 314.086 51.4139 314.445 51.7722C314.804 52.1307 315.385 52.1302 315.744 51.7713L317.707 49.8054C320.099 47.4121 321.416 44.2304 321.416 40.8466C321.416 37.4629 320.098 34.2815 317.706 31.888Z" fill="#735F3D"/>
<path d="M323.143 33.4236C322.415 32.0626 321.486 30.812 320.381 29.7067C319.436 28.7612 318.38 27.9409 317.242 27.2679C316.806 27.0098 316.243 27.154 315.985 27.5907C315.726 28.0273 315.871 28.5906 316.307 28.8486C317.312 29.4431 318.246 30.1686 319.082 31.005C320.059 31.9827 320.881 33.0881 321.524 34.2902C321.69 34.5994 322.007 34.7755 322.334 34.7755C322.481 34.7755 322.629 34.7405 322.767 34.6665C323.214 34.4273 323.383 33.8708 323.143 33.4236Z" fill="#735F3D"/>
<path d="M326.919 33.1091C325.983 31.0328 324.684 29.1539 323.056 27.5251C321.406 25.8751 319.502 24.563 317.395 23.6247C316.932 23.4183 316.389 23.6266 316.183 24.0901C315.977 24.5534 316.185 25.0963 316.648 25.3025C318.549 26.1488 320.267 27.3333 321.757 28.8236C323.227 30.2946 324.401 31.9903 325.244 33.8633C325.397 34.2034 325.732 34.4047 326.082 34.4047C326.208 34.4047 326.336 34.3786 326.459 34.3234C326.921 34.1154 327.127 33.5715 326.919 33.1091Z" fill="#735F3D"/>
<path d="M274.09 42.6976C273.732 42.339 273.15 42.3392 272.792 42.698C271.775 43.7155 270.976 44.897 270.419 46.2095C270.22 46.6764 270.438 47.2156 270.905 47.414C271.022 47.4636 271.144 47.4873 271.264 47.4873C271.621 47.4873 271.961 47.2774 272.109 46.9279C272.574 45.8331 273.241 44.8467 274.091 43.9965C274.449 43.6377 274.449 43.0563 274.09 42.6976Z" fill="#735F3D"/>
<path d="M272.953 39.356C272.645 38.9534 272.069 38.8763 271.666 39.1846C271.162 39.5694 270.678 39.9936 270.227 40.445C268.844 41.829 267.78 43.4429 267.065 45.2423C266.878 45.7138 267.108 46.2477 267.58 46.4348C267.691 46.4789 267.806 46.4999 267.918 46.4999C268.284 46.4999 268.629 46.2805 268.772 45.9204C269.394 44.355 270.321 42.9497 271.527 41.7436C271.92 41.3491 272.343 40.9792 272.782 40.6436C273.184 40.3354 273.261 39.759 272.953 39.356Z" fill="#735F3D"/>
<path d="M317.325 36.8153C315.942 35.9248 315.25 35.2316 314.359 33.8497C314.19 33.5874 313.899 33.4288 313.587 33.4288C313.275 33.4288 312.984 33.5874 312.815 33.8497C311.924 35.2317 311.232 35.9247 309.849 36.8153C309.587 36.9844 309.428 37.2752 309.428 37.5873C309.428 37.8994 309.587 38.1902 309.849 38.3593C311.232 39.2501 311.925 39.943 312.815 41.3249C312.984 41.5873 313.275 41.7458 313.587 41.7458C313.899 41.7458 314.19 41.5873 314.359 41.3249C315.25 39.9429 315.942 39.25 317.325 38.3593C317.587 38.1902 317.745 37.8994 317.745 37.5873C317.746 37.2751 317.587 36.9844 317.325 36.8153ZM313.587 39.2347C313.09 38.6001 312.574 38.0848 311.94 37.5874C312.574 37.09 313.09 36.5747 313.587 35.9401C314.084 36.5748 314.6 37.0901 315.234 37.5874C314.6 38.0849 314.084 38.6002 313.587 39.2347Z" fill="#735F3D"/>
<path d="M314.058 44.7183L311.853 42.5142C311.495 42.1557 310.913 42.1557 310.555 42.5142L308.351 44.7183C308.178 44.8904 308.082 45.124 308.082 45.3676C308.082 45.6111 308.178 45.8448 308.351 46.0171L310.555 48.2211C310.734 48.4004 310.969 48.4901 311.204 48.4901C311.439 48.4901 311.674 48.4004 311.854 48.221L314.058 46.017C314.416 45.6582 314.416 45.0768 314.058 44.7183ZM311.204 46.273L310.299 45.3676L311.204 44.4622L312.11 45.3676L311.204 46.273Z" fill="#735F3D"/>
<path d="M69.7762 99.096C68.9335 99.096 68.1549 98.9573 67.4402 98.68C66.7255 98.392 66.1069 97.992 65.5842 97.48C65.0615 96.968 64.6509 96.3653 64.3522 95.672C64.0642 94.9787 63.9202 94.2213 63.9202 93.4C63.9202 92.5787 64.0642 91.8213 64.3522 91.128C64.6509 90.4347 65.0615 89.832 65.5842 89.32C66.1175 88.808 66.7415 88.4133 67.4562 88.136C68.1709 87.848 68.9495 87.704 69.7922 87.704C70.6029 87.704 71.3655 87.8427 72.0802 88.12C72.7949 88.3867 73.3975 88.792 73.8882 89.336L73.1362 90.088C72.6775 89.6187 72.1709 89.2827 71.6162 89.08C71.0615 88.8667 70.4642 88.76 69.8242 88.76C69.1522 88.76 68.5282 88.8773 67.9522 89.112C67.3762 89.336 66.8749 89.6613 66.4482 90.088C66.0215 90.504 65.6855 90.9947 65.4402 91.56C65.2055 92.1147 65.0882 92.728 65.0882 93.4C65.0882 94.072 65.2055 94.6907 65.4402 95.256C65.6855 95.8107 66.0215 96.3013 66.4482 96.728C66.8749 97.144 67.3762 97.4693 67.9522 97.704C68.5282 97.928 69.1522 98.04 69.8242 98.04C70.4642 98.04 71.0615 97.9333 71.6162 97.72C72.1709 97.5067 72.6775 97.1653 73.1362 96.696L73.8882 97.448C73.3975 97.992 72.7949 98.4027 72.0802 98.68C71.3655 98.9573 70.5975 99.096 69.7762 99.096ZM79.1423 99.08C78.3316 99.08 77.601 98.8987 76.9503 98.536C76.3103 98.1627 75.8036 97.656 75.4303 97.016C75.057 96.3653 74.8703 95.624 74.8703 94.792C74.8703 93.9493 75.057 93.208 75.4303 92.568C75.8036 91.928 76.3103 91.4267 76.9503 91.064C77.5903 90.7013 78.321 90.52 79.1423 90.52C79.9743 90.52 80.7103 90.7013 81.3503 91.064C82.001 91.4267 82.5076 91.928 82.8703 92.568C83.2436 93.208 83.4303 93.9493 83.4303 94.792C83.4303 95.624 83.2436 96.3653 82.8703 97.016C82.5076 97.656 82.001 98.1627 81.3503 98.536C80.6996 98.8987 79.9636 99.08 79.1423 99.08ZM79.1423 98.072C79.7503 98.072 80.289 97.9387 80.7583 97.672C81.2276 97.3947 81.5956 97.0107 81.8623 96.52C82.1396 96.0187 82.2783 95.4427 82.2783 94.792C82.2783 94.1307 82.1396 93.5547 81.8623 93.064C81.5956 92.5733 81.2276 92.1947 80.7583 91.928C80.289 91.6507 79.7556 91.512 79.1583 91.512C78.561 91.512 78.0276 91.6507 77.5583 91.928C77.089 92.1947 76.7156 92.5733 76.4383 93.064C76.161 93.5547 76.0223 94.1307 76.0223 94.792C76.0223 95.4427 76.161 96.0187 76.4383 96.52C76.7156 97.0107 77.089 97.3947 77.5583 97.672C78.0276 97.9387 78.5556 98.072 79.1423 98.072ZM87.1457 99V91.288L87.4337 91.592H83.9617V90.6H91.4657V91.592H87.9937L88.2817 91.288V99H87.1457ZM93.1082 99V90.6H94.2442V94.312H99.5402V90.6H100.676V99H99.5402V95.288H94.2442V99H93.1082ZM103.905 99V90.6H105.041V99H103.905ZM104.481 88.744C104.246 88.744 104.049 88.664 103.889 88.504C103.729 88.344 103.649 88.152 103.649 87.928C103.649 87.704 103.729 87.5173 103.889 87.368C104.049 87.208 104.246 87.128 104.481 87.128C104.716 87.128 104.913 87.2027 105.073 87.352C105.233 87.5013 105.313 87.688 105.313 87.912C105.313 88.1467 105.233 88.344 105.073 88.504C104.924 88.664 104.726 88.744 104.481 88.744ZM114.724 99.096C115.417 99.096 116.041 98.9893 116.596 98.776C117.161 98.5627 117.609 98.2693 117.94 97.896C118.27 97.512 118.436 97.0693 118.436 96.568C118.436 95.928 118.164 95.4213 117.62 95.048C117.086 94.6747 116.34 94.488 115.38 94.488L115.332 94.792C115.876 94.792 116.361 94.7067 116.788 94.536C117.214 94.3653 117.556 94.1253 117.812 93.816C118.068 93.5067 118.196 93.144 118.196 92.728C118.196 92.2587 118.036 91.8587 117.716 91.528C117.396 91.1867 116.964 90.9253 116.42 90.744C115.886 90.5627 115.284 90.4827 114.612 90.504C114.121 90.504 113.63 90.5733 113.14 90.712C112.66 90.84 112.174 91.032 111.684 91.288L112.004 92.168C112.441 91.944 112.884 91.7787 113.332 91.672C113.78 91.5547 114.212 91.4907 114.628 91.48C115.086 91.48 115.497 91.5333 115.86 91.64C116.222 91.7467 116.505 91.9067 116.708 92.12C116.921 92.3333 117.028 92.5893 117.028 92.888C117.028 93.1653 116.937 93.4053 116.756 93.608C116.585 93.8107 116.34 93.9653 116.02 94.072C115.7 94.1787 115.332 94.232 114.916 94.232H113.556V95.064H114.996C115.7 95.064 116.254 95.192 116.66 95.448C117.065 95.6933 117.268 96.04 117.268 96.488C117.268 96.7973 117.161 97.0747 116.948 97.32C116.734 97.5653 116.436 97.7573 116.052 97.896C115.668 98.0347 115.214 98.1093 114.692 98.12C114.169 98.12 113.641 98.0453 113.108 97.896C112.574 97.736 112.105 97.5067 111.7 97.208L111.332 98.056C111.79 98.408 112.318 98.6693 112.916 98.84C113.513 99.0107 114.116 99.096 114.724 99.096ZM126.23 99V97.144L126.182 96.84V93.736C126.182 93.0213 125.98 92.472 125.574 92.088C125.18 91.704 124.588 91.512 123.798 91.512C123.254 91.512 122.737 91.6027 122.246 91.784C121.756 91.9653 121.34 92.2053 120.998 92.504L120.486 91.656C120.913 91.2933 121.425 91.016 122.022 90.824C122.62 90.6213 123.249 90.52 123.91 90.52C124.998 90.52 125.836 90.792 126.422 91.336C127.02 91.8693 127.318 92.6853 127.318 93.784V99H126.23ZM123.334 99.08C122.705 99.08 122.156 98.9787 121.686 98.776C121.228 98.5627 120.876 98.2747 120.63 97.912C120.385 97.5387 120.262 97.112 120.262 96.632C120.262 96.1947 120.364 95.8 120.566 95.448C120.78 95.0853 121.121 94.7973 121.59 94.584C122.07 94.36 122.71 94.248 123.51 94.248H126.406V95.096H123.542C122.732 95.096 122.166 95.24 121.846 95.528C121.537 95.816 121.382 96.1733 121.382 96.6C121.382 97.08 121.569 97.464 121.942 97.752C122.316 98.04 122.838 98.184 123.51 98.184C124.15 98.184 124.7 98.04 125.158 97.752C125.628 97.4533 125.969 97.0267 126.182 96.472L126.438 97.256C126.225 97.8107 125.852 98.2533 125.318 98.584C124.796 98.9147 124.134 99.08 123.334 99.08ZM136.103 98.456V91.592H132.055L131.959 93.464C131.937 94.0293 131.9 94.584 131.847 95.128C131.804 95.672 131.724 96.1733 131.607 96.632C131.5 97.08 131.345 97.448 131.143 97.736C130.94 98.0133 130.679 98.1733 130.359 98.216L129.223 98.008C129.553 98.0187 129.825 97.9013 130.039 97.656C130.252 97.4 130.417 97.0533 130.535 96.616C130.652 96.1787 130.737 95.6827 130.791 95.128C130.844 94.5627 130.887 93.9867 130.919 93.4L131.031 90.6H137.239V98.456H136.103ZM128.871 101.032V98.008H138.551V101.032H137.479V99H129.943V101.032H128.871ZM144.22 99.08C143.41 99.08 142.679 98.8987 142.028 98.536C141.388 98.1627 140.882 97.656 140.508 97.016C140.135 96.3653 139.948 95.624 139.948 94.792C139.948 93.9493 140.135 93.208 140.508 92.568C140.882 91.928 141.388 91.4267 142.028 91.064C142.668 90.7013 143.399 90.52 144.22 90.52C145.052 90.52 145.788 90.7013 146.428 91.064C147.079 91.4267 147.586 91.928 147.948 92.568C148.322 93.208 148.508 93.9493 148.508 94.792C148.508 95.624 148.322 96.3653 147.948 97.016C147.586 97.656 147.079 98.1627 146.428 98.536C145.778 98.8987 145.042 99.08 144.22 99.08ZM144.22 98.072C144.828 98.072 145.367 97.9387 145.836 97.672C146.306 97.3947 146.674 97.0107 146.94 96.52C147.218 96.0187 147.356 95.4427 147.356 94.792C147.356 94.1307 147.218 93.5547 146.94 93.064C146.674 92.5733 146.306 92.1947 145.836 91.928C145.367 91.6507 144.834 91.512 144.236 91.512C143.639 91.512 143.106 91.6507 142.636 91.928C142.167 92.1947 141.794 92.5733 141.516 93.064C141.239 93.5547 141.1 94.1307 141.1 94.792C141.1 95.4427 141.239 96.0187 141.516 96.52C141.794 97.0107 142.167 97.3947 142.636 97.672C143.106 97.9387 143.634 98.072 144.22 98.072ZM150.936 99V90.6H154.648C155.598 90.6 156.344 90.7813 156.888 91.144C157.443 91.5067 157.72 92.04 157.72 92.744C157.72 93.4267 157.459 93.9547 156.936 94.328C156.414 94.6907 155.726 94.872 154.872 94.872L155.096 94.536C156.099 94.536 156.835 94.7227 157.304 95.096C157.774 95.4693 158.008 96.008 158.008 96.712C158.008 97.4373 157.742 98.0027 157.208 98.408C156.686 98.8027 155.87 99 154.76 99H150.936ZM152.04 98.104H154.712C155.427 98.104 155.966 97.992 156.328 97.768C156.702 97.5333 156.888 97.16 156.888 96.648C156.888 96.136 156.723 95.7627 156.392 95.528C156.062 95.2933 155.539 95.176 154.824 95.176H152.04V98.104ZM152.04 94.328H154.568C155.219 94.328 155.715 94.2053 156.056 93.96C156.408 93.7147 156.584 93.3573 156.584 92.888C156.584 92.4187 156.408 92.0667 156.056 91.832C155.715 91.5973 155.219 91.48 154.568 91.48H152.04V94.328ZM164.127 99.08C163.316 99.08 162.585 98.8987 161.935 98.536C161.295 98.1627 160.788 97.656 160.415 97.016C160.041 96.3653 159.855 95.624 159.855 94.792C159.855 93.9493 160.041 93.208 160.415 92.568C160.788 91.928 161.295 91.4267 161.935 91.064C162.575 90.7013 163.305 90.52 164.127 90.52C164.959 90.52 165.695 90.7013 166.335 91.064C166.985 91.4267 167.492 91.928 167.855 92.568C168.228 93.208 168.415 93.9493 168.415 94.792C168.415 95.624 168.228 96.3653 167.855 97.016C167.492 97.656 166.985 98.1627 166.335 98.536C165.684 98.8987 164.948 99.08 164.127 99.08ZM164.127 98.072C164.735 98.072 165.273 97.9387 165.743 97.672C166.212 97.3947 166.58 97.0107 166.847 96.52C167.124 96.0187 167.263 95.4427 167.263 94.792C167.263 94.1307 167.124 93.5547 166.847 93.064C166.58 92.5733 166.212 92.1947 165.743 91.928C165.273 91.6507 164.74 91.512 164.143 91.512C163.545 91.512 163.012 91.6507 162.543 91.928C162.073 92.1947 161.7 92.5733 161.423 93.064C161.145 93.5547 161.007 94.1307 161.007 94.792C161.007 95.4427 161.145 96.0187 161.423 96.52C161.7 97.0107 162.073 97.3947 162.543 97.672C163.012 97.9387 163.54 98.072 164.127 98.072ZM169.26 98.984L169.34 98.008C169.414 98.0187 169.484 98.0347 169.548 98.056C169.622 98.0667 169.686 98.072 169.74 98.072C170.081 98.072 170.353 97.944 170.556 97.688C170.769 97.432 170.929 97.0907 171.036 96.664C171.142 96.2373 171.217 95.7573 171.26 95.224C171.302 94.68 171.34 94.136 171.372 93.592L171.516 90.6H177.676V99H176.54V91.256L176.828 91.592H172.252L172.524 91.24L172.396 93.672C172.364 94.3973 172.305 95.0907 172.22 95.752C172.145 96.4133 172.022 96.9947 171.852 97.496C171.692 97.9973 171.468 98.392 171.18 98.68C170.892 98.9573 170.524 99.096 170.076 99.096C169.948 99.096 169.814 99.0853 169.676 99.064C169.548 99.0427 169.409 99.016 169.26 98.984ZM184.505 99.08C183.63 99.08 182.862 98.8987 182.201 98.536C181.54 98.1627 181.022 97.656 180.649 97.016C180.276 96.3653 180.089 95.624 180.089 94.792C180.089 93.96 180.265 93.224 180.617 92.584C180.98 91.944 181.47 91.4427 182.089 91.08C182.718 90.7067 183.422 90.52 184.201 90.52C184.99 90.52 185.689 90.7013 186.297 91.064C186.916 91.416 187.401 91.9173 187.753 92.568C188.105 93.208 188.281 93.9493 188.281 94.792C188.281 94.8453 188.276 94.904 188.265 94.968C188.265 95.0213 188.265 95.08 188.265 95.144H180.953V94.296H187.657L187.209 94.632C187.209 94.024 187.076 93.4853 186.809 93.016C186.553 92.536 186.201 92.1627 185.753 91.896C185.305 91.6293 184.788 91.496 184.201 91.496C183.625 91.496 183.108 91.6293 182.649 91.896C182.19 92.1627 181.833 92.536 181.577 93.016C181.321 93.496 181.193 94.0453 181.193 94.664V94.84C181.193 95.48 181.332 96.0453 181.609 96.536C181.897 97.016 182.292 97.3947 182.793 97.672C183.305 97.9387 183.886 98.072 184.537 98.072C185.049 98.072 185.524 97.9813 185.961 97.8C186.409 97.6187 186.793 97.3413 187.113 96.968L187.753 97.704C187.38 98.152 186.91 98.4933 186.345 98.728C185.79 98.9627 185.177 99.08 184.505 99.08ZM190.796 99V90.6H191.932V94.312H197.228V90.6H198.364V99H197.228V95.288H191.932V99H190.796ZM201.593 99V90.6H202.729V97.272L208.345 90.6H209.353V99H208.217V92.312L202.617 99H201.593ZM211.232 99L214.784 94.392L214.768 94.952L211.392 90.6H212.672L215.44 94.2L214.96 94.184L217.728 90.6H218.976L215.568 95L215.584 94.392L219.168 99H217.872L214.944 95.16L215.392 95.224L212.512 99H211.232ZM231.378 99L227.922 94.84L228.866 94.28L232.722 99H231.378ZM225.218 99V90.6H226.354V99H225.218ZM226.002 95.256V94.28H228.706V95.256H226.002ZM228.962 94.92L227.906 94.76L231.25 90.6H232.482L228.962 94.92ZM232.978 98.984L233.058 98.008C233.133 98.0187 233.202 98.0347 233.266 98.056C233.341 98.0667 233.405 98.072 233.458 98.072C233.8 98.072 234.072 97.944 234.274 97.688C234.488 97.432 234.648 97.0907 234.754 96.664C234.861 96.2373 234.936 95.7573 234.978 95.224C235.021 94.68 235.058 94.136 235.09 93.592L235.234 90.6H241.394V99H240.258V91.256L240.546 91.592H235.97L236.242 91.24L236.114 93.672C236.082 94.3973 236.024 95.0907 235.938 95.752C235.864 96.4133 235.741 96.9947 235.57 97.496C235.41 97.9973 235.186 98.392 234.898 98.68C234.61 98.9573 234.242 99.096 233.794 99.096C233.666 99.096 233.533 99.0853 233.394 99.064C233.266 99.0427 233.128 99.016 232.978 98.984ZM244.624 99V90.6H245.76V99H244.624ZM245.2 88.744C244.965 88.744 244.768 88.664 244.608 88.504C244.448 88.344 244.368 88.152 244.368 87.928C244.368 87.704 244.448 87.5173 244.608 87.368C244.768 87.208 244.965 87.128 245.2 87.128C245.434 87.128 245.632 87.2027 245.792 87.352C245.952 87.5013 246.032 87.688 246.032 87.912C246.032 88.1467 245.952 88.344 245.792 88.504C245.642 88.664 245.445 88.744 245.2 88.744ZM253.751 94.44V95.288H248.871V94.44H253.751ZM252.631 99.08C251.777 99.08 251.015 98.8987 250.343 98.536C249.671 98.1627 249.137 97.6507 248.743 97C248.359 96.3493 248.167 95.6133 248.167 94.792C248.167 93.96 248.359 93.224 248.743 92.584C249.137 91.9333 249.671 91.4267 250.343 91.064C251.015 90.6907 251.777 90.504 252.631 90.504C253.324 90.504 253.964 90.6107 254.551 90.824C255.137 91.0373 255.633 91.3573 256.039 91.784L255.383 92.44C255.009 92.0987 254.593 91.848 254.135 91.688C253.687 91.528 253.196 91.448 252.663 91.448C252.012 91.448 251.425 91.592 250.903 91.88C250.391 92.168 249.98 92.568 249.671 93.08C249.372 93.5813 249.223 94.152 249.223 94.792C249.223 95.4427 249.372 96.0187 249.671 96.52C249.98 97.0213 250.391 97.4213 250.903 97.72C251.425 98.008 252.012 98.152 252.663 98.152C253.196 98.152 253.687 98.072 254.135 97.912C254.593 97.7413 255.009 97.48 255.383 97.128L256.039 97.784C255.633 98.2107 255.137 98.536 254.551 98.76C253.964 98.9733 253.324 99.08 252.631 99.08ZM258.155 99V90.6H259.291V94.312H264.587V90.6H265.723V99H264.587V95.288H259.291V99H258.155ZM270.552 99V91.288L270.84 91.592H267.368V90.6H274.872V91.592H271.4L271.688 91.288V99H270.552ZM276.514 99V90.6H277.65V99H276.514ZM277.09 88.744C276.856 88.744 276.658 88.664 276.498 88.504C276.338 88.344 276.258 88.152 276.258 87.928C276.258 87.704 276.338 87.5173 276.498 87.368C276.658 87.208 276.856 87.128 277.09 87.128C277.325 87.128 277.522 87.2027 277.682 87.352C277.842 87.5013 277.922 87.688 277.922 87.912C277.922 88.1467 277.842 88.344 277.682 88.504C277.533 88.664 277.336 88.744 277.09 88.744ZM280.889 99V90.6H284.601C285.551 90.6 286.297 90.7813 286.841 91.144C287.396 91.5067 287.673 92.04 287.673 92.744C287.673 93.4267 287.412 93.9547 286.889 94.328C286.367 94.6907 285.679 94.872 284.825 94.872L285.049 94.536C286.052 94.536 286.788 94.7227 287.257 95.096C287.727 95.4693 287.961 96.008 287.961 96.712C287.961 97.4373 287.695 98.0027 287.161 98.408C286.639 98.8027 285.823 99 284.713 99H280.889ZM281.993 98.104H284.665C285.38 98.104 285.919 97.992 286.281 97.768C286.655 97.5333 286.841 97.16 286.841 96.648C286.841 96.136 286.676 95.7627 286.345 95.528C286.015 95.2933 285.492 95.176 284.777 95.176H281.993V98.104ZM281.993 94.328H284.521C285.172 94.328 285.668 94.2053 286.009 93.96C286.361 93.7147 286.537 93.3573 286.537 92.888C286.537 92.4187 286.361 92.0667 286.009 91.832C285.668 91.5973 285.172 91.48 284.521 91.48H281.993V94.328ZM136.45 119V111.288L136.738 111.592H133.266V110.6H140.77V111.592H137.298L137.586 111.288V119H136.45ZM147.629 119V117.144L147.581 116.84V113.736C147.581 113.021 147.378 112.472 146.973 112.088C146.578 111.704 145.986 111.512 145.197 111.512C144.653 111.512 144.136 111.603 143.645 111.784C143.154 111.965 142.738 112.205 142.397 112.504L141.885 111.656C142.312 111.293 142.824 111.016 143.421 110.824C144.018 110.621 144.648 110.52 145.309 110.52C146.397 110.52 147.234 110.792 147.821 111.336C148.418 111.869 148.717 112.685 148.717 113.784V119H147.629ZM144.733 119.08C144.104 119.08 143.554 118.979 143.085 118.776C142.626 118.563 142.274 118.275 142.029 117.912C141.784 117.539 141.661 117.112 141.661 116.632C141.661 116.195 141.762 115.8 141.965 115.448C142.178 115.085 142.52 114.797 142.989 114.584C143.469 114.36 144.109 114.248 144.909 114.248H147.805V115.096H144.941C144.13 115.096 143.565 115.24 143.245 115.528C142.936 115.816 142.781 116.173 142.781 116.6C142.781 117.08 142.968 117.464 143.341 117.752C143.714 118.04 144.237 118.184 144.909 118.184C145.549 118.184 146.098 118.04 146.557 117.752C147.026 117.453 147.368 117.027 147.581 116.472L147.837 117.256C147.624 117.811 147.25 118.253 146.717 118.584C146.194 118.915 145.533 119.08 144.733 119.08ZM155.929 119V110.6H159.641C160.59 110.6 161.337 110.781 161.881 111.144C162.435 111.507 162.713 112.04 162.713 112.744C162.713 113.427 162.451 113.955 161.929 114.328C161.406 114.691 160.718 114.872 159.865 114.872L160.089 114.536C161.091 114.536 161.827 114.723 162.297 115.096C162.766 115.469 163.001 116.008 163.001 116.712C163.001 117.437 162.734 118.003 162.201 118.408C161.678 118.803 160.862 119 159.753 119H155.929ZM157.033 118.104H159.705C160.419 118.104 160.958 117.992 161.321 117.768C161.694 117.533 161.881 117.16 161.881 116.648C161.881 116.136 161.715 115.763 161.385 115.528C161.054 115.293 160.531 115.176 159.817 115.176H157.033V118.104ZM157.033 114.328H159.561C160.211 114.328 160.707 114.205 161.049 113.96C161.401 113.715 161.577 113.357 161.577 112.888C161.577 112.419 161.401 112.067 161.049 111.832C160.707 111.597 160.211 111.48 159.561 111.48H157.033V114.328ZM165.663 119V110.6H166.799V119H165.663ZM166.239 108.744C166.004 108.744 165.807 108.664 165.647 108.504C165.487 108.344 165.407 108.152 165.407 107.928C165.407 107.704 165.487 107.517 165.647 107.368C165.807 107.208 166.004 107.128 166.239 107.128C166.474 107.128 166.671 107.203 166.831 107.352C166.991 107.501 167.071 107.688 167.071 107.912C167.071 108.147 166.991 108.344 166.831 108.504C166.682 108.664 166.484 108.744 166.239 108.744ZM175.798 118.456V111.592H171.75L171.654 113.464C171.633 114.029 171.595 114.584 171.542 115.128C171.499 115.672 171.419 116.173 171.302 116.632C171.195 117.08 171.041 117.448 170.838 117.736C170.635 118.013 170.374 118.173 170.054 118.216L168.918 118.008C169.249 118.019 169.521 117.901 169.734 117.656C169.947 117.4 170.113 117.053 170.23 116.616C170.347 116.179 170.433 115.683 170.486 115.128C170.539 114.563 170.582 113.987 170.614 113.4L170.726 110.6H176.934V118.456H175.798ZM168.566 121.032V118.008H178.246V121.032H177.174V119H169.638V121.032H168.566ZM180.46 119V110.6H186.412V111.592H181.308L181.596 111.304V119H180.46ZM188.198 122.184C187.803 122.184 187.424 122.12 187.062 121.992C186.71 121.864 186.405 121.672 186.149 121.416L186.678 120.568C186.891 120.771 187.12 120.925 187.366 121.032C187.622 121.149 187.904 121.208 188.214 121.208C188.587 121.208 188.907 121.101 189.174 120.888C189.451 120.685 189.712 120.323 189.958 119.8L190.502 118.568L190.63 118.392L194.086 110.6H195.206L190.998 120.008C190.763 120.552 190.502 120.984 190.214 121.304C189.936 121.624 189.632 121.848 189.302 121.976C188.971 122.115 188.603 122.184 188.198 122.184ZM190.438 119.24L186.566 110.6H187.75L191.174 118.312L190.438 119.24ZM203.135 119L199.679 114.84L200.623 114.28L204.479 119H203.135ZM196.975 119V110.6H198.111V119H196.975ZM197.759 115.256V114.28H200.463V115.256H197.759ZM200.719 114.92L199.663 114.76L203.007 110.6H204.239L200.719 114.92ZM206.272 119V110.6H207.408V119H206.272ZM206.848 108.744C206.614 108.744 206.416 108.664 206.256 108.504C206.096 108.344 206.016 108.152 206.016 107.928C206.016 107.704 206.096 107.517 206.256 107.368C206.416 107.208 206.614 107.128 206.848 107.128C207.083 107.128 207.28 107.203 207.44 107.352C207.6 107.501 207.68 107.688 207.68 107.912C207.68 108.147 207.6 108.344 207.44 108.504C207.291 108.664 207.094 108.744 206.848 108.744ZM210.647 119V110.6H214.359C215.309 110.6 216.055 110.781 216.599 111.144C217.154 111.507 217.431 112.04 217.431 112.744C217.431 113.427 217.17 113.955 216.647 114.328C216.125 114.691 215.437 114.872 214.583 114.872L214.807 114.536C215.81 114.536 216.546 114.723 217.015 115.096C217.485 115.469 217.719 116.008 217.719 116.712C217.719 117.437 217.453 118.003 216.919 118.408C216.397 118.803 215.581 119 214.471 119H210.647ZM211.751 118.104H214.423C215.138 118.104 215.677 117.992 216.039 117.768C216.413 117.533 216.599 117.16 216.599 116.648C216.599 116.136 216.434 115.763 216.103 115.528C215.773 115.293 215.25 115.176 214.535 115.176H211.751V118.104ZM211.751 114.328H214.279C214.93 114.328 215.426 114.205 215.767 113.96C216.119 113.715 216.295 113.357 216.295 112.888C216.295 112.419 216.119 112.067 215.767 111.832C215.426 111.597 214.93 111.48 214.279 111.48H211.751V114.328Z" fill="#735F3D"/>
<path d="M60.5884 56L51.9804 44.832L53.9004 43.68L63.3084 56H60.5884ZM45.2604 56V33.6H47.5644V56H45.2604ZM46.8604 45.728V43.648H53.8684V45.728H46.8604ZM54.0924 45.056L51.9164 44.672L60.2684 33.6H62.8284L54.0924 45.056ZM63.6444 55.968L63.8044 54.016C63.9537 54.0373 64.0924 54.0693 64.2204 54.112C64.3697 54.1333 64.4977 54.144 64.6044 54.144C65.287 54.144 65.831 53.888 66.2364 53.376C66.663 52.864 66.983 52.1813 67.1964 51.328C67.4097 50.4747 67.559 49.5147 67.6444 48.448C67.7297 47.36 67.8044 46.272 67.8684 45.184L68.1564 39.2H80.4764V56H78.2044V40.512L78.7804 41.184H69.6284L70.1724 40.48L69.9164 45.344C69.8524 46.7947 69.735 48.1813 69.5644 49.504C69.415 50.8267 69.1697 51.9893 68.8284 52.992C68.5084 53.9947 68.0604 54.784 67.4844 55.36C66.9084 55.9147 66.1724 56.192 65.2764 56.192C65.0204 56.192 64.7537 56.1707 64.4764 56.128C64.2204 56.0853 63.943 56.032 63.6444 55.968ZM86.9351 56V39.2H89.2071V56H86.9351ZM88.0871 35.488C87.6178 35.488 87.2231 35.328 86.9031 35.008C86.5831 34.688 86.4231 34.304 86.4231 33.856C86.4231 33.408 86.5831 33.0347 86.9031 32.736C87.2231 32.416 87.6178 32.256 88.0871 32.256C88.5565 32.256 88.9511 32.4053 89.2711 32.704C89.5911 33.0027 89.7511 33.376 89.7511 33.824C89.7511 34.2933 89.5911 34.688 89.2711 35.008C88.9725 35.328 88.5778 35.488 88.0871 35.488ZM105.189 46.88V48.576H95.4291V46.88H105.189ZM102.949 56.16C101.242 56.16 99.7171 55.7973 98.3731 55.072C97.0291 54.3253 95.9625 53.3013 95.1731 52C94.4051 50.6987 94.0211 49.2267 94.0211 47.584C94.0211 45.92 94.4051 44.448 95.1731 43.168C95.9625 41.8667 97.0291 40.8533 98.3731 40.128C99.7171 39.3813 101.242 39.008 102.949 39.008C104.336 39.008 105.616 39.2213 106.789 39.648C107.962 40.0747 108.954 40.7147 109.765 41.568L108.453 42.88C107.706 42.1973 106.874 41.696 105.957 41.376C105.061 41.056 104.08 40.896 103.013 40.896C101.712 40.896 100.538 41.184 99.4931 41.76C98.4691 42.336 97.6478 43.136 97.0291 44.16C96.4318 45.1627 96.1331 46.304 96.1331 47.584C96.1331 48.8853 96.4318 50.0373 97.0291 51.04C97.6478 52.0427 98.4691 52.8427 99.4931 53.44C100.538 54.016 101.712 54.304 103.013 54.304C104.08 54.304 105.061 54.144 105.957 53.824C106.874 53.4827 107.706 52.96 108.453 52.256L109.765 53.568C108.954 54.4213 107.962 55.072 106.789 55.52C105.616 55.9467 104.336 56.16 102.949 56.16ZM113.998 56V39.2H116.27V46.624H126.862V39.2H129.134V56H126.862V48.576H116.27V56H113.998ZM138.791 56V40.576L139.367 41.184H132.423V39.2H147.431V41.184H140.487L141.063 40.576V56H138.791ZM150.716 56V39.2H152.988V52.544L164.22 39.2H166.236V56H163.964V42.624L152.764 56H150.716Z" fill="#735F3D"/>
</svg>
