<svg width="23" height="23" viewBox="0 0 23 23" fill="none" xmlns="http://www.w3.org/2000/svg">
<path fill-rule="evenodd" clip-rule="evenodd" d="M-6.10352e-05 11.5C-6.10352e-05 6.90619 -6.0959e-05 4.6093 1.0946 2.95492C1.58343 2.21616 2.2161 1.58348 2.95486 1.09466C4.60925 7.61613e-08 6.90615 0 11.4999 0C16.0937 0 18.3906 7.61613e-08 20.045 1.09466C20.7838 1.58348 21.4165 2.21616 21.9053 2.95492C22.9999 4.6093 22.9999 6.90619 22.9999 11.5C22.9999 16.0938 22.9999 18.3907 21.9053 20.045C21.4165 20.7838 20.7838 21.4165 20.045 21.9053C18.3906 23 16.0937 23 11.4999 23C6.90615 23 4.60925 23 2.95486 21.9053C2.2161 21.4165 1.58343 20.7838 1.0946 20.045C-6.0959e-05 18.3907 -6.10352e-05 16.0938 -6.10352e-05 11.5ZM17.4539 11.5003C17.4539 14.7885 14.7883 17.4539 11.5002 17.4539C8.21206 17.4539 5.5465 14.7885 5.5465 11.5003C5.5465 8.21222 8.21206 5.54666 11.5002 5.54666C14.7883 5.54666 17.4539 8.21222 17.4539 11.5003ZM11.5002 15.4397C13.6759 15.4397 15.4396 13.676 15.4396 11.5003C15.4396 9.32467 13.6759 7.56096 11.5002 7.56096C9.32454 7.56096 7.56081 9.32467 7.56081 11.5003C7.56081 13.676 9.32454 15.4397 11.5002 15.4397ZM17.689 6.64648C18.4617 6.64648 19.088 6.02016 19.088 5.24755C19.088 4.47493 18.4617 3.8486 17.689 3.8486C16.9164 3.8486 16.2901 4.47493 16.2901 5.24755C16.2901 6.02016 16.9164 6.64648 17.689 6.64648Z" fill="#735F3D"/>
</svg>
