<svg width="18" height="18" viewBox="0 0 18 18" fill="none" xmlns="http://www.w3.org/2000/svg">
<path fill-rule="evenodd" clip-rule="evenodd" d="M0 8.62502C0 5.17964 5.71211e-08 3.45698 0.820995 2.21619C1.18761 1.66212 1.66212 1.18761 2.21619 0.820992C3.45699 5.7121e-08 5.17966 0 8.625 0C12.0703 0 13.793 5.7121e-08 15.0338 0.820992C15.5879 1.18761 16.0624 1.66212 16.429 2.21619C17.25 3.45698 17.25 5.17964 17.25 8.62502C17.25 12.0703 17.25 13.793 16.429 15.0338C16.0624 15.5879 15.5879 16.0623 15.0338 16.429C13.793 17.25 12.0703 17.25 8.625 17.25C5.17966 17.25 3.45699 17.25 2.21619 16.429C1.66212 16.0623 1.18761 15.5879 0.820995 15.0338C5.71211e-08 13.793 0 12.0703 0 8.62502ZM13.0905 8.62522C13.0905 11.0914 11.0913 13.0905 8.62519 13.0905C6.15909 13.0905 4.15992 11.0914 4.15992 8.62522C4.15992 6.15916 6.15909 4.16 8.62519 4.16C11.0913 4.16 13.0905 6.15916 13.0905 8.62522ZM8.62519 11.5797C10.2569 11.5797 11.5797 10.257 11.5797 8.62522C11.5797 6.99351 10.2569 5.67072 8.62519 5.67072C6.99345 5.67072 5.67065 6.99351 5.67065 8.62522C5.67065 10.257 6.99345 11.5797 8.62519 11.5797ZM13.2668 4.98486C13.8463 4.98486 14.3161 4.51512 14.3161 3.93566C14.3161 3.3562 13.8463 2.88645 13.2668 2.88645C12.6874 2.88645 12.2176 3.3562 12.2176 3.93566C12.2176 4.51512 12.6874 4.98486 13.2668 4.98486Z" fill="black"/>
</svg>
