<svg width="130" height="72" viewBox="0 0 130 72" fill="none" xmlns="http://www.w3.org/2000/svg">
<g clip-path="url(#clip0_11_26)">
<path d="M24.1301 15.1594V18.5806H22.8032V5.57419H24.1301V13.427L31.4997 5.57419H33.0239L27.5971 11.4705L33.4004 18.5806H31.8225L26.6991 12.463L24.1301 15.1594Z" fill="black"/>
<path d="M24.1301 15.1594V18.5806H22.8032V5.57419H24.1301V13.427L31.4997 5.57419H33.0239L27.5971 11.4705L33.4004 18.5806H31.8225L26.6991 12.463L24.1301 15.1594Z" fill="black"/>
<path fill-rule="evenodd" clip-rule="evenodd" d="M40.9362 17.0491V18.5806H42.1555V12.5234C42.1555 11.2475 41.8208 10.2999 41.1514 9.68053C40.4939 9.04878 39.5555 8.73291 38.3362 8.73291C37.5951 8.73291 36.8898 8.85059 36.2203 9.08594C35.5509 9.30891 34.9771 9.63098 34.499 10.0521L35.0728 11.0369C35.4553 10.6901 35.9215 10.4114 36.4714 10.2008C37.0213 9.9902 37.601 9.88491 38.2107 9.88491C39.0953 9.88491 39.7587 10.1079 40.201 10.5538C40.6553 10.9997 40.8824 11.6377 40.8824 12.4676V13.0622H37.8879C36.9914 13.0622 36.2741 13.1923 35.7362 13.4524C35.2102 13.7001 34.8277 14.0346 34.5886 14.4557C34.3615 14.8645 34.2479 15.3228 34.2479 15.8307C34.2479 16.3881 34.3854 16.8836 34.6603 17.3172C34.9353 17.7383 35.3298 18.0728 35.8438 18.3205C36.3698 18.5559 36.9854 18.6735 37.6907 18.6735C38.5872 18.6735 39.3284 18.4815 39.9141 18.0975C40.3503 17.8173 40.691 17.4678 40.9362 17.0491ZM40.8824 15.6449V14.047H37.9238C37.0153 14.047 36.3817 14.2142 36.0231 14.5486C35.6764 14.8831 35.5031 15.2981 35.5031 15.7935C35.5031 16.351 35.7123 16.7969 36.1307 17.1314C36.5491 17.4658 37.1348 17.633 37.8879 17.633C38.6052 17.633 39.2208 17.4658 39.7348 17.1314C40.2608 16.7845 40.6433 16.289 40.8824 15.6449Z" fill="black"/>
<path fill-rule="evenodd" clip-rule="evenodd" d="M40.9362 17.0491V18.5806H42.1555V12.5234C42.1555 11.2475 41.8208 10.2999 41.1514 9.68053C40.4939 9.04878 39.5555 8.73291 38.3362 8.73291C37.5951 8.73291 36.8898 8.85059 36.2203 9.08594C35.5509 9.30891 34.9771 9.63098 34.499 10.0521L35.0728 11.0369C35.4553 10.6901 35.9215 10.4114 36.4714 10.2008C37.0213 9.9902 37.601 9.88491 38.2107 9.88491C39.0953 9.88491 39.7587 10.1079 40.201 10.5538C40.6553 10.9997 40.8824 11.6377 40.8824 12.4676V13.0622H37.8879C36.9914 13.0622 36.2741 13.1923 35.7362 13.4524C35.2102 13.7001 34.8277 14.0346 34.5886 14.4557C34.3615 14.8645 34.2479 15.3228 34.2479 15.8307C34.2479 16.3881 34.3854 16.8836 34.6603 17.3172C34.9353 17.7383 35.3298 18.0728 35.8438 18.3205C36.3698 18.5559 36.9854 18.6735 37.6907 18.6735C38.5872 18.6735 39.3284 18.4815 39.9141 18.0975C40.3503 17.8173 40.691 17.4678 40.9362 17.0491ZM40.8824 15.6449V14.047H37.9238C37.0153 14.047 36.3817 14.2142 36.0231 14.5486C35.6764 14.8831 35.5031 15.2981 35.5031 15.7935C35.5031 16.351 35.7123 16.7969 36.1307 17.1314C36.5491 17.4658 37.1348 17.633 37.8879 17.633C38.6052 17.633 39.2208 17.4658 39.7348 17.1314C40.2608 16.7845 40.6433 16.289 40.8824 15.6449Z" fill="black"/>
<path d="M45.6134 4.79382V18.5806H46.8865V4.79382H45.6134Z" fill="black"/>
<path d="M45.6134 4.79382V18.5806H46.8865V4.79382H45.6134Z" fill="black"/>
<path d="M50.4289 8.82581V18.5806H51.702V8.82581H50.4289Z" fill="black"/>
<path d="M50.4289 8.82581V18.5806H51.702V8.82581H50.4289Z" fill="black"/>
<path d="M50.4109 6.39175C50.5902 6.57756 50.8114 6.67046 51.0744 6.67046C51.3493 6.67046 51.5705 6.57756 51.7378 6.39175C51.9171 6.20595 52.0068 5.97678 52.0068 5.70427C52.0068 5.44414 51.9171 5.22736 51.7378 5.05394C51.5585 4.88053 51.3374 4.79382 51.0744 4.79382C50.8114 4.79382 50.5902 4.88672 50.4109 5.07253C50.2316 5.24594 50.142 5.46272 50.142 5.72285C50.142 5.98298 50.2316 6.20595 50.4109 6.39175Z" fill="black"/>
<path d="M50.4109 6.39175C50.5902 6.57756 50.8114 6.67046 51.0744 6.67046C51.3493 6.67046 51.5705 6.57756 51.7378 6.39175C51.9171 6.20595 52.0068 5.97678 52.0068 5.70427C52.0068 5.44414 51.9171 5.22736 51.7378 5.05394C51.5585 4.88053 51.3374 4.79382 51.0744 4.79382C50.8114 4.79382 50.5902 4.88672 50.4109 5.07253C50.2316 5.24594 50.142 5.46272 50.142 5.72285C50.142 5.98298 50.2316 6.20595 50.4109 6.39175Z" fill="black"/>
<path fill-rule="evenodd" clip-rule="evenodd" d="M56.6609 18.0418C57.402 18.463 58.2627 18.6735 59.243 18.6735C59.9961 18.6735 60.6834 18.5373 61.305 18.2648C61.9386 17.9923 62.4646 17.5959 62.883 17.0756L62.1657 16.2209C61.8071 16.6545 61.3767 16.9765 60.8747 17.1871C60.3846 17.3977 59.8526 17.503 59.2788 17.503C58.5496 17.503 57.8981 17.3481 57.3243 17.0385C56.7625 16.7164 56.3202 16.2766 55.9974 15.7192C55.7368 15.2414 55.5854 14.7025 55.5434 14.1027H63.4567V13.8983C63.4687 13.824 63.4747 13.7559 63.4747 13.6939C63.4747 12.7154 63.2774 11.8545 62.883 11.1112C62.4885 10.3556 61.9446 9.77343 61.2512 9.36465C60.5698 8.94349 59.7869 8.73291 58.9023 8.73291C58.0296 8.73291 57.2407 8.94969 56.5354 9.38324C55.842 9.8044 55.2921 10.3866 54.8857 11.1298C54.4912 11.873 54.294 12.7277 54.294 13.6939C54.294 14.6601 54.5032 15.521 54.9216 16.2766C55.34 17.0199 55.9197 17.6083 56.6609 18.0418ZM55.5489 13.1179C55.5953 12.5713 55.7329 12.0758 55.9616 11.6315C56.2485 11.0741 56.6489 10.6405 57.163 10.3308C57.677 10.0212 58.2567 9.86633 58.9023 9.86633C59.5597 9.86633 60.1395 10.0212 60.6416 10.3308C61.1436 10.6405 61.5381 11.0741 61.825 11.6315C62.0676 12.0739 62.2117 12.5694 62.2574 13.1179H55.5489Z" fill="black"/>
<path fill-rule="evenodd" clip-rule="evenodd" d="M56.6609 18.0418C57.402 18.463 58.2627 18.6735 59.243 18.6735C59.9961 18.6735 60.6834 18.5373 61.305 18.2648C61.9386 17.9923 62.4646 17.5959 62.883 17.0756L62.1657 16.2209C61.8071 16.6545 61.3767 16.9765 60.8747 17.1871C60.3846 17.3977 59.8526 17.503 59.2788 17.503C58.5496 17.503 57.8981 17.3481 57.3243 17.0385C56.7625 16.7164 56.3202 16.2766 55.9974 15.7192C55.7368 15.2414 55.5854 14.7025 55.5434 14.1027H63.4567V13.8983C63.4687 13.824 63.4747 13.7559 63.4747 13.6939C63.4747 12.7154 63.2774 11.8545 62.883 11.1112C62.4885 10.3556 61.9446 9.77343 61.2512 9.36465C60.5698 8.94349 59.7869 8.73291 58.9023 8.73291C58.0296 8.73291 57.2407 8.94969 56.5354 9.38324C55.842 9.8044 55.2921 10.3866 54.8857 11.1298C54.4912 11.873 54.294 12.7277 54.294 13.6939C54.294 14.6601 54.5032 15.521 54.9216 16.2766C55.34 17.0199 55.9197 17.6083 56.6609 18.0418ZM55.5489 13.1179C55.5953 12.5713 55.7329 12.0758 55.9616 11.6315C56.2485 11.0741 56.6489 10.6405 57.163 10.3308C57.677 10.0212 58.2567 9.86633 58.9023 9.86633C59.5597 9.86633 60.1395 10.0212 60.6416 10.3308C61.1436 10.6405 61.5381 11.0741 61.825 11.6315C62.0676 12.0739 62.2117 12.5694 62.2574 13.1179H55.5489Z" fill="black"/>
<path d="M67.106 18.2276C67.9667 18.5373 68.8632 18.6921 69.7956 18.6921C70.8715 18.6921 71.7501 18.5311 72.4315 18.209C73.1248 17.8746 73.6389 17.441 73.9736 16.9084C74.3083 16.3634 74.4756 15.775 74.4756 15.1432C74.4756 14.4619 74.3322 13.9107 74.0453 13.4895C73.7704 13.0684 73.3998 12.7339 72.9336 12.4862C72.4793 12.2261 71.9773 12.0155 71.4274 11.8545C70.8894 11.6934 70.3455 11.5448 69.7956 11.4085C69.2458 11.2723 68.7377 11.1174 68.2715 10.944C67.8173 10.7706 67.4467 10.529 67.1598 10.2194C66.8848 9.90968 66.7474 9.5009 66.7474 8.99303C66.7474 8.5471 66.8609 8.15071 67.0881 7.80387C67.3271 7.44464 67.6917 7.15974 68.1818 6.94916C68.672 6.73858 69.2936 6.63329 70.0467 6.63329C70.6085 6.63329 71.1883 6.72 71.786 6.89342C72.3956 7.06684 72.9694 7.33935 73.5074 7.71097L73.9556 6.61471C73.4536 6.25548 72.8559 5.97677 72.1625 5.77858C71.4692 5.568 70.7699 5.46271 70.0646 5.46271C69.0007 5.46271 68.1281 5.62993 67.4467 5.96439C66.7653 6.28645 66.2572 6.72 65.9225 7.26503C65.5998 7.79768 65.4384 8.38606 65.4384 9.03019C65.4384 9.72387 65.5759 10.2875 65.8508 10.721C66.1377 11.1422 66.5083 11.4828 66.9625 11.743C67.4287 12.0031 67.9368 12.2137 68.4867 12.3747C69.0366 12.5234 69.5864 12.6658 70.1363 12.8021C70.6862 12.9383 71.1883 13.0994 71.6425 13.2852C72.0968 13.4586 72.4614 13.7001 72.7363 14.0098C73.0232 14.3195 73.1667 14.7283 73.1667 15.2361C73.1667 15.6573 73.0471 16.0413 72.8081 16.3881C72.5809 16.735 72.2163 17.0137 71.7143 17.2243C71.2242 17.4225 70.5846 17.5215 69.7956 17.5215C68.9708 17.5215 68.1818 17.3729 67.4287 17.0756C66.6876 16.7659 66.0959 16.3881 65.6536 15.9422L65.1336 17.0013C65.5998 17.4968 66.2572 17.9055 67.106 18.2276Z" fill="black"/>
<path d="M67.106 18.2276C67.9667 18.5373 68.8632 18.6921 69.7956 18.6921C70.8715 18.6921 71.7501 18.5311 72.4315 18.209C73.1248 17.8746 73.6389 17.441 73.9736 16.9084C74.3083 16.3634 74.4756 15.775 74.4756 15.1432C74.4756 14.4619 74.3322 13.9107 74.0453 13.4895C73.7704 13.0684 73.3998 12.7339 72.9336 12.4862C72.4793 12.2261 71.9773 12.0155 71.4274 11.8545C70.8894 11.6934 70.3455 11.5448 69.7956 11.4085C69.2458 11.2723 68.7377 11.1174 68.2715 10.944C67.8173 10.7706 67.4467 10.529 67.1598 10.2194C66.8848 9.90968 66.7474 9.5009 66.7474 8.99303C66.7474 8.5471 66.8609 8.15071 67.0881 7.80387C67.3271 7.44464 67.6917 7.15974 68.1818 6.94916C68.672 6.73858 69.2936 6.63329 70.0467 6.63329C70.6085 6.63329 71.1883 6.72 71.786 6.89342C72.3956 7.06684 72.9694 7.33935 73.5074 7.71097L73.9556 6.61471C73.4536 6.25548 72.8559 5.97677 72.1625 5.77858C71.4692 5.568 70.7699 5.46271 70.0646 5.46271C69.0007 5.46271 68.1281 5.62993 67.4467 5.96439C66.7653 6.28645 66.2572 6.72 65.9225 7.26503C65.5998 7.79768 65.4384 8.38606 65.4384 9.03019C65.4384 9.72387 65.5759 10.2875 65.8508 10.721C66.1377 11.1422 66.5083 11.4828 66.9625 11.743C67.4287 12.0031 67.9368 12.2137 68.4867 12.3747C69.0366 12.5234 69.5864 12.6658 70.1363 12.8021C70.6862 12.9383 71.1883 13.0994 71.6425 13.2852C72.0968 13.4586 72.4614 13.7001 72.7363 14.0098C73.0232 14.3195 73.1667 14.7283 73.1667 15.2361C73.1667 15.6573 73.0471 16.0413 72.8081 16.3881C72.5809 16.735 72.2163 17.0137 71.7143 17.2243C71.2242 17.4225 70.5846 17.5215 69.7956 17.5215C68.9708 17.5215 68.1818 17.3729 67.4287 17.0756C66.6876 16.7659 66.0959 16.3881 65.6536 15.9422L65.1336 17.0013C65.5998 17.4968 66.2572 17.9055 67.106 18.2276Z" fill="black"/>
<path fill-rule="evenodd" clip-rule="evenodd" d="M78.4785 18.0418C79.2077 18.463 80.0265 18.6735 80.935 18.6735C81.8555 18.6735 82.6803 18.463 83.4095 18.0418C84.1387 17.6083 84.7065 17.0199 85.1129 16.2766C85.5313 15.521 85.7405 14.6601 85.7405 13.6939C85.7405 12.7154 85.5313 11.8545 85.1129 11.1112C84.7065 10.368 84.1387 9.78582 83.4095 9.36465C82.6923 8.94349 81.8674 8.73291 80.935 8.73291C80.0146 8.73291 79.1957 8.94349 78.4785 9.36465C77.7612 9.78582 77.1934 10.368 76.775 11.1112C76.3566 11.8545 76.1474 12.7154 76.1474 13.6939C76.1474 14.6601 76.3566 15.521 76.775 16.2766C77.1934 17.0199 77.7612 17.6083 78.4785 18.0418ZM82.7461 17.0385C82.2201 17.3481 81.6164 17.503 80.935 17.503C80.2776 17.503 79.6858 17.3481 79.1598 17.0385C78.6339 16.7164 78.2155 16.2705 77.9047 15.7006C77.5939 15.1185 77.4385 14.4495 77.4385 13.6939C77.4385 12.9259 77.5939 12.257 77.9047 11.6872C78.2155 11.1174 78.6339 10.6777 79.1598 10.368C79.6858 10.0459 80.2835 9.88491 80.953 9.88491C81.6224 9.88491 82.2201 10.0459 82.7461 10.368C83.272 10.6777 83.6844 11.1174 83.9833 11.6872C84.2941 12.257 84.4495 12.9259 84.4495 13.6939C84.4495 14.4495 84.2941 15.1185 83.9833 15.7006C83.6844 16.2705 83.272 16.7164 82.7461 17.0385Z" fill="black"/>
<path fill-rule="evenodd" clip-rule="evenodd" d="M78.4785 18.0418C79.2077 18.463 80.0265 18.6735 80.935 18.6735C81.8555 18.6735 82.6803 18.463 83.4095 18.0418C84.1387 17.6083 84.7065 17.0199 85.1129 16.2766C85.5313 15.521 85.7405 14.6601 85.7405 13.6939C85.7405 12.7154 85.5313 11.8545 85.1129 11.1112C84.7065 10.368 84.1387 9.78582 83.4095 9.36465C82.6923 8.94349 81.8674 8.73291 80.935 8.73291C80.0146 8.73291 79.1957 8.94349 78.4785 9.36465C77.7612 9.78582 77.1934 10.368 76.775 11.1112C76.3566 11.8545 76.1474 12.7154 76.1474 13.6939C76.1474 14.6601 76.3566 15.521 76.775 16.2766C77.1934 17.0199 77.7612 17.6083 78.4785 18.0418ZM82.7461 17.0385C82.2201 17.3481 81.6164 17.503 80.935 17.503C80.2776 17.503 79.6858 17.3481 79.1598 17.0385C78.6339 16.7164 78.2155 16.2705 77.9047 15.7006C77.5939 15.1185 77.4385 14.4495 77.4385 13.6939C77.4385 12.9259 77.5939 12.257 77.9047 11.6872C78.2155 11.1174 78.6339 10.6777 79.1598 10.368C79.6858 10.0459 80.2835 9.88491 80.953 9.88491C81.6224 9.88491 82.2201 10.0459 82.7461 10.368C83.272 10.6777 83.6844 11.1174 83.9833 11.6872C84.2941 12.257 84.4495 12.9259 84.4495 13.6939C84.4495 14.4495 84.2941 15.1185 83.9833 15.7006C83.6844 16.2705 83.272 16.7164 82.7461 17.0385Z" fill="black"/>
<path fill-rule="evenodd" clip-rule="evenodd" d="M94.1865 17.0491V18.5806H95.4058V12.5234C95.4058 11.2475 95.0711 10.2999 94.4017 9.68053C93.7442 9.04878 92.8058 8.73291 91.5865 8.73291C90.8453 8.73291 90.14 8.85059 89.4706 9.08594C88.8012 9.30891 88.2274 9.63098 87.7492 10.0521L88.323 11.0369C88.7056 10.6901 89.1718 10.4114 89.7216 10.2008C90.2715 9.9902 90.8513 9.88491 91.461 9.88491C92.3456 9.88491 93.009 10.1079 93.4513 10.5538C93.9056 10.9997 94.1327 11.6377 94.1327 12.4676V13.0622H91.1382C90.2416 13.0622 89.5244 13.1923 88.9865 13.4524C88.4605 13.7001 88.078 14.0346 87.8389 14.4557C87.6118 14.8645 87.4982 15.3228 87.4982 15.8307C87.4982 16.3881 87.6357 16.8836 87.9106 17.3172C88.1856 17.7383 88.58 18.0728 89.0941 18.3205C89.62 18.5559 90.2357 18.6735 90.941 18.6735C91.8375 18.6735 92.5787 18.4815 93.1644 18.0975C93.6006 17.8173 93.9413 17.4678 94.1865 17.0491ZM94.1327 15.6449V14.047H91.1741C90.2656 14.047 89.632 14.2142 89.2734 14.5486C88.9267 14.8831 88.7534 15.2981 88.7534 15.7935C88.7534 16.351 88.9626 16.7969 89.381 17.1314C89.7993 17.4658 90.3851 17.633 91.1382 17.633C91.8554 17.633 92.4711 17.4658 92.9851 17.1314C93.5111 16.7845 93.8936 16.289 94.1327 15.6449Z" fill="black"/>
<path fill-rule="evenodd" clip-rule="evenodd" d="M94.1865 17.0491V18.5806H95.4058V12.5234C95.4058 11.2475 95.0711 10.2999 94.4017 9.68053C93.7442 9.04878 92.8058 8.73291 91.5865 8.73291C90.8453 8.73291 90.14 8.85059 89.4706 9.08594C88.8012 9.30891 88.2274 9.63098 87.7492 10.0521L88.323 11.0369C88.7056 10.6901 89.1718 10.4114 89.7216 10.2008C90.2715 9.9902 90.8513 9.88491 91.461 9.88491C92.3456 9.88491 93.009 10.1079 93.4513 10.5538C93.9056 10.9997 94.1327 11.6377 94.1327 12.4676V13.0622H91.1382C90.2416 13.0622 89.5244 13.1923 88.9865 13.4524C88.4605 13.7001 88.078 14.0346 87.8389 14.4557C87.6118 14.8645 87.4982 15.3228 87.4982 15.8307C87.4982 16.3881 87.6357 16.8836 87.9106 17.3172C88.1856 17.7383 88.58 18.0728 89.0941 18.3205C89.62 18.5559 90.2357 18.6735 90.941 18.6735C91.8375 18.6735 92.5787 18.4815 93.1644 18.0975C93.6006 17.8173 93.9413 17.4678 94.1865 17.0491ZM94.1327 15.6449V14.047H91.1741C90.2656 14.047 89.632 14.2142 89.2734 14.5486C88.9267 14.8831 88.7534 15.2981 88.7534 15.7935C88.7534 16.351 88.9626 16.7969 89.381 17.1314C89.7993 17.4658 90.3851 17.633 91.1382 17.633C91.8554 17.633 92.4711 17.4658 92.9851 17.1314C93.5111 16.7845 93.8936 16.289 94.1327 15.6449Z" fill="black"/>
<path fill-rule="evenodd" clip-rule="evenodd" d="M101.517 18.0975C102.175 18.4815 102.91 18.6735 103.723 18.6735C104.62 18.6735 105.42 18.463 106.126 18.0418C106.843 17.6206 107.405 17.0385 107.811 16.2952C108.218 15.552 108.421 14.6849 108.421 13.6939C108.421 12.7154 108.218 11.8545 107.811 11.1112C107.405 10.3556 106.843 9.77343 106.126 9.36465C105.42 8.94349 104.62 8.73291 103.723 8.73291C102.898 8.73291 102.157 8.92491 101.5 9.30891C100.921 9.6469 100.449 10.124 100.083 10.7403V8.82582H98.8637V22.1853H100.137V16.7412C100.504 17.3118 100.964 17.7639 101.517 18.0975ZM105.426 17.0385C104.9 17.3481 104.303 17.503 103.633 17.503C102.964 17.503 102.36 17.3481 101.822 17.0385C101.296 16.7164 100.878 16.2705 100.567 15.7006C100.268 15.1185 100.119 14.4495 100.119 13.6939C100.119 12.9383 100.268 12.2756 100.567 11.7058C100.878 11.136 101.296 10.6901 101.822 10.368C102.36 10.0459 102.964 9.88491 103.633 9.88491C104.303 9.88491 104.9 10.0459 105.426 10.368C105.952 10.6901 106.371 11.136 106.682 11.7058C106.992 12.2756 107.148 12.9383 107.148 13.6939C107.148 14.4495 106.992 15.1185 106.682 15.7006C106.371 16.2705 105.952 16.7164 105.426 17.0385Z" fill="black"/>
<path fill-rule="evenodd" clip-rule="evenodd" d="M101.517 18.0975C102.175 18.4815 102.91 18.6735 103.723 18.6735C104.62 18.6735 105.42 18.463 106.126 18.0418C106.843 17.6206 107.405 17.0385 107.811 16.2952C108.218 15.552 108.421 14.6849 108.421 13.6939C108.421 12.7154 108.218 11.8545 107.811 11.1112C107.405 10.3556 106.843 9.77343 106.126 9.36465C105.42 8.94349 104.62 8.73291 103.723 8.73291C102.898 8.73291 102.157 8.92491 101.5 9.30891C100.921 9.6469 100.449 10.124 100.083 10.7403V8.82582H98.8637V22.1853H100.137V16.7412C100.504 17.3118 100.964 17.7639 101.517 18.0975ZM105.426 17.0385C104.9 17.3481 104.303 17.503 103.633 17.503C102.964 17.503 102.36 17.3481 101.822 17.0385C101.296 16.7164 100.878 16.2705 100.567 15.7006C100.268 15.1185 100.119 14.4495 100.119 13.6939C100.119 12.9383 100.268 12.2756 100.567 11.7058C100.878 11.136 101.296 10.6901 101.822 10.368C102.36 10.0459 102.964 9.88491 103.633 9.88491C104.303 9.88491 104.9 10.0459 105.426 10.368C105.952 10.6901 106.371 11.136 106.682 11.7058C106.992 12.2756 107.148 12.9383 107.148 13.6939C107.148 14.4495 106.992 15.1185 106.682 15.7006C106.371 16.2705 105.952 16.7164 105.426 17.0385Z" fill="black"/>
<path fill-rule="evenodd" clip-rule="evenodd" d="M61.9253 40.9285C62.5589 41.201 63.2821 41.3373 64.095 41.3373C65.123 41.3373 66.0435 41.1205 66.8564 40.687C67.3892 40.4027 67.8656 40.0307 68.2855 39.5708L70.0301 41.4302L70.7653 40.5569L68.9786 38.6504C69.4873 37.8304 69.8498 36.8308 70.066 35.6516L69.0439 35.3172C68.8629 36.2995 68.5822 37.1342 68.2018 37.8215L64.7618 34.151C65.3155 33.8199 65.7746 33.515 66.1391 33.2361C66.6412 32.8397 66.9998 32.4372 67.215 32.0284C67.4421 31.6196 67.5557 31.1799 67.5557 30.7092C67.5557 30.1641 67.4301 29.6996 67.1791 29.3156C66.94 28.9316 66.5993 28.6405 66.157 28.4423C65.7267 28.2317 65.2186 28.1264 64.6329 28.1264C63.9874 28.1264 63.4255 28.2441 62.9474 28.4795C62.4692 28.7025 62.0987 29.0245 61.8357 29.4457C61.5846 29.8545 61.4591 30.3375 61.4591 30.895C61.4591 31.2418 61.5069 31.5701 61.6026 31.8797C61.6982 32.1894 61.8656 32.5177 62.1046 32.8645C62.3418 33.1805 62.6537 33.5518 63.0403 33.9784C62.3751 34.3749 61.8241 34.7593 61.3874 35.1314C60.8614 35.5773 60.4789 36.0356 60.2398 36.5063C60.0007 36.9646 59.8812 37.4725 59.8812 38.0299C59.8812 38.6864 60.0605 39.2625 60.4191 39.7579C60.7897 40.2534 61.2918 40.6436 61.9253 40.9285ZM64.0508 33.3894C63.6941 32.9951 63.41 32.6653 63.1984 32.4C62.9833 32.1151 62.8338 31.855 62.7501 31.6196C62.6784 31.3843 62.6426 31.1365 62.6426 30.8764C62.6426 30.3561 62.8159 29.935 63.1626 29.6129C63.5092 29.2784 63.9993 29.1112 64.6329 29.1112C65.2186 29.1112 65.6669 29.2599 65.9777 29.5572C66.3005 29.8545 66.4619 30.2446 66.4619 30.7277C66.4619 31.0622 66.3722 31.3781 66.1929 31.6754C66.0136 31.9603 65.7088 32.2637 65.2784 32.5858C64.9638 32.8187 64.5546 33.0865 64.0508 33.3894ZM63.7513 34.7385C63.1578 35.094 62.6746 35.4232 62.3019 35.7259C61.8715 36.0852 61.5667 36.4382 61.3874 36.785C61.2081 37.1195 61.1184 37.4911 61.1184 37.8999C61.1184 38.3706 61.2439 38.7855 61.495 39.1448C61.758 39.4916 62.1166 39.7641 62.5708 39.9623C63.037 40.1481 63.569 40.241 64.1667 40.241C65.0035 40.241 65.7506 40.0614 66.4081 39.7022C66.8307 39.4713 67.2089 39.1636 67.5426 38.7791L63.7513 34.7385Z" fill="black"/>
<path fill-rule="evenodd" clip-rule="evenodd" d="M61.9253 40.9285C62.5589 41.201 63.2821 41.3373 64.095 41.3373C65.123 41.3373 66.0435 41.1205 66.8564 40.687C67.3892 40.4027 67.8656 40.0307 68.2855 39.5708L70.0301 41.4302L70.7653 40.5569L68.9786 38.6504C69.4873 37.8304 69.8498 36.8308 70.066 35.6516L69.0439 35.3172C68.8629 36.2995 68.5822 37.1342 68.2018 37.8215L64.7618 34.151C65.3155 33.8199 65.7746 33.515 66.1391 33.2361C66.6412 32.8397 66.9998 32.4372 67.215 32.0284C67.4421 31.6196 67.5557 31.1799 67.5557 30.7092C67.5557 30.1641 67.4301 29.6996 67.1791 29.3156C66.94 28.9316 66.5993 28.6405 66.157 28.4423C65.7267 28.2317 65.2186 28.1264 64.6329 28.1264C63.9874 28.1264 63.4255 28.2441 62.9474 28.4795C62.4692 28.7025 62.0987 29.0245 61.8357 29.4457C61.5846 29.8545 61.4591 30.3375 61.4591 30.895C61.4591 31.2418 61.5069 31.5701 61.6026 31.8797C61.6982 32.1894 61.8656 32.5177 62.1046 32.8645C62.3418 33.1805 62.6537 33.5518 63.0403 33.9784C62.3751 34.3749 61.8241 34.7593 61.3874 35.1314C60.8614 35.5773 60.4789 36.0356 60.2398 36.5063C60.0007 36.9646 59.8812 37.4725 59.8812 38.0299C59.8812 38.6864 60.0605 39.2625 60.4191 39.7579C60.7897 40.2534 61.2918 40.6436 61.9253 40.9285ZM64.0508 33.3894C63.6941 32.9951 63.41 32.6653 63.1984 32.4C62.9833 32.1151 62.8338 31.855 62.7501 31.6196C62.6784 31.3843 62.6426 31.1365 62.6426 30.8764C62.6426 30.3561 62.8159 29.935 63.1626 29.6129C63.5092 29.2784 63.9993 29.1112 64.6329 29.1112C65.2186 29.1112 65.6669 29.2599 65.9777 29.5572C66.3005 29.8545 66.4619 30.2446 66.4619 30.7277C66.4619 31.0622 66.3722 31.3781 66.1929 31.6754C66.0136 31.9603 65.7088 32.2637 65.2784 32.5858C64.9638 32.8187 64.5546 33.0865 64.0508 33.3894ZM63.7513 34.7385C63.1578 35.094 62.6746 35.4232 62.3019 35.7259C61.8715 36.0852 61.5667 36.4382 61.3874 36.785C61.2081 37.1195 61.1184 37.4911 61.1184 37.8999C61.1184 38.3706 61.2439 38.7855 61.495 39.1448C61.758 39.4916 62.1166 39.7641 62.5708 39.9623C63.037 40.1481 63.569 40.241 64.1667 40.241C65.0035 40.241 65.7506 40.0614 66.4081 39.7022C66.8307 39.4713 67.2089 39.1636 67.5426 38.7791L63.7513 34.7385Z" fill="black"/>
<path d="M14.9894 60.4497V63.871H13.6625V50.8645H14.9894V58.7173L22.3591 50.8645H23.8832L18.4565 56.7608L24.2598 63.871H22.6819L17.5584 57.7533L14.9894 60.4497Z" fill="black"/>
<path d="M14.9894 60.4497V63.871H13.6625V50.8645H14.9894V58.7173L22.3591 50.8645H23.8832L18.4565 56.7608L24.2598 63.871H22.6819L17.5584 57.7533L14.9894 60.4497Z" fill="black"/>
<path fill-rule="evenodd" clip-rule="evenodd" d="M31.7956 62.3394V63.871H33.0149V57.8137C33.0149 56.5378 32.6802 55.5902 32.0108 54.9708C31.3533 54.3391 30.4149 54.0232 29.1956 54.0232C28.4544 54.0232 27.7491 54.1409 27.0797 54.3763C26.4103 54.5992 25.8365 54.9213 25.3583 55.3424L25.9321 56.3272C26.3147 55.9804 26.7809 55.7017 27.3308 55.4911C27.8806 55.2805 28.4604 55.1752 29.0701 55.1752C29.9547 55.1752 30.6181 55.3982 31.0604 55.8441C31.5147 56.2901 31.7418 56.928 31.7418 57.7579V58.3525H28.7473C27.8508 58.3525 27.1335 58.4826 26.5956 58.7427C26.0696 58.9904 25.6871 59.3249 25.448 59.7461C25.2209 60.1548 25.1073 60.6132 25.1073 61.121C25.1073 61.6784 25.2448 62.1739 25.5197 62.6075C25.7947 63.0286 26.1891 63.3631 26.7032 63.6108C27.2291 63.8462 27.8448 63.9639 28.5501 63.9639C29.4466 63.9639 30.1878 63.7719 30.7735 63.3879C31.2097 63.1076 31.5504 62.7581 31.7956 62.3394ZM31.7418 60.9352V59.3373H28.7832C27.8747 59.3373 27.2411 59.5045 26.8825 59.839C26.5358 60.1734 26.3625 60.5884 26.3625 61.0839C26.3625 61.6413 26.5717 62.0872 26.9901 62.4217C27.4085 62.7561 27.9942 62.9234 28.7473 62.9234C29.4645 62.9234 30.0802 62.7561 30.5942 62.4217C31.1202 62.0748 31.5027 61.5793 31.7418 60.9352Z" fill="black"/>
<path fill-rule="evenodd" clip-rule="evenodd" d="M31.7956 62.3394V63.871H33.0149V57.8137C33.0149 56.5378 32.6802 55.5902 32.0108 54.9708C31.3533 54.3391 30.4149 54.0232 29.1956 54.0232C28.4544 54.0232 27.7491 54.1409 27.0797 54.3763C26.4103 54.5992 25.8365 54.9213 25.3583 55.3424L25.9321 56.3272C26.3147 55.9804 26.7809 55.7017 27.3308 55.4911C27.8806 55.2805 28.4604 55.1752 29.0701 55.1752C29.9547 55.1752 30.6181 55.3982 31.0604 55.8441C31.5147 56.2901 31.7418 56.928 31.7418 57.7579V58.3525H28.7473C27.8508 58.3525 27.1335 58.4826 26.5956 58.7427C26.0696 58.9904 25.6871 59.3249 25.448 59.7461C25.2209 60.1548 25.1073 60.6132 25.1073 61.121C25.1073 61.6784 25.2448 62.1739 25.5197 62.6075C25.7947 63.0286 26.1891 63.3631 26.7032 63.6108C27.2291 63.8462 27.8448 63.9639 28.5501 63.9639C29.4466 63.9639 30.1878 63.7719 30.7735 63.3879C31.2097 63.1076 31.5504 62.7581 31.7956 62.3394ZM31.7418 60.9352V59.3373H28.7832C27.8747 59.3373 27.2411 59.5045 26.8825 59.839C26.5358 60.1734 26.3625 60.5884 26.3625 61.0839C26.3625 61.6413 26.5717 62.0872 26.9901 62.4217C27.4085 62.7561 27.9942 62.9234 28.7473 62.9234C29.4645 62.9234 30.0802 62.7561 30.5942 62.4217C31.1202 62.0748 31.5027 61.5793 31.7418 60.9352Z" fill="black"/>
<path d="M36.4728 50.0841V63.871H37.7459V50.0841H36.4728Z" fill="black"/>
<path d="M36.4728 50.0841V63.871H37.7459V50.0841H36.4728Z" fill="black"/>
<path d="M41.2882 54.1161V63.871H42.5613V54.1161H41.2882Z" fill="black"/>
<path d="M41.2882 54.1161V63.871H42.5613V54.1161H41.2882Z" fill="black"/>
<path d="M41.2703 51.6821C41.4496 51.8679 41.6708 51.9608 41.9338 51.9608C42.2087 51.9608 42.4298 51.8679 42.5972 51.6821C42.7765 51.4963 42.8662 51.2671 42.8662 50.9946C42.8662 50.7345 42.7765 50.5177 42.5972 50.3443C42.4179 50.1708 42.1967 50.0841 41.9338 50.0841C41.6708 50.0841 41.4496 50.177 41.2703 50.3628C41.091 50.5363 41.0013 50.753 41.0013 51.0132C41.0013 51.2733 41.091 51.4963 41.2703 51.6821Z" fill="black"/>
<path d="M41.2703 51.6821C41.4496 51.8679 41.6708 51.9608 41.9338 51.9608C42.2087 51.9608 42.4298 51.8679 42.5972 51.6821C42.7765 51.4963 42.8662 51.2671 42.8662 50.9946C42.8662 50.7345 42.7765 50.5177 42.5972 50.3443C42.4179 50.1708 42.1967 50.0841 41.9338 50.0841C41.6708 50.0841 41.4496 50.177 41.2703 50.3628C41.091 50.5363 41.0013 50.753 41.0013 51.0132C41.0013 51.2733 41.091 51.4963 41.2703 51.6821Z" fill="black"/>
<path fill-rule="evenodd" clip-rule="evenodd" d="M47.5203 63.3321C48.2614 63.7533 49.1221 63.9639 50.1023 63.9639C50.8554 63.9639 51.5428 63.8276 52.1644 63.5551C52.798 63.2826 53.3239 62.8862 53.7423 62.3659L53.0251 61.5112C52.6665 61.9448 52.2361 62.2668 51.7341 62.4774C51.2439 62.688 50.712 62.7933 50.1382 62.7933C49.409 62.7933 48.7575 62.6385 48.1837 62.3288C47.6219 62.0067 47.1796 61.567 46.8568 61.0095C46.5962 60.5317 46.4448 59.9929 46.4027 59.393H54.3161V59.1886C54.3281 59.1143 54.334 59.0462 54.334 58.9843C54.334 58.0057 54.1368 57.1448 53.7423 56.4015C53.3478 55.6459 52.8039 55.0637 52.1106 54.655C51.4292 54.2338 50.6462 54.0232 49.7616 54.0232C48.889 54.0232 48.1 54.24 47.3947 54.6735C46.7014 55.0947 46.1515 55.6769 45.7451 56.4201C45.3506 57.1634 45.1534 58.0181 45.1534 58.9843C45.1534 59.9505 45.3626 60.8114 45.7809 61.567C46.1993 62.3102 46.7791 62.8986 47.5203 63.3321ZM46.4083 58.4083C46.4547 57.8616 46.5923 57.3661 46.8209 56.9218C47.1078 56.3644 47.5083 55.9308 48.0223 55.6212C48.5363 55.3115 49.1161 55.1566 49.7616 55.1566C50.4191 55.1566 50.9989 55.3115 51.5009 55.6212C52.003 55.9308 52.3975 56.3644 52.6844 56.9218C52.927 57.3642 53.0711 57.8597 53.1168 58.4083H46.4083Z" fill="black"/>
<path fill-rule="evenodd" clip-rule="evenodd" d="M47.5203 63.3321C48.2614 63.7533 49.1221 63.9639 50.1023 63.9639C50.8554 63.9639 51.5428 63.8276 52.1644 63.5551C52.798 63.2826 53.3239 62.8862 53.7423 62.3659L53.0251 61.5112C52.6665 61.9448 52.2361 62.2668 51.7341 62.4774C51.2439 62.688 50.712 62.7933 50.1382 62.7933C49.409 62.7933 48.7575 62.6385 48.1837 62.3288C47.6219 62.0067 47.1796 61.567 46.8568 61.0095C46.5962 60.5317 46.4448 59.9929 46.4027 59.393H54.3161V59.1886C54.3281 59.1143 54.334 59.0462 54.334 58.9843C54.334 58.0057 54.1368 57.1448 53.7423 56.4015C53.3478 55.6459 52.8039 55.0637 52.1106 54.655C51.4292 54.2338 50.6462 54.0232 49.7616 54.0232C48.889 54.0232 48.1 54.24 47.3947 54.6735C46.7014 55.0947 46.1515 55.6769 45.7451 56.4201C45.3506 57.1634 45.1534 58.0181 45.1534 58.9843C45.1534 59.9505 45.3626 60.8114 45.7809 61.567C46.1993 62.3102 46.7791 62.8986 47.5203 63.3321ZM46.4083 58.4083C46.4547 57.8616 46.5923 57.3661 46.8209 56.9218C47.1078 56.3644 47.5083 55.9308 48.0223 55.6212C48.5363 55.3115 49.1161 55.1566 49.7616 55.1566C50.4191 55.1566 50.9989 55.3115 51.5009 55.6212C52.003 55.9308 52.3975 56.3644 52.6844 56.9218C52.927 57.3642 53.0711 57.8597 53.1168 58.4083H46.4083Z" fill="black"/>
<path d="M60.0274 63.4994C60.8284 63.8214 61.701 63.9825 62.6454 63.9825C63.5658 63.9825 64.4265 63.8214 65.2274 63.4994C66.0283 63.1773 66.7038 62.7004 67.2536 62.0686L66.4109 61.1954C65.8969 61.7404 65.329 62.1368 64.7074 62.3845C64.0858 62.6323 63.4164 62.7561 62.6992 62.7561C61.9461 62.7561 61.2467 62.6261 60.6012 62.3659C59.9557 62.0934 59.3939 61.7156 58.9157 61.2325C58.4375 60.737 58.061 60.1672 57.7861 59.5231C57.5231 58.8666 57.3916 58.1481 57.3916 57.3677C57.3916 56.5874 57.5231 55.8751 57.7861 55.231C58.061 54.5745 58.4375 54.0046 58.9157 53.5215C59.3939 53.0261 59.9557 52.6483 60.6012 52.3881C61.2467 52.1156 61.9461 51.9794 62.6992 51.9794C63.4164 51.9794 64.0858 52.1032 64.7074 52.351C65.329 52.5863 65.8969 52.9765 66.4109 53.5215L67.2536 52.6483C66.7038 52.0165 66.0283 51.5458 65.2274 51.2361C64.4265 50.9141 63.5718 50.753 62.6633 50.753C61.7189 50.753 60.8463 50.9203 60.0454 51.2547C59.2444 51.5768 58.5451 52.0351 57.9474 52.6297C57.3617 53.2243 56.9015 53.9241 56.5667 54.7293C56.244 55.5345 56.0826 56.4139 56.0826 57.3677C56.0826 58.3215 56.244 59.201 56.5667 60.0062C56.9015 60.8114 57.3617 61.5112 57.9474 62.1058C58.5332 62.7004 59.2265 63.1649 60.0274 63.4994Z" fill="black"/>
<path d="M60.0274 63.4994C60.8284 63.8214 61.701 63.9825 62.6454 63.9825C63.5658 63.9825 64.4265 63.8214 65.2274 63.4994C66.0283 63.1773 66.7038 62.7004 67.2536 62.0686L66.4109 61.1954C65.8969 61.7404 65.329 62.1368 64.7074 62.3845C64.0858 62.6323 63.4164 62.7561 62.6992 62.7561C61.9461 62.7561 61.2467 62.6261 60.6012 62.3659C59.9557 62.0934 59.3939 61.7156 58.9157 61.2325C58.4375 60.737 58.061 60.1672 57.7861 59.5231C57.5231 58.8666 57.3916 58.1481 57.3916 57.3677C57.3916 56.5874 57.5231 55.8751 57.7861 55.231C58.061 54.5745 58.4375 54.0046 58.9157 53.5215C59.3939 53.0261 59.9557 52.6483 60.6012 52.3881C61.2467 52.1156 61.9461 51.9794 62.6992 51.9794C63.4164 51.9794 64.0858 52.1032 64.7074 52.351C65.329 52.5863 65.8969 52.9765 66.4109 53.5215L67.2536 52.6483C66.7038 52.0165 66.0283 51.5458 65.2274 51.2361C64.4265 50.9141 63.5718 50.753 62.6633 50.753C61.7189 50.753 60.8463 50.9203 60.0454 51.2547C59.2444 51.5768 58.5451 52.0351 57.9474 52.6297C57.3617 53.2243 56.9015 53.9241 56.5667 54.7293C56.244 55.5345 56.0826 56.4139 56.0826 57.3677C56.0826 58.3215 56.244 59.201 56.5667 60.0062C56.9015 60.8114 57.3617 61.5112 57.9474 62.1058C58.5332 62.7004 59.2265 63.1649 60.0274 63.4994Z" fill="black"/>
<path fill-rule="evenodd" clip-rule="evenodd" d="M75.5725 62.3394V63.871H76.7918V57.8137C76.7918 56.5378 76.4571 55.5902 75.7877 54.9708C75.1302 54.3391 74.1918 54.0232 72.9725 54.0232C72.2314 54.0232 71.5261 54.1409 70.8567 54.3763C70.1872 54.5992 69.6134 54.9213 69.1353 55.3424L69.7091 56.3272C70.0916 55.9804 70.5578 55.7017 71.1077 55.4911C71.6576 55.2805 72.2374 55.1752 72.847 55.1752C73.7316 55.1752 74.395 55.3982 74.8373 55.8441C75.2916 56.2901 75.5187 56.928 75.5187 57.7579V58.3525H72.5242C71.6277 58.3525 70.9104 58.4826 70.3725 58.7427C69.8465 58.9904 69.464 59.3249 69.2249 59.7461C68.9978 60.1548 68.8842 60.6132 68.8842 61.121C68.8842 61.6784 69.0217 62.1739 69.2967 62.6075C69.5716 63.0286 69.9661 63.3631 70.4801 63.6108C71.0061 63.8462 71.6217 63.9639 72.327 63.9639C73.2236 63.9639 73.9647 63.7719 74.5504 63.3879C74.9866 63.1076 75.3273 62.7581 75.5725 62.3394ZM75.5187 60.9352V59.3373H72.5601C71.6516 59.3373 71.018 59.5045 70.6594 59.839C70.3127 60.1734 70.1394 60.5884 70.1394 61.0839C70.1394 61.6413 70.3486 62.0872 70.767 62.4217C71.1854 62.7561 71.7711 62.9234 72.5242 62.9234C73.2415 62.9234 73.8571 62.7561 74.3711 62.4217C74.8971 62.0748 75.2796 61.5793 75.5187 60.9352Z" fill="black"/>
<path fill-rule="evenodd" clip-rule="evenodd" d="M75.5725 62.3394V63.871H76.7918V57.8137C76.7918 56.5378 76.4571 55.5902 75.7877 54.9708C75.1302 54.3391 74.1918 54.0232 72.9725 54.0232C72.2314 54.0232 71.5261 54.1409 70.8567 54.3763C70.1872 54.5992 69.6134 54.9213 69.1353 55.3424L69.7091 56.3272C70.0916 55.9804 70.5578 55.7017 71.1077 55.4911C71.6576 55.2805 72.2374 55.1752 72.847 55.1752C73.7316 55.1752 74.395 55.3982 74.8373 55.8441C75.2916 56.2901 75.5187 56.928 75.5187 57.7579V58.3525H72.5242C71.6277 58.3525 70.9104 58.4826 70.3725 58.7427C69.8465 58.9904 69.464 59.3249 69.2249 59.7461C68.9978 60.1548 68.8842 60.6132 68.8842 61.121C68.8842 61.6784 69.0217 62.1739 69.2967 62.6075C69.5716 63.0286 69.9661 63.3631 70.4801 63.6108C71.0061 63.8462 71.6217 63.9639 72.327 63.9639C73.2236 63.9639 73.9647 63.7719 74.5504 63.3879C74.9866 63.1076 75.3273 62.7581 75.5725 62.3394ZM75.5187 60.9352V59.3373H72.5601C71.6516 59.3373 71.018 59.5045 70.6594 59.839C70.3127 60.1734 70.1394 60.5884 70.1394 61.0839C70.1394 61.6413 70.3486 62.0872 70.767 62.4217C71.1854 62.7561 71.7711 62.9234 72.5242 62.9234C73.2415 62.9234 73.8571 62.7561 74.3711 62.4217C74.8971 62.0748 75.2796 61.5793 75.5187 60.9352Z" fill="black"/>
<path d="M87.0635 54.4877C86.4897 54.1781 85.8203 54.0232 85.0552 54.0232C84.1467 54.0232 83.3637 54.2276 82.7063 54.6364C82.1782 54.9548 81.7658 55.3731 81.469 55.8913V54.1161H80.2497V63.871H81.5228V58.7427C81.5228 57.9995 81.6543 57.3677 81.9173 56.8475C82.1922 56.3148 82.5748 55.9123 83.0649 55.6397C83.567 55.3548 84.1527 55.2124 84.8221 55.2124C85.7187 55.2124 86.412 55.4787 86.9021 56.0114C87.4042 56.5316 87.6552 57.3058 87.6552 58.3339V63.871H88.9283V58.2039C88.9283 57.2625 88.761 56.4821 88.4263 55.8627C88.1035 55.2434 87.6493 54.785 87.0635 54.4877Z" fill="black"/>
<path d="M87.0635 54.4877C86.4897 54.1781 85.8203 54.0232 85.0552 54.0232C84.1467 54.0232 83.3637 54.2276 82.7063 54.6364C82.1782 54.9548 81.7658 55.3731 81.469 55.8913V54.1161H80.2497V63.871H81.5228V58.7427C81.5228 57.9995 81.6543 57.3677 81.9173 56.8475C82.1922 56.3148 82.5748 55.9123 83.0649 55.6397C83.567 55.3548 84.1527 55.2124 84.8221 55.2124C85.7187 55.2124 86.412 55.4787 86.9021 56.0114C87.4042 56.5316 87.6552 57.3058 87.6552 58.3339V63.871H88.9283V58.2039C88.9283 57.2625 88.761 56.4821 88.4263 55.8627C88.1035 55.2434 87.6493 54.785 87.0635 54.4877Z" fill="black"/>
<path fill-rule="evenodd" clip-rule="evenodd" d="M93.6941 63.3321C94.4113 63.7533 95.2182 63.9639 96.1148 63.9639C96.9515 63.9639 97.6927 63.7719 98.3382 63.3879C98.9169 63.039 99.3891 62.5558 99.7548 61.9382V63.871H100.974V50.0841H99.701V55.9712C99.3404 55.3836 98.8802 54.9263 98.3203 54.5992C97.6748 54.2152 96.9396 54.0232 96.1148 54.0232C95.2182 54.0232 94.4113 54.2338 93.6941 54.655C92.9888 55.0637 92.4329 55.6397 92.0265 56.383C91.62 57.1262 91.4168 57.9933 91.4168 58.9843C91.4168 59.9628 91.62 60.8299 92.0265 61.5855C92.4329 62.3288 92.9888 62.911 93.6941 63.3321ZM97.9975 62.3288C97.4715 62.6385 96.8738 62.7933 96.2044 62.7933C95.5469 62.7933 94.9552 62.6385 94.4292 62.3288C93.9033 62.0067 93.4849 61.5608 93.1741 60.991C92.8633 60.4088 92.7079 59.7399 92.7079 58.9843C92.7079 58.2163 92.8633 57.5474 93.1741 56.9775C93.4849 56.4077 93.9033 55.968 94.4292 55.6583C94.9552 55.3363 95.5469 55.1752 96.2044 55.1752C96.8738 55.1752 97.4715 55.3363 97.9975 55.6583C98.5355 55.968 98.9538 56.4077 99.2527 56.9775C99.5635 57.5474 99.7189 58.2163 99.7189 58.9843C99.7189 59.7399 99.5635 60.4088 99.2527 60.991C98.9538 61.5608 98.5355 62.0067 97.9975 62.3288Z" fill="black"/>
<path fill-rule="evenodd" clip-rule="evenodd" d="M93.6941 63.3321C94.4113 63.7533 95.2182 63.9639 96.1148 63.9639C96.9515 63.9639 97.6927 63.7719 98.3382 63.3879C98.9169 63.039 99.3891 62.5558 99.7548 61.9382V63.871H100.974V50.0841H99.701V55.9712C99.3404 55.3836 98.8802 54.9263 98.3203 54.5992C97.6748 54.2152 96.9396 54.0232 96.1148 54.0232C95.2182 54.0232 94.4113 54.2338 93.6941 54.655C92.9888 55.0637 92.4329 55.6397 92.0265 56.383C91.62 57.1262 91.4168 57.9933 91.4168 58.9843C91.4168 59.9628 91.62 60.8299 92.0265 61.5855C92.4329 62.3288 92.9888 62.911 93.6941 63.3321ZM97.9975 62.3288C97.4715 62.6385 96.8738 62.7933 96.2044 62.7933C95.5469 62.7933 94.9552 62.6385 94.4292 62.3288C93.9033 62.0067 93.4849 61.5608 93.1741 60.991C92.8633 60.4088 92.7079 59.7399 92.7079 58.9843C92.7079 58.2163 92.8633 57.5474 93.1741 56.9775C93.4849 56.4077 93.9033 55.968 94.4292 55.6583C94.9552 55.3363 95.5469 55.1752 96.2044 55.1752C96.8738 55.1752 97.4715 55.3363 97.9975 55.6583C98.5355 55.968 98.9538 56.4077 99.2527 56.9775C99.5635 57.5474 99.7189 58.2163 99.7189 58.9843C99.7189 59.7399 99.5635 60.4088 99.2527 60.991C98.9538 61.5608 98.5355 62.0067 97.9975 62.3288Z" fill="black"/>
<path d="M105.793 50.0841H104.52V63.871H105.793V50.0841Z" fill="black"/>
<path d="M105.793 50.0841H104.52V63.871H105.793V50.0841Z" fill="black"/>
<path fill-rule="evenodd" clip-rule="evenodd" d="M110.752 63.3321C111.493 63.7533 112.354 63.9639 113.334 63.9639C114.087 63.9639 114.774 63.8276 115.396 63.5551C116.029 63.2826 116.555 62.8862 116.974 62.3659L116.257 61.5112C115.898 61.9448 115.468 62.2668 114.965 62.4774C114.475 62.688 113.943 62.7933 113.37 62.7933C112.64 62.7933 111.989 62.6385 111.415 62.3288C110.853 62.0067 110.411 61.567 110.088 61.0095C109.828 60.5317 109.676 59.9929 109.634 59.393H117.548V59.1886C117.559 59.1143 117.565 59.0462 117.565 58.9843C117.565 58.0057 117.368 57.1448 116.974 56.4015C116.579 55.6459 116.035 55.0637 115.342 54.655C114.661 54.2338 113.878 54.0232 112.993 54.0232C112.12 54.0232 111.331 54.24 110.626 54.6735C109.933 55.0947 109.383 55.6769 108.976 56.4201C108.582 57.1634 108.385 58.0181 108.385 58.9843C108.385 59.9505 108.594 60.8114 109.012 61.567C109.431 62.3102 110.011 62.8986 110.752 63.3321ZM109.64 58.4083C109.686 57.8616 109.824 57.3661 110.052 56.9218C110.339 56.3644 110.74 55.9308 111.254 55.6212C111.768 55.3115 112.348 55.1566 112.993 55.1566C113.651 55.1566 114.23 55.3115 114.732 55.6212C115.234 55.9308 115.629 56.3644 115.916 56.9218C116.158 57.3642 116.303 57.8597 116.348 58.4083H109.64Z" fill="black"/>
<path fill-rule="evenodd" clip-rule="evenodd" d="M110.752 63.3321C111.493 63.7533 112.354 63.9639 113.334 63.9639C114.087 63.9639 114.774 63.8276 115.396 63.5551C116.029 63.2826 116.555 62.8862 116.974 62.3659L116.257 61.5112C115.898 61.9448 115.468 62.2668 114.965 62.4774C114.475 62.688 113.943 62.7933 113.37 62.7933C112.64 62.7933 111.989 62.6385 111.415 62.3288C110.853 62.0067 110.411 61.567 110.088 61.0095C109.828 60.5317 109.676 59.9929 109.634 59.393H117.548V59.1886C117.559 59.1143 117.565 59.0462 117.565 58.9843C117.565 58.0057 117.368 57.1448 116.974 56.4015C116.579 55.6459 116.035 55.0637 115.342 54.655C114.661 54.2338 113.878 54.0232 112.993 54.0232C112.12 54.0232 111.331 54.24 110.626 54.6735C109.933 55.0947 109.383 55.6769 108.976 56.4201C108.582 57.1634 108.385 58.0181 108.385 58.9843C108.385 59.9505 108.594 60.8114 109.012 61.567C109.431 62.3102 110.011 62.8986 110.752 63.3321ZM109.64 58.4083C109.686 57.8616 109.824 57.3661 110.052 56.9218C110.339 56.3644 110.74 55.9308 111.254 55.6212C111.768 55.3115 112.348 55.1566 112.993 55.1566C113.651 55.1566 114.23 55.3115 114.732 55.6212C115.234 55.9308 115.629 56.3644 115.916 56.9218C116.158 57.3642 116.303 57.8597 116.348 58.4083H109.64Z" fill="black"/>
<path fill-rule="evenodd" clip-rule="evenodd" d="M0 0V72H130V0H0ZM1.12069 70.8387V1.16129H128.879V70.8387H1.12069Z" fill="black"/>
<path fill-rule="evenodd" clip-rule="evenodd" d="M0 0V72H130V0H0ZM1.12069 70.8387V1.16129H128.879V70.8387H1.12069Z" fill="black"/>
</g>
<defs>
<clipPath id="clip0_11_26">
<rect width="130" height="72" fill="white"/>
</clipPath>
</defs>
</svg>
