<svg width="24" height="24" viewBox="0 0 24 24" fill="none" xmlns="http://www.w3.org/2000/svg">
<path d="M23.7131 22.5258L18.017 17.1007C19.8744 15.2727 21.0508 12.7961 21.0508 10.0246C21.0508 4.48157 16.3453 0 10.5254 0C4.70547 0 0 4.48157 0 10.0246C0 15.5676 4.70547 20.0491 10.5254 20.0491C12.7543 20.0491 14.8594 19.3415 16.593 18.2211L22.4129 23.7641C22.5987 23.941 22.8463 24 23.094 24C23.3416 24 23.5893 23.941 23.775 23.7641C24.0846 23.4103 24.0846 22.8796 23.7131 22.5258ZM1.85742 10.0246C1.85742 5.48403 5.75802 1.76904 10.5254 1.76904C15.2928 1.76904 19.1934 5.48403 19.1934 10.0246C19.1934 14.5651 15.2928 18.2801 10.5254 18.2801C5.75802 18.2801 1.85742 14.5651 1.85742 10.0246Z" fill="#2F3035"/>
</svg>
