<svg width="352" height="140" viewBox="0 0 352 140" fill="none" xmlns="http://www.w3.org/2000/svg">
<rect width="352" height="140" fill="#FFF5E8"/>
<path d="M321.724 38.5228H321.204C321.435 37.352 321.315 36.1391 320.841 35.015C319.546 31.9473 315.998 30.5045 312.93 31.7981C309.863 33.0921 308.42 36.6405 309.714 39.7083C310.34 41.1943 311.508 42.3473 313.002 42.955C313.737 43.2538 314.508 43.403 315.278 43.403C316.073 43.403 316.869 43.2435 317.624 42.9251C318.781 42.4368 319.736 41.6189 320.389 40.5756H321.724C323.501 40.5756 324.947 42.0216 324.947 43.7989V66.1905C324.947 67.9678 323.501 69.414 321.724 69.414H272.276C270.499 69.414 269.053 67.968 269.053 66.1905V43.7991C269.053 42.0218 270.499 40.5757 272.276 40.5757H305.305C305.872 40.5757 306.332 40.1161 306.332 39.5493C306.332 38.9824 305.872 38.5228 305.305 38.5228H272.276C269.367 38.5228 267 40.8898 267 43.7991V66.1907C267 69.1001 269.367 71.4669 272.276 71.4669H321.724C324.633 71.4669 327 69.1001 327 66.1907V43.7991C327 40.8898 324.633 38.5228 321.724 38.5228ZM318.969 38.8631C318.568 39.8491 317.807 40.6202 316.826 41.0338C315.845 41.4475 314.762 41.4546 313.776 41.0535C312.79 40.6525 312.019 39.8914 311.605 38.9106C310.751 36.8858 311.703 34.5437 313.728 33.6898C314.232 33.4771 314.756 33.3764 315.272 33.3764C316.827 33.3764 318.308 34.2923 318.949 35.813C319.363 36.7937 319.37 37.8769 318.969 38.8631Z" fill="#735F3D"/>
<path d="M315.757 44.8819H278.243C276.127 44.8819 274.405 46.604 274.405 48.7206V61.2689C274.405 63.3857 276.127 65.1076 278.243 65.1076H310.055C310.622 65.1076 311.081 64.6483 311.081 64.0812C311.081 63.5141 310.622 63.0547 310.055 63.0547H278.243C277.259 63.0547 276.457 62.2537 276.457 61.2688V48.7206C276.457 47.736 277.259 46.9347 278.243 46.9347H315.756C316.741 46.9347 317.542 47.7358 317.542 48.7206V61.2689C317.542 62.2535 316.741 63.0549 315.756 63.0549C315.19 63.0549 314.73 63.5142 314.73 64.0813C314.73 64.6484 315.19 65.1078 315.756 65.1078C317.873 65.1078 319.595 63.3857 319.595 61.269V48.7206C319.595 46.604 317.873 44.8819 315.757 44.8819Z" fill="#735F3D"/>
<path d="M309.634 27.0244C308.627 24.6368 305.866 23.5133 303.478 24.5207C301.09 25.5276 299.967 28.2895 300.974 30.6771C301.462 31.8336 302.371 32.7312 303.534 33.204C304.106 33.4366 304.705 33.5529 305.304 33.5529C305.924 33.5529 306.543 33.4288 307.13 33.1809C308.287 32.6931 309.184 31.7839 309.657 30.6212C310.131 29.4583 310.122 28.181 309.634 27.0244ZM307.756 29.8476C307.49 30.5025 306.984 31.0145 306.333 31.2893C305.681 31.564 304.962 31.5688 304.307 31.3023C303.652 31.0359 303.14 30.5306 302.865 29.8792C302.299 28.5346 302.931 26.9791 304.276 26.4119C304.927 26.137 305.646 26.1324 306.301 26.3988C306.956 26.6652 307.468 27.1705 307.743 27.8219C308.018 28.4734 308.022 29.1927 307.756 29.8476Z" fill="#735F3D"/>
<path d="M320.122 20.644C319.764 19.795 319.097 19.1363 318.243 18.789C317.39 18.4418 316.452 18.448 315.603 18.8062C314.754 19.1643 314.095 19.8315 313.748 20.6851C313.401 21.5387 313.407 22.4765 313.765 23.3255C314.123 24.1744 314.79 24.8332 315.644 25.1802C316.064 25.351 316.504 25.4363 316.944 25.4363C317.398 25.4363 317.853 25.3451 318.284 25.1632C319.133 24.8051 319.792 24.1378 320.139 23.2842C320.486 22.4308 320.48 21.4931 320.122 20.644ZM317.486 23.2719C316.777 23.5715 315.956 23.2375 315.656 22.5277C315.357 21.818 315.691 20.997 316.401 20.6977C316.578 20.6231 316.761 20.5878 316.942 20.5878C317.487 20.5878 318.006 20.9088 318.231 21.4418C318.53 22.1516 318.196 22.9726 317.486 23.2719Z" fill="#735F3D"/>
<path d="M286.396 55.6037C286.086 55.1044 285.597 54.6969 284.901 54.3576C284.378 54.1089 283.726 53.91 282.909 53.7499L282.86 53.7461C282.144 53.612 281.539 53.3997 281.197 53.1627C281.047 53.0591 280.933 52.9504 280.874 52.8566C280.832 52.7901 280.806 52.7189 280.806 52.5709C280.806 52.3138 280.959 52.0708 281.259 51.8485C281.635 51.5697 282.165 51.4098 282.714 51.4098C283.504 51.4098 284.157 51.8024 284.868 52.2769C285.079 52.4169 285.329 52.4651 285.574 52.4121C285.818 52.3596 286.025 52.2147 286.151 52.0119C286.439 51.5985 286.327 51.0216 285.897 50.7221L285.861 50.6987C285.12 50.219 284.105 49.562 282.714 49.562C281.765 49.562 280.857 49.841 280.155 50.3489C279.386 50.9174 278.945 51.7272 278.945 52.5706C278.945 53.0257 279.068 53.4628 279.3 53.8349C279.606 54.3204 280.075 54.7158 280.697 55.0099C281.193 55.2453 281.803 55.4301 282.563 55.5756L282.611 55.5791C283.394 55.7268 284.062 55.9554 284.446 56.2068C284.612 56.3175 284.726 56.4311 284.806 56.5641C284.878 56.6842 284.904 56.7746 284.904 56.9092C284.904 57.2188 284.728 57.5044 284.382 57.7582C283.965 58.0642 283.367 58.2399 282.739 58.2399C281.8 58.2497 280.777 57.6887 280.182 57.2015C279.989 57.0442 279.746 56.97 279.497 56.994C279.247 57.0177 279.022 57.1367 278.864 57.329L278.861 57.3335C278.549 57.7369 278.614 58.3259 279.009 58.6486C279.838 59.3032 281.159 60.0869 282.742 60.1015C283.761 60.1015 284.73 59.8021 285.468 59.2599C286.292 58.6664 286.765 57.8099 286.765 56.9097C286.765 56.4482 286.634 55.9842 286.396 55.6037Z" fill="#735F3D"/>
<path d="M296.657 51.1358C295.775 50.1505 294.46 49.5621 293.139 49.5621C291.774 49.5621 290.461 50.1355 289.538 51.1342C288.603 52.1298 288.087 53.4455 288.087 54.8389C288.087 56.2472 288.603 57.5633 289.538 58.5434C290.475 59.5425 291.788 60.1155 293.139 60.1155C294.447 60.1155 295.762 59.5268 296.654 58.5446C297.608 57.5441 298.134 56.2282 298.134 54.8389C298.134 53.4655 297.609 52.1506 296.657 51.1358ZM295.215 57.1499C294.643 57.7621 293.906 58.0991 293.139 58.0991C292.324 58.0991 291.586 57.771 291.004 57.1466C290.432 56.5614 290.104 55.7203 290.104 54.839C290.104 53.9624 290.433 53.1154 291.007 52.5139C291.578 51.9021 292.315 51.5788 293.139 51.5788C293.915 51.5788 294.652 51.9109 295.214 52.5136C295.788 53.1293 296.117 53.9768 296.117 54.8389C296.117 55.7059 295.789 56.5477 295.215 57.1499Z" fill="#735F3D"/>
<path d="M307.503 58.7817L304.388 50.4789C304.23 50.093 303.853 49.8421 303.451 49.858C303.053 49.8423 302.67 50.0981 302.512 50.4843L299.397 58.7869C299.218 59.3079 299.475 59.8672 299.991 60.0628C300.099 60.0988 300.205 60.1157 300.324 60.1157C300.73 60.1157 301.092 59.872 301.249 59.4899L301.889 57.7914H305.028L305.667 59.4877C305.804 59.8634 306.17 60.1158 306.579 60.1158C306.654 60.1158 306.799 60.1084 306.919 60.0602C307.427 59.8672 307.685 59.3079 307.503 58.7817ZM302.607 55.8308L303.451 53.5897L304.295 55.8308H302.607Z" fill="#735F3D"/>
<path d="M312.537 49.8439H310.016C309.475 49.8439 309.036 50.2836 309.036 50.824V59.1354C309.036 59.6757 309.475 60.1154 310.016 60.1154C310.564 60.1154 311.01 59.6757 311.01 59.1354V56.2836H312.537C314.321 56.2836 315.771 54.8454 315.771 53.0778C315.771 51.2947 314.321 49.8439 312.537 49.8439ZM312.537 54.3095H311.01V51.8182H312.537C313.232 51.8182 313.785 52.3731 313.797 53.0743C313.785 53.7668 313.231 54.3095 312.537 54.3095Z" fill="#735F3D"/>
<path d="M83.1068 99V87.8H92.5308V99H91.3628V88.504L91.6668 88.824H83.9708L84.2748 88.504V99H83.1068ZM99.4939 99.08C98.6832 99.08 97.9525 98.8987 97.3019 98.536C96.6619 98.1627 96.1552 97.656 95.7819 97.016C95.4085 96.3653 95.2219 95.624 95.2219 94.792C95.2219 93.9493 95.4085 93.208 95.7819 92.568C96.1552 91.928 96.6619 91.4267 97.3019 91.064C97.9419 90.7013 98.6725 90.52 99.4939 90.52C100.326 90.52 101.062 90.7013 101.702 91.064C102.353 91.4267 102.859 91.928 103.222 92.568C103.595 93.208 103.782 93.9493 103.782 94.792C103.782 95.624 103.595 96.3653 103.222 97.016C102.859 97.656 102.353 98.1627 101.702 98.536C101.051 98.8987 100.315 99.08 99.4939 99.08ZM99.4939 98.072C100.102 98.072 100.641 97.9387 101.11 97.672C101.579 97.3947 101.947 97.0107 102.214 96.52C102.491 96.0187 102.63 95.4427 102.63 94.792C102.63 94.1307 102.491 93.5547 102.214 93.064C101.947 92.5733 101.579 92.1947 101.11 91.928C100.641 91.6507 100.107 91.512 99.5099 91.512C98.9125 91.512 98.3792 91.6507 97.9099 91.928C97.4405 92.1947 97.0672 92.5733 96.7899 93.064C96.5125 93.5547 96.3739 94.1307 96.3739 94.792C96.3739 95.4427 96.5125 96.0187 96.7899 96.52C97.0672 97.0107 97.4405 97.3947 97.9099 97.672C98.3792 97.9387 98.9072 98.072 99.4939 98.072ZM106.21 99V90.6H107.346V94.312H112.642V90.6H113.778V99H112.642V95.288H107.346V99H106.21ZM122.223 99V97.144L122.175 96.84V93.736C122.175 93.0213 121.972 92.472 121.567 92.088C121.172 91.704 120.58 91.512 119.791 91.512C119.247 91.512 118.729 91.6027 118.239 91.784C117.748 91.9653 117.332 92.2053 116.991 92.504L116.479 91.656C116.905 91.2933 117.417 91.016 118.015 90.824C118.612 90.6213 119.241 90.52 119.903 90.52C120.991 90.52 121.828 90.792 122.415 91.336C123.012 91.8693 123.311 92.6853 123.311 93.784V99H122.223ZM119.327 99.08C118.697 99.08 118.148 98.9787 117.679 98.776C117.22 98.5627 116.868 98.2747 116.623 97.912C116.377 97.5387 116.255 97.112 116.255 96.632C116.255 96.1947 116.356 95.8 116.559 95.448C116.772 95.0853 117.113 94.7973 117.583 94.584C118.063 94.36 118.703 94.248 119.503 94.248H122.399V95.096H119.535C118.724 95.096 118.159 95.24 117.839 95.528C117.529 95.816 117.375 96.1733 117.375 96.6C117.375 97.08 117.561 97.464 117.935 97.752C118.308 98.04 118.831 98.184 119.503 98.184C120.143 98.184 120.692 98.04 121.151 97.752C121.62 97.4533 121.961 97.0267 122.175 96.472L122.431 97.256C122.217 97.8107 121.844 98.2533 121.311 98.584C120.788 98.9147 120.127 99.08 119.327 99.08ZM132.095 98.456V91.592H128.047L127.951 93.464C127.929 94.0293 127.892 94.584 127.839 95.128C127.796 95.672 127.716 96.1733 127.599 96.632C127.492 97.08 127.337 97.448 127.135 97.736C126.932 98.0133 126.671 98.1733 126.351 98.216L125.215 98.008C125.545 98.0187 125.817 97.9013 126.031 97.656C126.244 97.4 126.409 97.0533 126.527 96.616C126.644 96.1787 126.729 95.6827 126.783 95.128C126.836 94.5627 126.879 93.9867 126.911 93.4L127.023 90.6H133.231V98.456H132.095ZM124.863 101.032V98.008H134.543V101.032H133.471V99H125.935V101.032H124.863ZM143.696 99.096C142.896 99.096 142.133 98.968 141.408 98.712C140.683 98.4453 140.107 98.0933 139.68 97.656L140.24 96.744C140.592 97.1173 141.072 97.4267 141.68 97.672C142.299 97.9173 142.965 98.04 143.68 98.04C144.629 98.04 145.349 97.832 145.84 97.416C146.341 96.9893 146.592 96.4347 146.592 95.752C146.592 95.272 146.475 94.8613 146.24 94.52C146.016 94.168 145.632 93.896 145.088 93.704C144.544 93.512 143.797 93.416 142.848 93.416H140.464L141.04 87.8H147.168V88.824H141.504L142.096 88.264L141.6 92.968L141.008 92.392H143.104C144.235 92.392 145.141 92.5307 145.824 92.808C146.507 93.0853 146.997 93.4747 147.296 93.976C147.605 94.4667 147.76 95.0427 147.76 95.704C147.76 96.3333 147.611 96.9093 147.312 97.432C147.013 97.944 146.565 98.3493 145.968 98.648C145.371 98.9467 144.613 99.096 143.696 99.096ZM153.687 99.096C152.823 99.096 152.055 98.872 151.383 98.424C150.711 97.9653 150.183 97.3147 149.799 96.472C149.415 95.6187 149.223 94.5947 149.223 93.4C149.223 92.2053 149.415 91.1867 149.799 90.344C150.183 89.4907 150.711 88.84 151.383 88.392C152.055 87.9333 152.823 87.704 153.687 87.704C154.551 87.704 155.319 87.9333 155.991 88.392C156.663 88.84 157.191 89.4907 157.575 90.344C157.969 91.1867 158.167 92.2053 158.167 93.4C158.167 94.5947 157.969 95.6187 157.575 96.472C157.191 97.3147 156.663 97.9653 155.991 98.424C155.319 98.872 154.551 99.096 153.687 99.096ZM153.687 98.04C154.348 98.04 154.924 97.864 155.415 97.512C155.905 97.1493 156.289 96.6267 156.567 95.944C156.844 95.2507 156.983 94.4027 156.983 93.4C156.983 92.3973 156.844 91.5547 156.567 90.872C156.289 90.1787 155.905 89.656 155.415 89.304C154.924 88.9413 154.348 88.76 153.687 88.76C153.047 88.76 152.476 88.9413 151.975 89.304C151.473 89.656 151.084 90.1787 150.807 90.872C150.529 91.5547 150.391 92.3973 150.391 93.4C150.391 94.4027 150.529 95.2507 150.807 95.944C151.084 96.6267 151.473 97.1493 151.975 97.512C152.476 97.864 153.047 98.04 153.687 98.04ZM169.124 99.08C168.399 99.08 167.743 98.9147 167.156 98.584C166.569 98.2427 166.1 97.7573 165.748 97.128C165.407 96.488 165.236 95.7093 165.236 94.792C165.236 93.8747 165.407 93.1013 165.748 92.472C166.089 91.832 166.553 91.3467 167.14 91.016C167.727 90.6853 168.388 90.52 169.124 90.52C169.924 90.52 170.639 90.7013 171.268 91.064C171.908 91.416 172.409 91.9173 172.772 92.568C173.135 93.208 173.316 93.9493 173.316 94.792C173.316 95.6453 173.135 96.392 172.772 97.032C172.409 97.672 171.908 98.1733 171.268 98.536C170.639 98.8987 169.924 99.08 169.124 99.08ZM164.788 102.104V90.6H165.876V93.128L165.764 94.808L165.924 96.504V102.104H164.788ZM169.044 98.072C169.641 98.072 170.175 97.9387 170.644 97.672C171.113 97.3947 171.487 97.0107 171.764 96.52C172.041 96.0187 172.18 95.4427 172.18 94.792C172.18 94.1413 172.041 93.5707 171.764 93.08C171.487 92.5893 171.113 92.2053 170.644 91.928C170.175 91.6507 169.641 91.512 169.044 91.512C168.447 91.512 167.908 91.6507 167.428 91.928C166.959 92.2053 166.585 92.5893 166.308 93.08C166.041 93.5707 165.908 94.1413 165.908 94.792C165.908 95.4427 166.041 96.0187 166.308 96.52C166.585 97.0107 166.959 97.3947 167.428 97.672C167.908 97.9387 168.447 98.072 169.044 98.072ZM175.757 99V90.6H176.893V99H175.757ZM176.333 88.744C176.098 88.744 175.901 88.664 175.741 88.504C175.581 88.344 175.501 88.152 175.501 87.928C175.501 87.704 175.581 87.5173 175.741 87.368C175.901 87.208 176.098 87.128 176.333 87.128C176.567 87.128 176.765 87.2027 176.925 87.352C177.085 87.5013 177.165 87.688 177.165 87.912C177.165 88.1467 177.085 88.344 176.925 88.504C176.775 88.664 176.578 88.744 176.333 88.744ZM182.216 99.096C182.909 99.096 183.533 98.9893 184.088 98.776C184.653 98.5627 185.101 98.2693 185.432 97.896C185.762 97.512 185.928 97.0693 185.928 96.568C185.928 95.928 185.656 95.4213 185.112 95.048C184.578 94.6747 183.832 94.488 182.872 94.488L182.824 94.792C183.368 94.792 183.853 94.7067 184.28 94.536C184.706 94.3653 185.048 94.1253 185.304 93.816C185.56 93.5067 185.688 93.144 185.688 92.728C185.688 92.2587 185.528 91.8587 185.208 91.528C184.888 91.1867 184.456 90.9253 183.912 90.744C183.378 90.5627 182.776 90.4827 182.104 90.504C181.613 90.504 181.122 90.5733 180.632 90.712C180.152 90.84 179.666 91.032 179.176 91.288L179.496 92.168C179.933 91.944 180.376 91.7787 180.824 91.672C181.272 91.5547 181.704 91.4907 182.12 91.48C182.578 91.48 182.989 91.5333 183.352 91.64C183.714 91.7467 183.997 91.9067 184.2 92.12C184.413 92.3333 184.52 92.5893 184.52 92.888C184.52 93.1653 184.429 93.4053 184.248 93.608C184.077 93.8107 183.832 93.9653 183.512 94.072C183.192 94.1787 182.824 94.232 182.408 94.232H181.048V95.064H182.488C183.192 95.064 183.746 95.192 184.152 95.448C184.557 95.6933 184.76 96.04 184.76 96.488C184.76 96.7973 184.653 97.0747 184.44 97.32C184.226 97.5653 183.928 97.7573 183.544 97.896C183.16 98.0347 182.706 98.1093 182.184 98.12C181.661 98.12 181.133 98.0453 180.6 97.896C180.066 97.736 179.597 97.5067 179.192 97.208L178.824 98.056C179.282 98.408 179.81 98.6693 180.408 98.84C181.005 99.0107 181.608 99.096 182.216 99.096ZM188.507 99V90.6H189.643V94.312H194.939V90.6H196.075V99H194.939V95.288H189.643V99H188.507ZM199.304 99V90.6H200.44V97.272L206.056 90.6H207.064V99H205.928V92.312L200.328 99H199.304ZM208.943 99L212.495 94.392L212.479 94.952L209.103 90.6H210.383L213.151 94.2L212.671 94.184L215.439 90.6H216.687L213.279 95L213.295 94.392L216.879 99H215.583L212.655 95.16L213.103 95.224L210.223 99H208.943ZM222.929 99V90.6H226.641C227.59 90.6 228.337 90.7813 228.881 91.144C229.435 91.5067 229.713 92.04 229.713 92.744C229.713 93.4267 229.451 93.9547 228.929 94.328C228.406 94.6907 227.718 94.872 226.865 94.872L227.089 94.536C228.091 94.536 228.827 94.7227 229.297 95.096C229.766 95.4693 230.001 96.008 230.001 96.712C230.001 97.4373 229.734 98.0027 229.201 98.408C228.678 98.8027 227.862 99 226.753 99H222.929ZM224.033 98.104H226.705C227.419 98.104 227.958 97.992 228.321 97.768C228.694 97.5333 228.881 97.16 228.881 96.648C228.881 96.136 228.715 95.7627 228.385 95.528C228.054 95.2933 227.531 95.176 226.817 95.176H224.033V98.104ZM224.033 94.328H226.561C227.211 94.328 227.707 94.2053 228.049 93.96C228.401 93.7147 228.577 93.3573 228.577 92.888C228.577 92.4187 228.401 92.0667 228.049 91.832C227.707 91.5973 227.211 91.48 226.561 91.48H224.033V94.328ZM232.663 99V90.6H233.799V97.272L239.415 90.6H240.423V99H239.287V92.312L233.687 99H232.663ZM249.439 98.456V91.592H245.391L245.295 93.464C245.273 94.0293 245.236 94.584 245.183 95.128C245.14 95.672 245.06 96.1733 244.943 96.632C244.836 97.08 244.681 97.448 244.479 97.736C244.276 98.0133 244.015 98.1733 243.695 98.216L242.559 98.008C242.889 98.0187 243.161 97.9013 243.375 97.656C243.588 97.4 243.753 97.0533 243.871 96.616C243.988 96.1787 244.073 95.6827 244.127 95.128C244.18 94.5627 244.223 93.9867 244.255 93.4L244.367 90.6H250.575V98.456H249.439ZM242.207 101.032V98.008H251.887V101.032H250.815V99H243.279V101.032H242.207ZM254.1 99V90.6H255.236V99H254.1ZM254.676 88.744C254.442 88.744 254.244 88.664 254.084 88.504C253.924 88.344 253.844 88.152 253.844 87.928C253.844 87.704 253.924 87.5173 254.084 87.368C254.244 87.208 254.442 87.128 254.676 87.128C254.911 87.128 255.108 87.2027 255.268 87.352C255.428 87.5013 255.508 87.688 255.508 87.912C255.508 88.1467 255.428 88.344 255.268 88.504C255.119 88.664 254.922 88.744 254.676 88.744ZM258.475 99V90.6H262.187C263.137 90.6 263.883 90.7813 264.427 91.144C264.982 91.5067 265.259 92.04 265.259 92.744C265.259 93.4267 264.998 93.9547 264.475 94.328C263.953 94.6907 263.265 94.872 262.411 94.872L262.635 94.536C263.638 94.536 264.374 94.7227 264.843 95.096C265.313 95.4693 265.547 96.008 265.547 96.712C265.547 97.4373 265.281 98.0027 264.747 98.408C264.225 98.8027 263.409 99 262.299 99H258.475ZM259.579 98.104H262.251C262.966 98.104 263.505 97.992 263.867 97.768C264.241 97.5333 264.427 97.16 264.427 96.648C264.427 96.136 264.262 95.7627 263.931 95.528C263.601 95.2933 263.078 95.176 262.363 95.176H259.579V98.104ZM259.579 94.328H262.107C262.758 94.328 263.254 94.2053 263.595 93.96C263.947 93.7147 264.123 93.3573 264.123 92.888C264.123 92.4187 263.947 92.0667 263.595 91.832C263.254 91.5973 262.758 91.48 262.107 91.48H259.579V94.328ZM94.5691 119V110.6H95.7211L99.5291 117.048H99.0491L102.921 110.6H103.977V119H102.937V111.896L103.145 111.992L99.5291 117.976H99.0171L95.3691 111.928L95.6091 111.88V119H94.5691ZM107.21 119V110.6H108.346V117.272L113.962 110.6H114.97V119H113.834V112.312L108.234 119H107.21ZM116.689 118.984L116.769 118.008C116.844 118.019 116.913 118.035 116.977 118.056C117.052 118.067 117.116 118.072 117.169 118.072C117.511 118.072 117.783 117.944 117.985 117.688C118.199 117.432 118.359 117.091 118.465 116.664C118.572 116.237 118.647 115.757 118.689 115.224C118.732 114.68 118.769 114.136 118.801 113.592L118.945 110.6H125.105V119H123.969V111.256L124.257 111.592H119.681L119.953 111.24L119.825 113.672C119.793 114.397 119.735 115.091 119.649 115.752C119.575 116.413 119.452 116.995 119.281 117.496C119.121 117.997 118.897 118.392 118.609 118.68C118.321 118.957 117.953 119.096 117.505 119.096C117.377 119.096 117.244 119.085 117.105 119.064C116.977 119.043 116.839 119.016 116.689 118.984ZM133.551 119V117.144L133.503 116.84V113.736C133.503 113.021 133.3 112.472 132.895 112.088C132.5 111.704 131.908 111.512 131.119 111.512C130.575 111.512 130.057 111.603 129.567 111.784C129.076 111.965 128.66 112.205 128.319 112.504L127.807 111.656C128.233 111.293 128.745 111.016 129.343 110.824C129.94 110.621 130.569 110.52 131.231 110.52C132.319 110.52 133.156 110.792 133.743 111.336C134.34 111.869 134.639 112.685 134.639 113.784V119H133.551ZM130.655 119.08C130.025 119.08 129.476 118.979 129.007 118.776C128.548 118.563 128.196 118.275 127.951 117.912C127.705 117.539 127.583 117.112 127.583 116.632C127.583 116.195 127.684 115.8 127.887 115.448C128.1 115.085 128.441 114.797 128.911 114.584C129.391 114.36 130.031 114.248 130.831 114.248H133.727V115.096H130.863C130.052 115.096 129.487 115.24 129.167 115.528C128.857 115.816 128.703 116.173 128.703 116.6C128.703 117.08 128.889 117.464 129.263 117.752C129.636 118.04 130.159 118.184 130.831 118.184C131.471 118.184 132.02 118.04 132.479 117.752C132.948 117.453 133.289 117.027 133.503 116.472L133.759 117.256C133.545 117.811 133.172 118.253 132.639 118.584C132.116 118.915 131.455 119.08 130.655 119.08ZM146.186 119.08C145.461 119.08 144.805 118.915 144.218 118.584C143.632 118.243 143.162 117.757 142.81 117.128C142.469 116.488 142.298 115.709 142.298 114.792C142.298 113.875 142.469 113.101 142.81 112.472C143.152 111.832 143.616 111.347 144.202 111.016C144.789 110.685 145.45 110.52 146.186 110.52C146.986 110.52 147.701 110.701 148.33 111.064C148.97 111.416 149.472 111.917 149.834 112.568C150.197 113.208 150.378 113.949 150.378 114.792C150.378 115.645 150.197 116.392 149.834 117.032C149.472 117.672 148.97 118.173 148.33 118.536C147.701 118.899 146.986 119.08 146.186 119.08ZM141.85 122.104V110.6H142.938V113.128L142.826 114.808L142.986 116.504V122.104H141.85ZM146.106 118.072C146.704 118.072 147.237 117.939 147.706 117.672C148.176 117.395 148.549 117.011 148.826 116.52C149.104 116.019 149.242 115.443 149.242 114.792C149.242 114.141 149.104 113.571 148.826 113.08C148.549 112.589 148.176 112.205 147.706 111.928C147.237 111.651 146.704 111.512 146.106 111.512C145.509 111.512 144.97 111.651 144.49 111.928C144.021 112.205 143.648 112.589 143.37 113.08C143.104 113.571 142.97 114.141 142.97 114.792C142.97 115.443 143.104 116.019 143.37 116.52C143.648 117.011 144.021 117.395 144.49 117.672C144.97 117.939 145.509 118.072 146.106 118.072ZM152.729 122.184C152.334 122.184 151.955 122.12 151.593 121.992C151.241 121.864 150.937 121.672 150.681 121.416L151.209 120.568C151.422 120.771 151.651 120.925 151.897 121.032C152.153 121.149 152.435 121.208 152.745 121.208C153.118 121.208 153.438 121.101 153.705 120.888C153.982 120.685 154.243 120.323 154.489 119.8L155.033 118.568L155.161 118.392L158.617 110.6H159.737L155.529 120.008C155.294 120.552 155.033 120.984 154.745 121.304C154.467 121.624 154.163 121.848 153.833 121.976C153.502 122.115 153.134 122.184 152.729 122.184ZM154.969 119.24L151.097 110.6H152.281L155.705 118.312L154.969 119.24ZM166.819 115.448C166.328 115.661 165.832 115.832 165.331 115.96C164.84 116.077 164.349 116.136 163.859 116.136C162.867 116.136 162.083 115.912 161.507 115.464C160.931 115.005 160.643 114.301 160.643 113.352V110.6H161.763V113.288C161.763 113.928 161.971 114.408 162.387 114.728C162.803 115.048 163.363 115.208 164.067 115.208C164.493 115.208 164.941 115.155 165.411 115.048C165.88 114.931 166.355 114.765 166.835 114.552L166.819 115.448ZM166.723 119V110.6H167.859V119H166.723ZM171.085 119V110.6H172.221V114.312H177.517V110.6H178.653V119H177.517V115.288H172.221V119H171.085ZM185.338 119.08C184.527 119.08 183.796 118.899 183.146 118.536C182.506 118.163 181.999 117.656 181.626 117.016C181.252 116.365 181.066 115.624 181.066 114.792C181.066 113.949 181.252 113.208 181.626 112.568C181.999 111.928 182.506 111.427 183.146 111.064C183.786 110.701 184.516 110.52 185.338 110.52C186.17 110.52 186.906 110.701 187.546 111.064C188.196 111.427 188.703 111.928 189.066 112.568C189.439 113.208 189.626 113.949 189.626 114.792C189.626 115.624 189.439 116.365 189.066 117.016C188.703 117.656 188.196 118.163 187.546 118.536C186.895 118.899 186.159 119.08 185.338 119.08ZM185.338 118.072C185.946 118.072 186.484 117.939 186.954 117.672C187.423 117.395 187.791 117.011 188.058 116.52C188.335 116.019 188.474 115.443 188.474 114.792C188.474 114.131 188.335 113.555 188.058 113.064C187.791 112.573 187.423 112.195 186.954 111.928C186.484 111.651 185.951 111.512 185.354 111.512C184.756 111.512 184.223 111.651 183.754 111.928C183.284 112.195 182.911 112.573 182.634 113.064C182.356 113.555 182.218 114.131 182.218 114.792C182.218 115.443 182.356 116.019 182.634 116.52C182.911 117.011 183.284 117.395 183.754 117.672C184.223 117.939 184.751 118.072 185.338 118.072ZM192.022 119V110.6H193.158V119H192.022ZM193.654 108.92C193.472 108.92 193.318 108.856 193.19 108.728C193.062 108.589 192.998 108.424 192.998 108.232C192.998 108.051 193.062 107.896 193.19 107.768C193.318 107.629 193.472 107.56 193.654 107.56C193.846 107.56 194.006 107.624 194.134 107.752C194.262 107.88 194.326 108.04 194.326 108.232C194.326 108.424 194.262 108.589 194.134 108.728C194.006 108.856 193.846 108.92 193.654 108.92ZM191.542 108.92C191.35 108.92 191.19 108.856 191.062 108.728C190.934 108.589 190.87 108.424 190.87 108.232C190.87 108.051 190.934 107.896 191.062 107.768C191.19 107.629 191.35 107.56 191.542 107.56C191.734 107.56 191.888 107.624 192.006 107.752C192.134 107.88 192.198 108.04 192.198 108.232C192.198 108.424 192.134 108.589 192.006 108.728C191.888 108.856 191.734 108.92 191.542 108.92ZM204.874 119.08C204.149 119.08 203.493 118.915 202.906 118.584C202.319 118.243 201.85 117.757 201.498 117.128C201.157 116.488 200.986 115.709 200.986 114.792C200.986 113.875 201.157 113.101 201.498 112.472C201.839 111.832 202.303 111.347 202.89 111.016C203.477 110.685 204.138 110.52 204.874 110.52C205.674 110.52 206.389 110.701 207.018 111.064C207.658 111.416 208.159 111.917 208.522 112.568C208.885 113.208 209.066 113.949 209.066 114.792C209.066 115.645 208.885 116.392 208.522 117.032C208.159 117.672 207.658 118.173 207.018 118.536C206.389 118.899 205.674 119.08 204.874 119.08ZM200.538 122.104V110.6H201.626V113.128L201.514 114.808L201.674 116.504V122.104H200.538ZM204.794 118.072C205.391 118.072 205.925 117.939 206.394 117.672C206.863 117.395 207.237 117.011 207.514 116.52C207.791 116.019 207.93 115.443 207.93 114.792C207.93 114.141 207.791 113.571 207.514 113.08C207.237 112.589 206.863 112.205 206.394 111.928C205.925 111.651 205.391 111.512 204.794 111.512C204.197 111.512 203.658 111.651 203.178 111.928C202.709 112.205 202.335 112.589 202.058 113.08C201.791 113.571 201.658 114.141 201.658 114.792C201.658 115.443 201.791 116.019 202.058 116.52C202.335 117.011 202.709 117.395 203.178 117.672C203.658 117.939 204.197 118.072 204.794 118.072ZM214.963 119.08C214.152 119.08 213.421 118.899 212.771 118.536C212.131 118.163 211.624 117.656 211.251 117.016C210.877 116.365 210.691 115.624 210.691 114.792C210.691 113.949 210.877 113.208 211.251 112.568C211.624 111.928 212.131 111.427 212.771 111.064C213.411 110.701 214.141 110.52 214.963 110.52C215.795 110.52 216.531 110.701 217.171 111.064C217.821 111.427 218.328 111.928 218.691 112.568C219.064 113.208 219.251 113.949 219.251 114.792C219.251 115.624 219.064 116.365 218.691 117.016C218.328 117.656 217.821 118.163 217.171 118.536C216.52 118.899 215.784 119.08 214.963 119.08ZM214.963 118.072C215.571 118.072 216.109 117.939 216.579 117.672C217.048 117.395 217.416 117.011 217.683 116.52C217.96 116.019 218.099 115.443 218.099 114.792C218.099 114.131 217.96 113.555 217.683 113.064C217.416 112.573 217.048 112.195 216.579 111.928C216.109 111.651 215.576 111.512 214.979 111.512C214.381 111.512 213.848 111.651 213.379 111.928C212.909 112.195 212.536 112.573 212.259 113.064C211.981 113.555 211.843 114.131 211.843 114.792C211.843 115.443 211.981 116.019 212.259 116.52C212.536 117.011 212.909 117.395 213.379 117.672C213.848 117.939 214.376 118.072 214.963 118.072ZM225.455 119.096C224.772 119.096 224.164 118.984 223.631 118.76C223.108 118.536 222.66 118.195 222.287 117.736C221.913 117.277 221.631 116.712 221.439 116.04C221.247 115.357 221.151 114.568 221.151 113.672C221.151 112.872 221.225 112.173 221.375 111.576C221.524 110.968 221.732 110.445 221.999 110.008C222.265 109.571 222.575 109.203 222.927 108.904C223.289 108.595 223.679 108.349 224.095 108.168C224.521 107.976 224.959 107.832 225.407 107.736L229.183 106.856L229.375 107.912L225.823 108.712C225.599 108.765 225.327 108.84 225.007 108.936C224.697 109.032 224.377 109.176 224.047 109.368C223.727 109.56 223.428 109.827 223.151 110.168C222.873 110.509 222.649 110.952 222.479 111.496C222.319 112.029 222.239 112.696 222.239 113.496C222.239 113.667 222.244 113.805 222.255 113.912C222.265 114.008 222.276 114.115 222.287 114.232C222.308 114.339 222.324 114.499 222.335 114.712L221.839 114.296C221.956 113.645 222.196 113.08 222.559 112.6C222.921 112.109 223.375 111.731 223.919 111.464C224.473 111.187 225.087 111.048 225.759 111.048C226.537 111.048 227.231 111.219 227.839 111.56C228.447 111.891 228.921 112.355 229.263 112.952C229.615 113.549 229.791 114.243 229.791 115.032C229.791 115.811 229.609 116.509 229.247 117.128C228.895 117.747 228.393 118.232 227.743 118.584C227.092 118.925 226.329 119.096 225.455 119.096ZM225.583 118.152C226.18 118.152 226.708 118.019 227.167 117.752C227.625 117.475 227.983 117.101 228.239 116.632C228.505 116.163 228.639 115.635 228.639 115.048C228.639 114.472 228.505 113.96 228.239 113.512C227.983 113.064 227.625 112.712 227.167 112.456C226.708 112.189 226.175 112.056 225.567 112.056C224.969 112.056 224.441 112.184 223.983 112.44C223.524 112.685 223.161 113.032 222.895 113.48C222.639 113.928 222.511 114.445 222.511 115.032C222.511 115.619 222.639 116.147 222.895 116.616C223.161 117.085 223.524 117.459 223.983 117.736C224.452 118.013 224.985 118.152 225.583 118.152ZM235.681 119.08C234.871 119.08 234.14 118.899 233.489 118.536C232.849 118.163 232.343 117.656 231.969 117.016C231.596 116.365 231.409 115.624 231.409 114.792C231.409 113.949 231.596 113.208 231.969 112.568C232.343 111.928 232.849 111.427 233.489 111.064C234.129 110.701 234.86 110.52 235.681 110.52C236.513 110.52 237.249 110.701 237.889 111.064C238.54 111.427 239.047 111.928 239.409 112.568C239.783 113.208 239.969 113.949 239.969 114.792C239.969 115.624 239.783 116.365 239.409 117.016C239.047 117.656 238.54 118.163 237.889 118.536C237.239 118.899 236.503 119.08 235.681 119.08ZM235.681 118.072C236.289 118.072 236.828 117.939 237.297 117.672C237.767 117.395 238.135 117.011 238.401 116.52C238.679 116.019 238.817 115.443 238.817 114.792C238.817 114.131 238.679 113.555 238.401 113.064C238.135 112.573 237.767 112.195 237.297 111.928C236.828 111.651 236.295 111.512 235.697 111.512C235.1 111.512 234.567 111.651 234.097 111.928C233.628 112.195 233.255 112.573 232.977 113.064C232.7 113.555 232.561 114.131 232.561 114.792C232.561 115.443 232.7 116.019 232.977 116.52C233.255 117.011 233.628 117.395 234.097 117.672C234.567 117.939 235.095 118.072 235.681 118.072ZM243.685 119V111.288L243.973 111.592H240.501V110.6H248.005V111.592H244.533L244.821 111.288V119H243.685ZM249.647 119V110.6H250.783V117.272L256.399 110.6H257.407V119H256.271V112.312L250.671 119H249.647Z" fill="#735F3D"/>
<path d="M49.111 56.192C47.511 56.192 45.9857 55.936 44.535 55.424C43.0843 54.8907 41.9323 54.1867 41.079 53.312L42.199 51.488C42.903 52.2347 43.863 52.8533 45.079 53.344C46.3163 53.8347 47.6497 54.08 49.079 54.08C50.9777 54.08 52.4177 53.664 53.399 52.832C54.4017 51.9787 54.903 50.8693 54.903 49.504C54.903 48.544 54.6683 47.7227 54.199 47.04C53.751 46.336 52.983 45.792 51.895 45.408C50.807 45.024 49.3137 44.832 47.415 44.832H42.647L43.799 33.6H56.055V35.648H44.727L45.911 34.528L44.919 43.936L43.735 42.784H47.927C50.1883 42.784 52.0017 43.0613 53.367 43.616C54.7323 44.1707 55.7137 44.9493 56.311 45.952C56.9297 46.9333 57.239 48.0853 57.239 49.408C57.239 50.6667 56.9403 51.8187 56.343 52.864C55.7457 53.888 54.8497 54.6987 53.655 55.296C52.4603 55.8933 50.9457 56.192 49.111 56.192ZM69.092 56.192C67.364 56.192 65.828 55.744 64.484 54.848C63.14 53.9307 62.084 52.6293 61.316 50.944C60.548 49.2373 60.164 47.1893 60.164 44.8C60.164 42.4107 60.548 40.3733 61.316 38.688C62.084 36.9813 63.14 35.68 64.484 34.784C65.828 33.8667 67.364 33.408 69.092 33.408C70.82 33.408 72.356 33.8667 73.7 34.784C75.044 35.68 76.1 36.9813 76.868 38.688C77.6573 40.3733 78.052 42.4107 78.052 44.8C78.052 47.1893 77.6573 49.2373 76.868 50.944C76.1 52.6293 75.044 53.9307 73.7 54.848C72.356 55.744 70.82 56.192 69.092 56.192ZM69.092 54.08C70.4147 54.08 71.5667 53.728 72.548 53.024C73.5293 52.2987 74.2973 51.2533 74.852 49.888C75.4067 48.5013 75.684 46.8053 75.684 44.8C75.684 42.7947 75.4067 41.1093 74.852 39.744C74.2973 38.3573 73.5293 37.312 72.548 36.608C71.5667 35.8827 70.4147 35.52 69.092 35.52C67.812 35.52 66.6707 35.8827 65.668 36.608C64.6653 37.312 63.8867 38.3573 63.332 39.744C62.7773 41.1093 62.5 42.7947 62.5 44.8C62.5 46.8053 62.7773 48.5013 63.332 49.888C63.8867 51.2533 64.6653 52.2987 65.668 53.024C66.6707 53.728 67.812 54.08 69.092 54.08ZM91.2945 56V39.2H98.7185C100.617 39.2 102.111 39.5627 103.199 40.288C104.308 41.0133 104.863 42.08 104.863 43.488C104.863 44.8533 104.34 45.9093 103.295 46.656C102.249 47.3813 100.873 47.744 99.1665 47.744L99.6145 47.072C101.62 47.072 103.092 47.4453 104.031 48.192C104.969 48.9387 105.439 50.016 105.439 51.424C105.439 52.8747 104.905 54.0053 103.839 54.816C102.793 55.6053 101.161 56 98.9425 56H91.2945ZM93.5025 54.208H98.8465C100.276 54.208 101.353 53.984 102.079 53.536C102.825 53.0667 103.199 52.32 103.199 51.296C103.199 50.272 102.868 49.5253 102.207 49.056C101.545 48.5867 100.5 48.352 99.0705 48.352H93.5025V54.208ZM93.5025 46.656H98.5585C99.8598 46.656 100.852 46.4107 101.535 45.92C102.239 45.4293 102.591 44.7147 102.591 43.776C102.591 42.8373 102.239 42.1333 101.535 41.664C100.852 41.1947 99.8598 40.96 98.5585 40.96H93.5025V46.656ZM110.763 56V39.2H113.035V52.544L124.267 39.2H126.283V56H124.011V42.624L112.811 56H110.763ZM144.315 54.912V41.184H136.219L136.027 44.928C135.984 46.0587 135.909 47.168 135.803 48.256C135.717 49.344 135.557 50.3467 135.323 51.264C135.109 52.16 134.8 52.896 134.395 53.472C133.989 54.0267 133.467 54.3467 132.827 54.432L130.555 54.016C131.216 54.0373 131.76 53.8027 132.187 53.312C132.613 52.8 132.944 52.1067 133.179 51.232C133.413 50.3573 133.584 49.3653 133.691 48.256C133.797 47.1253 133.883 45.9733 133.947 44.8L134.171 39.2H146.587V54.912H144.315ZM129.851 60.064V54.016H149.211V60.064H147.067V56H131.995V60.064H129.851ZM153.638 56V39.2H155.91V56H153.638ZM154.79 35.488C154.321 35.488 153.926 35.328 153.606 35.008C153.286 34.688 153.126 34.304 153.126 33.856C153.126 33.408 153.286 33.0347 153.606 32.736C153.926 32.416 154.321 32.256 154.79 32.256C155.26 32.256 155.654 32.4053 155.974 32.704C156.294 33.0027 156.454 33.376 156.454 33.824C156.454 34.2933 156.294 34.688 155.974 35.008C155.676 35.328 155.281 35.488 154.79 35.488ZM162.388 56V39.2H169.812C171.711 39.2 173.204 39.5627 174.292 40.288C175.402 41.0133 175.956 42.08 175.956 43.488C175.956 44.8533 175.434 45.9093 174.388 46.656C173.343 47.3813 171.967 47.744 170.26 47.744L170.708 47.072C172.714 47.072 174.186 47.4453 175.124 48.192C176.063 48.9387 176.532 50.016 176.532 51.424C176.532 52.8747 175.999 54.0053 174.932 54.816C173.887 55.6053 172.255 56 170.036 56H162.388ZM164.596 54.208H169.94C171.37 54.208 172.447 53.984 173.172 53.536C173.919 53.0667 174.292 52.32 174.292 51.296C174.292 50.272 173.962 49.5253 173.3 49.056C172.639 48.5867 171.594 48.352 170.164 48.352H164.596V54.208ZM164.596 46.656H169.652C170.954 46.656 171.946 46.4107 172.628 45.92C173.332 45.4293 173.684 44.7147 173.684 43.776C173.684 42.8373 173.332 42.1333 172.628 41.664C171.946 41.1947 170.954 40.96 169.652 40.96H164.596V46.656Z" fill="#735F3D"/>
</svg>
