<svg width="18" height="15" viewBox="0 0 18 15" fill="none" xmlns="http://www.w3.org/2000/svg">
<path d="M1.30757 6.45592C1.30757 6.45592 8.93682 3.32777 11.5828 2.22627C12.5971 1.78571 16.0369 0.375791 16.0369 0.375791C16.0369 0.375791 17.6245 -0.240996 17.4922 1.25698C17.4481 1.87382 17.0953 4.03267 16.7425 6.36781C16.2133 9.67226 15.64 13.285 15.64 13.285C15.64 13.285 15.5518 14.2984 14.8021 14.4746C14.0524 14.6509 12.8176 13.8578 12.5971 13.6816C12.4207 13.5494 9.28959 11.5668 8.14303 10.5974C7.83432 10.3331 7.48154 9.80448 8.1871 9.1876C9.77469 7.73362 11.671 5.92724 12.8176 4.78172C13.3468 4.25298 13.876 3.01934 11.671 4.51731C8.53994 6.67623 5.45295 8.70294 5.45295 8.70294C5.45295 8.70294 4.74733 9.14346 3.42436 8.74698C2.10132 8.3505 0.557826 7.82171 0.557826 7.82171C0.557826 7.82171 -0.500508 7.16088 1.30757 6.45592Z" fill="black"/>
</svg>
