<svg width="23" height="19" viewBox="0 0 23 19" fill="none" xmlns="http://www.w3.org/2000/svg">
<path d="M1.41009 8.27456C1.41009 8.27456 11.5824 4.10369 15.1104 2.63503C16.4628 2.04762 21.0492 0.167721 21.0492 0.167721C21.0492 0.167721 23.166 -0.654661 22.9896 1.34263C22.9308 2.16509 22.4604 5.04355 21.9899 8.15708C21.2844 12.563 20.52 17.38 20.52 17.38C20.52 17.38 20.4024 18.7313 19.4028 18.9661C18.4032 19.2012 16.7568 18.1438 16.4628 17.9087C16.2275 17.7326 12.0528 15.089 10.524 13.7966C10.1124 13.4441 9.64206 12.7393 10.5828 11.9168C12.6996 9.97816 15.2279 7.56965 16.7568 6.0423C17.4624 5.33731 18.168 3.69246 15.2279 5.68975C11.0533 8.56831 6.93727 11.2706 6.93727 11.2706C6.93727 11.2706 5.99644 11.8579 4.23248 11.3293C2.46843 10.8007 0.410435 10.0956 0.410435 10.0956C0.410435 10.0956 -1.00068 9.21451 1.41009 8.27456Z" fill="#735F3D"/>
</svg>
