<svg width="352" height="140" viewBox="0 0 352 140" fill="none" xmlns="http://www.w3.org/2000/svg">
<rect width="352" height="140" fill="#FFF5E8"/>
<path d="M297 21.0094C283.751 21.0094 273.009 31.7513 273.009 45C273.009 58.2488 283.751 68.9907 297 68.9907C310.249 68.9907 320.991 58.2488 320.991 45C320.991 31.7513 310.249 21.0094 297 21.0094ZM297 66.9919C284.874 66.9919 275.008 57.1275 275.008 45C275.008 32.8725 284.872 23.0081 297 23.0081C309.127 23.0081 318.992 32.8725 318.992 45C318.992 57.1256 309.127 66.9919 297 66.9919Z" fill="#735F3D"/>
<path d="M297 46.9987H285.004V48.9975H298.999V29.0869H297V46.9987Z" fill="#735F3D"/>
<path d="M30.2528 99.096C29.4101 99.096 28.6314 98.9573 27.9168 98.68C27.2021 98.392 26.5834 97.992 26.0608 97.48C25.5381 96.968 25.1274 96.3653 24.8288 95.672C24.5408 94.9787 24.3968 94.2213 24.3968 93.4C24.3968 92.5787 24.5408 91.8213 24.8288 91.128C25.1274 90.4347 25.5381 89.832 26.0608 89.32C26.5941 88.808 27.2181 88.4133 27.9328 88.136C28.6474 87.848 29.4261 87.704 30.2688 87.704C31.0794 87.704 31.8421 87.8427 32.5568 88.12C33.2714 88.3867 33.8741 88.792 34.3648 89.336L33.6128 90.088C33.1541 89.6187 32.6474 89.2827 32.0928 89.08C31.5381 88.8667 30.9408 88.76 30.3008 88.76C29.6288 88.76 29.0048 88.8773 28.4288 89.112C27.8528 89.336 27.3514 89.6613 26.9248 90.088C26.4981 90.504 26.1621 90.9947 25.9168 91.56C25.6821 92.1147 25.5648 92.728 25.5648 93.4C25.5648 94.072 25.6821 94.6907 25.9168 95.256C26.1621 95.8107 26.4981 96.3013 26.9248 96.728C27.3514 97.144 27.8528 97.4693 28.4288 97.704C29.0048 97.928 29.6288 98.04 30.3008 98.04C30.9408 98.04 31.5381 97.9333 32.0928 97.72C32.6474 97.5067 33.1541 97.1653 33.6128 96.696L34.3648 97.448C33.8741 97.992 33.2714 98.4027 32.5568 98.68C31.8421 98.9573 31.0741 99.096 30.2528 99.096ZM40.8739 99.08C40.1485 99.08 39.4925 98.9147 38.9059 98.584C38.3192 98.2427 37.8499 97.7573 37.4979 97.128C37.1565 96.488 36.9859 95.7093 36.9859 94.792C36.9859 93.8747 37.1565 93.1013 37.4979 92.472C37.8392 91.832 38.3032 91.3467 38.8899 91.016C39.4765 90.6853 40.1379 90.52 40.8739 90.52C41.6739 90.52 42.3885 90.7013 43.0179 91.064C43.6579 91.416 44.1592 91.9173 44.5219 92.568C44.8845 93.208 45.0659 93.9493 45.0659 94.792C45.0659 95.6453 44.8845 96.392 44.5219 97.032C44.1592 97.672 43.6579 98.1733 43.0179 98.536C42.3885 98.8987 41.6739 99.08 40.8739 99.08ZM36.5379 102.104V90.6H37.6259V93.128L37.5139 94.808L37.6739 96.504V102.104H36.5379ZM40.7939 98.072C41.3912 98.072 41.9245 97.9387 42.3939 97.672C42.8632 97.3947 43.2365 97.0107 43.5139 96.52C43.7912 96.0187 43.9299 95.4427 43.9299 94.792C43.9299 94.1413 43.7912 93.5707 43.5139 93.08C43.2365 92.5893 42.8632 92.2053 42.3939 91.928C41.9245 91.6507 41.3912 91.512 40.7939 91.512C40.1965 91.512 39.6579 91.6507 39.1779 91.928C38.7085 92.2053 38.3352 92.5893 38.0579 93.08C37.7912 93.5707 37.6579 94.1413 37.6579 94.792C37.6579 95.4427 37.7912 96.0187 38.0579 96.52C38.3352 97.0107 38.7085 97.3947 39.1779 97.672C39.6579 97.9387 40.1965 98.072 40.7939 98.072ZM50.9626 99.08C50.152 99.08 49.4213 98.8987 48.7706 98.536C48.1306 98.1627 47.624 97.656 47.2506 97.016C46.8773 96.3653 46.6906 95.624 46.6906 94.792C46.6906 93.9493 46.8773 93.208 47.2506 92.568C47.624 91.928 48.1306 91.4267 48.7706 91.064C49.4106 90.7013 50.1413 90.52 50.9626 90.52C51.7946 90.52 52.5306 90.7013 53.1706 91.064C53.8213 91.4267 54.328 91.928 54.6906 92.568C55.064 93.208 55.2506 93.9493 55.2506 94.792C55.2506 95.624 55.064 96.3653 54.6906 97.016C54.328 97.656 53.8213 98.1627 53.1706 98.536C52.52 98.8987 51.784 99.08 50.9626 99.08ZM50.9626 98.072C51.5706 98.072 52.1093 97.9387 52.5786 97.672C53.048 97.3947 53.416 97.0107 53.6826 96.52C53.96 96.0187 54.0986 95.4427 54.0986 94.792C54.0986 94.1307 53.96 93.5547 53.6826 93.064C53.416 92.5733 53.048 92.1947 52.5786 91.928C52.1093 91.6507 51.576 91.512 50.9786 91.512C50.3813 91.512 49.848 91.6507 49.3786 91.928C48.9093 92.1947 48.536 92.5733 48.2586 93.064C47.9813 93.5547 47.8426 94.1307 47.8426 94.792C47.8426 95.4427 47.9813 96.0187 48.2586 96.52C48.536 97.0107 48.9093 97.3947 49.3786 97.672C49.848 97.9387 50.376 98.072 50.9626 98.072ZM63.8385 99L60.3825 94.84L61.3265 94.28L65.1825 99H63.8385ZM57.6785 99V90.6H58.8145V99H57.6785ZM58.4625 95.256V94.28H61.1665V95.256H58.4625ZM61.4225 94.92L60.3665 94.76L63.7105 90.6H64.9425L61.4225 94.92ZM71.1629 99V90.6H74.8749C75.8242 90.6 76.5709 90.7813 77.1149 91.144C77.6695 91.5067 77.9469 92.04 77.9469 92.744C77.9469 93.4267 77.6855 93.9547 77.1629 94.328C76.6402 94.6907 75.9522 94.872 75.0989 94.872L75.3229 94.536C76.3255 94.536 77.0615 94.7227 77.5309 95.096C78.0002 95.4693 78.2349 96.008 78.2349 96.712C78.2349 97.4373 77.9682 98.0027 77.4349 98.408C76.9122 98.8027 76.0962 99 74.9869 99H71.1629ZM72.2669 98.104H74.9389C75.6535 98.104 76.1922 97.992 76.5549 97.768C76.9282 97.5333 77.1149 97.16 77.1149 96.648C77.1149 96.136 76.9495 95.7627 76.6189 95.528C76.2882 95.2933 75.7655 95.176 75.0509 95.176H72.2669V98.104ZM72.2669 94.328H74.7949C75.4455 94.328 75.9415 94.2053 76.2829 93.96C76.6349 93.7147 76.8109 93.3573 76.8109 92.888C76.8109 92.4187 76.6349 92.0667 76.2829 91.832C75.9415 91.5973 75.4455 91.48 74.7949 91.48H72.2669V94.328ZM80.8973 99V90.6H82.0333V97.272L87.6493 90.6H88.6573V99H87.5213V92.312L81.9213 99H80.8973ZM91.9129 99V90.6H97.8649V91.592H92.7609L93.0489 91.304V99H91.9129ZM102.572 99.08C101.761 99.08 101.031 98.8987 100.38 98.536C99.74 98.1627 99.2333 97.656 98.86 97.016C98.4867 96.3653 98.3 95.624 98.3 94.792C98.3 93.9493 98.4867 93.208 98.86 92.568C99.2333 91.928 99.74 91.4267 100.38 91.064C101.02 90.7013 101.751 90.52 102.572 90.52C103.404 90.52 104.14 90.7013 104.78 91.064C105.431 91.4267 105.937 91.928 106.3 92.568C106.673 93.208 106.86 93.9493 106.86 94.792C106.86 95.624 106.673 96.3653 106.3 97.016C105.937 97.656 105.431 98.1627 104.78 98.536C104.129 98.8987 103.393 99.08 102.572 99.08ZM102.572 98.072C103.18 98.072 103.719 97.9387 104.188 97.672C104.657 97.3947 105.025 97.0107 105.292 96.52C105.569 96.0187 105.708 95.4427 105.708 94.792C105.708 94.1307 105.569 93.5547 105.292 93.064C105.025 92.5733 104.657 92.1947 104.188 91.928C103.719 91.6507 103.185 91.512 102.588 91.512C101.991 91.512 101.457 91.6507 100.988 91.928C100.519 92.1947 100.145 92.5733 99.868 93.064C99.5907 93.5547 99.452 94.1307 99.452 94.792C99.452 95.4427 99.5907 96.0187 99.868 96.52C100.145 97.0107 100.519 97.3947 100.988 97.672C101.457 97.9387 101.985 98.072 102.572 98.072ZM110.575 99V91.288L110.863 91.592H107.391V90.6H114.895V91.592H111.423L111.711 91.288V99H110.575ZM119.603 99.08C118.793 99.08 118.062 98.8987 117.411 98.536C116.771 98.1627 116.265 97.656 115.891 97.016C115.518 96.3653 115.331 95.624 115.331 94.792C115.331 93.9493 115.518 93.208 115.891 92.568C116.265 91.928 116.771 91.4267 117.411 91.064C118.051 90.7013 118.782 90.52 119.603 90.52C120.435 90.52 121.171 90.7013 121.811 91.064C122.462 91.4267 122.969 91.928 123.331 92.568C123.705 93.208 123.891 93.9493 123.891 94.792C123.891 95.624 123.705 96.3653 123.331 97.016C122.969 97.656 122.462 98.1627 121.811 98.536C121.161 98.8987 120.425 99.08 119.603 99.08ZM119.603 98.072C120.211 98.072 120.75 97.9387 121.219 97.672C121.689 97.3947 122.057 97.0107 122.323 96.52C122.601 96.0187 122.739 95.4427 122.739 94.792C122.739 94.1307 122.601 93.5547 122.323 93.064C122.057 92.5733 121.689 92.1947 121.219 91.928C120.75 91.6507 120.217 91.512 119.619 91.512C119.022 91.512 118.489 91.6507 118.019 91.928C117.55 92.1947 117.177 92.5733 116.899 93.064C116.622 93.5547 116.483 94.1307 116.483 94.792C116.483 95.4427 116.622 96.0187 116.899 96.52C117.177 97.0107 117.55 97.3947 118.019 97.672C118.489 97.9387 119.017 98.072 119.603 98.072ZM126.319 99V90.6H130.031C130.98 90.6 131.727 90.7813 132.271 91.144C132.826 91.5067 133.103 92.04 133.103 92.744C133.103 93.4267 132.842 93.9547 132.319 94.328C131.796 94.6907 131.108 94.872 130.255 94.872L130.479 94.536C131.482 94.536 132.218 94.7227 132.687 95.096C133.156 95.4693 133.391 96.008 133.391 96.712C133.391 97.4373 133.124 98.0027 132.591 98.408C132.068 98.8027 131.252 99 130.143 99H126.319ZM127.423 98.104H130.095C130.81 98.104 131.348 97.992 131.711 97.768C132.084 97.5333 132.271 97.16 132.271 96.648C132.271 96.136 132.106 95.7627 131.775 95.528C131.444 95.2933 130.922 95.176 130.207 95.176H127.423V98.104ZM127.423 94.328H129.951C130.602 94.328 131.098 94.2053 131.439 93.96C131.791 93.7147 131.967 93.3573 131.967 92.888C131.967 92.4187 131.791 92.0667 131.439 91.832C131.098 91.5973 130.602 91.48 129.951 91.48H127.423V94.328ZM134.518 98.984L134.598 98.008C134.672 98.0187 134.742 98.0347 134.806 98.056C134.88 98.0667 134.944 98.072 134.998 98.072C135.339 98.072 135.611 97.944 135.814 97.688C136.027 97.432 136.187 97.0907 136.294 96.664C136.4 96.2373 136.475 95.7573 136.518 95.224C136.56 94.68 136.598 94.136 136.63 93.592L136.774 90.6H142.934V99H141.798V91.256L142.086 91.592H137.51L137.782 91.24L137.654 93.672C137.622 94.3973 137.563 95.0907 137.478 95.752C137.403 96.4133 137.28 96.9947 137.11 97.496C136.95 97.9973 136.726 98.392 136.438 98.68C136.15 98.9573 135.782 99.096 135.334 99.096C135.206 99.096 135.072 99.0853 134.934 99.064C134.806 99.0427 134.667 99.016 134.518 98.984ZM149.763 99.08C148.888 99.08 148.12 98.8987 147.459 98.536C146.798 98.1627 146.28 97.656 145.907 97.016C145.534 96.3653 145.347 95.624 145.347 94.792C145.347 93.96 145.523 93.224 145.875 92.584C146.238 91.944 146.728 91.4427 147.347 91.08C147.976 90.7067 148.68 90.52 149.459 90.52C150.248 90.52 150.947 90.7013 151.555 91.064C152.174 91.416 152.659 91.9173 153.011 92.568C153.363 93.208 153.539 93.9493 153.539 94.792C153.539 94.8453 153.534 94.904 153.523 94.968C153.523 95.0213 153.523 95.08 153.523 95.144H146.211V94.296H152.915L152.467 94.632C152.467 94.024 152.334 93.4853 152.067 93.016C151.811 92.536 151.459 92.1627 151.011 91.896C150.563 91.6293 150.046 91.496 149.459 91.496C148.883 91.496 148.366 91.6293 147.907 91.896C147.448 92.1627 147.091 92.536 146.835 93.016C146.579 93.496 146.451 94.0453 146.451 94.664V94.84C146.451 95.48 146.59 96.0453 146.867 96.536C147.155 97.016 147.55 97.3947 148.051 97.672C148.563 97.9387 149.144 98.072 149.795 98.072C150.307 98.072 150.782 97.9813 151.219 97.8C151.667 97.6187 152.051 97.3413 152.371 96.968L153.011 97.704C152.638 98.152 152.168 98.4933 151.603 98.728C151.048 98.9627 150.435 99.08 149.763 99.08ZM156.054 99V90.6H157.19V94.312H162.486V90.6H163.622V99H162.486V95.288H157.19V99H156.054ZM166.85 99V90.6H167.986V94.312H173.282V90.6H174.418V99H173.282V95.288H167.986V99H166.85ZM183.071 99V95.976L183.279 96.216H180.431C179.354 96.216 178.511 95.9813 177.903 95.512C177.295 95.0427 176.991 94.36 176.991 93.464C176.991 92.504 177.317 91.7893 177.967 91.32C178.618 90.84 179.487 90.6 180.575 90.6H184.111V99H183.071ZM176.927 99L179.231 95.768H180.415L178.159 99H176.927ZM183.071 95.64V91.256L183.279 91.592H180.607C179.829 91.592 179.221 91.7413 178.783 92.04C178.357 92.3387 178.143 92.824 178.143 93.496C178.143 94.744 178.938 95.368 180.527 95.368H183.279L183.071 95.64ZM191.538 99V90.6H192.674V99H191.538ZM192.114 88.744C191.879 88.744 191.682 88.664 191.522 88.504C191.362 88.344 191.282 88.152 191.282 87.928C191.282 87.704 191.362 87.5173 191.522 87.368C191.682 87.208 191.879 87.128 192.114 87.128C192.349 87.128 192.546 87.2027 192.706 87.352C192.866 87.5013 192.946 87.688 192.946 87.912C192.946 88.1467 192.866 88.344 192.706 88.504C192.557 88.664 192.359 88.744 192.114 88.744ZM195.913 99V90.6H197.049V94.312H202.345V90.6H203.481V99H202.345V95.288H197.049V99H195.913ZM212.47 98.456V91.592H208.422L208.326 93.464C208.304 94.0293 208.267 94.584 208.214 95.128C208.171 95.672 208.091 96.1733 207.974 96.632C207.867 97.08 207.712 97.448 207.51 97.736C207.307 98.0133 207.046 98.1733 206.726 98.216L205.59 98.008C205.92 98.0187 206.192 97.9013 206.406 97.656C206.619 97.4 206.784 97.0533 206.902 96.616C207.019 96.1787 207.104 95.6827 207.158 95.128C207.211 94.5627 207.254 93.9867 207.286 93.4L207.398 90.6H213.606V98.456H212.47ZM205.238 101.032V98.008H214.918V101.032H213.846V99H206.31V101.032H205.238ZM217.132 99V90.6H218.268V97.272L223.884 90.6H224.892V99H223.756V92.312L218.156 99H217.132ZM228.147 99V90.6H231.859C232.809 90.6 233.555 90.7813 234.099 91.144C234.654 91.5067 234.931 92.04 234.931 92.744C234.931 93.4267 234.67 93.9547 234.147 94.328C233.625 94.6907 232.937 94.872 232.083 94.872L232.307 94.536C233.31 94.536 234.046 94.7227 234.515 95.096C234.985 95.4693 235.219 96.008 235.219 96.712C235.219 97.4373 234.953 98.0027 234.419 98.408C233.897 98.8027 233.081 99 231.971 99H228.147ZM229.251 98.104H231.923C232.638 98.104 233.177 97.992 233.539 97.768C233.913 97.5333 234.099 97.16 234.099 96.648C234.099 96.136 233.934 95.7627 233.603 95.528C233.273 95.2933 232.75 95.176 232.035 95.176H229.251V98.104ZM229.251 94.328H231.779C232.43 94.328 232.926 94.2053 233.267 93.96C233.619 93.7147 233.795 93.3573 233.795 92.888C233.795 92.4187 233.619 92.0667 233.267 91.832C232.926 91.5973 232.43 91.48 231.779 91.48H229.251V94.328ZM237.882 99V90.6H239.018V99H237.882ZM238.458 88.744C238.223 88.744 238.026 88.664 237.866 88.504C237.706 88.344 237.626 88.152 237.626 87.928C237.626 87.704 237.706 87.5173 237.866 87.368C238.026 87.208 238.223 87.128 238.458 87.128C238.692 87.128 238.89 87.2027 239.05 87.352C239.21 87.5013 239.29 87.688 239.29 87.912C239.29 88.1467 239.21 88.344 239.05 88.504C238.9 88.664 238.703 88.744 238.458 88.744ZM248.017 98.456V91.592H243.969L243.873 93.464C243.851 94.0293 243.814 94.584 243.761 95.128C243.718 95.672 243.638 96.1733 243.521 96.632C243.414 97.08 243.259 97.448 243.057 97.736C242.854 98.0133 242.593 98.1733 242.273 98.216L241.137 98.008C241.467 98.0187 241.739 97.9013 241.953 97.656C242.166 97.4 242.331 97.0533 242.449 96.616C242.566 96.1787 242.651 95.6827 242.705 95.128C242.758 94.5627 242.801 93.9867 242.833 93.4L242.945 90.6H249.153V98.456H248.017ZM240.785 101.032V98.008H250.465V101.032H249.393V99H241.857V101.032H240.785ZM252.823 102.184C252.428 102.184 252.049 102.12 251.687 101.992C251.335 101.864 251.03 101.672 250.774 101.416L251.303 100.568C251.516 100.771 251.745 100.925 251.991 101.032C252.247 101.149 252.529 101.208 252.839 101.208C253.212 101.208 253.532 101.101 253.799 100.888C254.076 100.685 254.337 100.323 254.583 99.8L255.127 98.568L255.255 98.392L258.711 90.6H259.831L255.623 100.008C255.388 100.552 255.127 100.984 254.839 101.304C254.561 101.624 254.257 101.848 253.927 101.976C253.596 102.115 253.228 102.184 252.823 102.184ZM255.062 99.24L251.191 90.6H252.375L255.799 98.312L255.062 99.24ZM266.566 99V97.144L266.518 96.84V93.736C266.518 93.0213 266.316 92.472 265.91 92.088C265.516 91.704 264.924 91.512 264.134 91.512C263.59 91.512 263.073 91.6027 262.582 91.784C262.092 91.9653 261.676 92.2053 261.334 92.504L260.822 91.656C261.249 91.2933 261.761 91.016 262.358 90.824C262.956 90.6213 263.585 90.52 264.246 90.52C265.334 90.52 266.172 90.792 266.758 91.336C267.356 91.8693 267.654 92.6853 267.654 93.784V99H266.566ZM263.67 99.08C263.041 99.08 262.492 98.9787 262.022 98.776C261.564 98.5627 261.212 98.2747 260.966 97.912C260.721 97.5387 260.598 97.112 260.598 96.632C260.598 96.1947 260.7 95.8 260.902 95.448C261.116 95.0853 261.457 94.7973 261.926 94.584C262.406 94.36 263.046 94.248 263.846 94.248H266.742V95.096H263.878C263.068 95.096 262.502 95.24 262.182 95.528C261.873 95.816 261.718 96.1733 261.718 96.6C261.718 97.08 261.905 97.464 262.278 97.752C262.652 98.04 263.174 98.184 263.846 98.184C264.486 98.184 265.036 98.04 265.494 97.752C265.964 97.4533 266.305 97.0267 266.518 96.472L266.774 97.256C266.561 97.8107 266.188 98.2533 265.654 98.584C265.132 98.9147 264.47 99.08 263.67 99.08ZM269.143 98.984L269.223 98.008C269.297 98.0187 269.367 98.0347 269.431 98.056C269.505 98.0667 269.569 98.072 269.623 98.072C269.964 98.072 270.236 97.944 270.439 97.688C270.652 97.432 270.812 97.0907 270.919 96.664C271.025 96.2373 271.1 95.7573 271.143 95.224C271.185 94.68 271.223 94.136 271.255 93.592L271.399 90.6H277.559V99H276.423V91.256L276.711 91.592H272.135L272.407 91.24L272.279 93.672C272.247 94.3973 272.188 95.0907 272.103 95.752C272.028 96.4133 271.905 96.9947 271.735 97.496C271.575 97.9973 271.351 98.392 271.062 98.68C270.775 98.9573 270.407 99.096 269.959 99.096C269.831 99.096 269.697 99.0853 269.559 99.064C269.431 99.0427 269.292 99.016 269.143 98.984ZM284.404 93.56C285.46 93.5707 286.26 93.8053 286.804 94.264C287.359 94.7227 287.636 95.384 287.636 96.248C287.636 97.144 287.337 97.832 286.74 98.312C286.153 98.792 285.3 99.0267 284.18 99.016L280.788 99V90.6H281.924V93.528L284.404 93.56ZM284.116 98.152C284.895 98.1627 285.481 98.008 285.876 97.688C286.281 97.3573 286.484 96.8773 286.484 96.248C286.484 95.6187 286.287 95.16 285.892 94.872C285.497 94.5733 284.905 94.4187 284.116 94.408L281.924 94.376V98.12L284.116 98.152ZM289.804 99V90.6H290.94V94.312H296.236V90.6H297.372V99H296.236V95.288H290.94V99H289.804ZM304.056 99.08C303.246 99.08 302.515 98.8987 301.864 98.536C301.224 98.1627 300.718 97.656 300.344 97.016C299.971 96.3653 299.784 95.624 299.784 94.792C299.784 93.9493 299.971 93.208 300.344 92.568C300.718 91.928 301.224 91.4267 301.864 91.064C302.504 90.7013 303.235 90.52 304.056 90.52C304.888 90.52 305.624 90.7013 306.264 91.064C306.915 91.4267 307.422 91.928 307.784 92.568C308.158 93.208 308.344 93.9493 308.344 94.792C308.344 95.624 308.158 96.3653 307.784 97.016C307.422 97.656 306.915 98.1627 306.264 98.536C305.614 98.8987 304.878 99.08 304.056 99.08ZM304.056 98.072C304.664 98.072 305.203 97.9387 305.672 97.672C306.142 97.3947 306.51 97.0107 306.776 96.52C307.054 96.0187 307.192 95.4427 307.192 94.792C307.192 94.1307 307.054 93.5547 306.776 93.064C306.51 92.5733 306.142 92.1947 305.672 91.928C305.203 91.6507 304.67 91.512 304.072 91.512C303.475 91.512 302.942 91.6507 302.472 91.928C302.003 92.1947 301.63 92.5733 301.352 93.064C301.075 93.5547 300.936 94.1307 300.936 94.792C300.936 95.4427 301.075 96.0187 301.352 96.52C301.63 97.0107 302.003 97.3947 302.472 97.672C302.942 97.9387 303.47 98.072 304.056 98.072ZM310.772 99V90.6H316.724V91.592H311.62L311.908 91.304V99H310.772ZM321.431 99.08C320.621 99.08 319.89 98.8987 319.239 98.536C318.599 98.1627 318.093 97.656 317.719 97.016C317.346 96.3653 317.159 95.624 317.159 94.792C317.159 93.9493 317.346 93.208 317.719 92.568C318.093 91.928 318.599 91.4267 319.239 91.064C319.879 90.7013 320.61 90.52 321.431 90.52C322.263 90.52 322.999 90.7013 323.639 91.064C324.29 91.4267 324.797 91.928 325.159 92.568C325.533 93.208 325.719 93.9493 325.719 94.792C325.719 95.624 325.533 96.3653 325.159 97.016C324.797 97.656 324.29 98.1627 323.639 98.536C322.989 98.8987 322.253 99.08 321.431 99.08ZM321.431 98.072C322.039 98.072 322.578 97.9387 323.047 97.672C323.517 97.3947 323.885 97.0107 324.151 96.52C324.429 96.0187 324.567 95.4427 324.567 94.792C324.567 94.1307 324.429 93.5547 324.151 93.064C323.885 92.5733 323.517 92.1947 323.047 91.928C322.578 91.6507 322.045 91.512 321.447 91.512C320.85 91.512 320.317 91.6507 319.847 91.928C319.378 92.1947 319.005 92.5733 318.727 93.064C318.45 93.5547 318.311 94.1307 318.311 94.792C318.311 95.4427 318.45 96.0187 318.727 96.52C319.005 97.0107 319.378 97.3947 319.847 97.672C320.317 97.9387 320.845 98.072 321.431 98.072ZM85.9658 119.096C86.6591 119.096 87.2831 118.989 87.8378 118.776C88.4031 118.563 88.8511 118.269 89.1818 117.896C89.5124 117.512 89.6778 117.069 89.6778 116.568C89.6778 115.928 89.4058 115.421 88.8618 115.048C88.3284 114.675 87.5818 114.488 86.6218 114.488L86.5738 114.792C87.1178 114.792 87.6031 114.707 88.0298 114.536C88.4564 114.365 88.7978 114.125 89.0538 113.816C89.3098 113.507 89.4378 113.144 89.4378 112.728C89.4378 112.259 89.2778 111.859 88.9578 111.528C88.6378 111.187 88.2058 110.925 87.6618 110.744C87.1284 110.563 86.5258 110.483 85.8538 110.504C85.3631 110.504 84.8724 110.573 84.3818 110.712C83.9018 110.84 83.4164 111.032 82.9258 111.288L83.2458 112.168C83.6831 111.944 84.1258 111.779 84.5738 111.672C85.0218 111.555 85.4538 111.491 85.8698 111.48C86.3284 111.48 86.7391 111.533 87.1018 111.64C87.4644 111.747 87.7471 111.907 87.9498 112.12C88.1631 112.333 88.2698 112.589 88.2698 112.888C88.2698 113.165 88.1791 113.405 87.9978 113.608C87.8271 113.811 87.5818 113.965 87.2618 114.072C86.9418 114.179 86.5738 114.232 86.1578 114.232H84.7978V115.064H86.2378C86.9418 115.064 87.4964 115.192 87.9018 115.448C88.3071 115.693 88.5098 116.04 88.5098 116.488C88.5098 116.797 88.4031 117.075 88.1898 117.32C87.9764 117.565 87.6778 117.757 87.2938 117.896C86.9098 118.035 86.4564 118.109 85.9338 118.12C85.4111 118.12 84.8831 118.045 84.3498 117.896C83.8164 117.736 83.3471 117.507 82.9418 117.208L82.5738 118.056C83.0324 118.408 83.5604 118.669 84.1578 118.84C84.7551 119.011 85.3578 119.096 85.9658 119.096ZM97.4726 119V117.144L97.4246 116.84V113.736C97.4246 113.021 97.222 112.472 96.8166 112.088C96.422 111.704 95.83 111.512 95.0406 111.512C94.4966 111.512 93.9793 111.603 93.4886 111.784C92.998 111.965 92.582 112.205 92.2406 112.504L91.7286 111.656C92.1553 111.293 92.6673 111.016 93.2646 110.824C93.862 110.621 94.4913 110.52 95.1526 110.52C96.2406 110.52 97.078 110.792 97.6646 111.336C98.262 111.869 98.5606 112.685 98.5606 113.784V119H97.4726ZM94.5766 119.08C93.9473 119.08 93.398 118.979 92.9286 118.776C92.47 118.563 92.118 118.275 91.8726 117.912C91.6273 117.539 91.5046 117.112 91.5046 116.632C91.5046 116.195 91.606 115.8 91.8086 115.448C92.022 115.085 92.3633 114.797 92.8326 114.584C93.3126 114.36 93.9526 114.248 94.7526 114.248H97.6486V115.096H94.7846C93.974 115.096 93.4086 115.24 93.0886 115.528C92.7793 115.816 92.6246 116.173 92.6246 116.6C92.6246 117.08 92.8113 117.464 93.1846 117.752C93.558 118.04 94.0806 118.184 94.7526 118.184C95.3926 118.184 95.942 118.04 96.4006 117.752C96.87 117.453 97.2113 117.027 97.4246 116.472L97.6806 117.256C97.4673 117.811 97.094 118.253 96.5606 118.584C96.038 118.915 95.3766 119.08 94.5766 119.08ZM101.585 119V110.6H102.737L106.545 117.048H106.065L109.937 110.6H110.993V119H109.953V111.896L110.161 111.992L106.545 117.976H106.033L102.385 111.928L102.625 111.88V119H101.585ZM117.681 119.08C116.871 119.08 116.14 118.899 115.489 118.536C114.849 118.163 114.343 117.656 113.969 117.016C113.596 116.365 113.409 115.624 113.409 114.792C113.409 113.949 113.596 113.208 113.969 112.568C114.343 111.928 114.849 111.427 115.489 111.064C116.129 110.701 116.86 110.52 117.681 110.52C118.513 110.52 119.249 110.701 119.889 111.064C120.54 111.427 121.047 111.928 121.409 112.568C121.783 113.208 121.969 113.949 121.969 114.792C121.969 115.624 121.783 116.365 121.409 117.016C121.047 117.656 120.54 118.163 119.889 118.536C119.239 118.899 118.503 119.08 117.681 119.08ZM117.681 118.072C118.289 118.072 118.828 117.939 119.297 117.672C119.767 117.395 120.135 117.011 120.401 116.52C120.679 116.019 120.817 115.443 120.817 114.792C120.817 114.131 120.679 113.555 120.401 113.064C120.135 112.573 119.767 112.195 119.297 111.928C118.828 111.651 118.295 111.512 117.697 111.512C117.1 111.512 116.567 111.651 116.097 111.928C115.628 112.195 115.255 112.573 114.977 113.064C114.7 113.555 114.561 114.131 114.561 114.792C114.561 115.443 114.7 116.019 114.977 116.52C115.255 117.011 115.628 117.395 116.097 117.672C116.567 117.939 117.095 118.072 117.681 118.072ZM124.397 119V110.6H128.109C129.059 110.6 129.805 110.781 130.349 111.144C130.904 111.507 131.181 112.04 131.181 112.744C131.181 113.427 130.92 113.955 130.397 114.328C129.875 114.691 129.187 114.872 128.333 114.872L128.557 114.536C129.56 114.536 130.296 114.723 130.765 115.096C131.235 115.469 131.469 116.008 131.469 116.712C131.469 117.437 131.203 118.003 130.669 118.408C130.147 118.803 129.331 119 128.221 119H124.397ZM125.501 118.104H128.173C128.888 118.104 129.427 117.992 129.789 117.768C130.163 117.533 130.349 117.16 130.349 116.648C130.349 116.136 130.184 115.763 129.853 115.528C129.523 115.293 129 115.176 128.285 115.176H125.501V118.104ZM125.501 114.328H128.029C128.68 114.328 129.176 114.205 129.517 113.96C129.869 113.715 130.045 113.357 130.045 112.888C130.045 112.419 129.869 112.067 129.517 111.832C129.176 111.597 128.68 111.48 128.029 111.48H125.501V114.328ZM132.596 118.984L132.676 118.008C132.75 118.019 132.82 118.035 132.884 118.056C132.958 118.067 133.022 118.072 133.076 118.072C133.417 118.072 133.689 117.944 133.892 117.688C134.105 117.432 134.265 117.091 134.372 116.664C134.478 116.237 134.553 115.757 134.596 115.224C134.638 114.68 134.676 114.136 134.708 113.592L134.852 110.6H141.012V119H139.876V111.256L140.164 111.592H135.588L135.86 111.24L135.732 113.672C135.7 114.397 135.641 115.091 135.556 115.752C135.481 116.413 135.358 116.995 135.188 117.496C135.028 117.997 134.804 118.392 134.516 118.68C134.228 118.957 133.86 119.096 133.412 119.096C133.284 119.096 133.15 119.085 133.012 119.064C132.884 119.043 132.745 119.016 132.596 118.984ZM147.841 119.08C146.966 119.08 146.198 118.899 145.537 118.536C144.876 118.163 144.358 117.656 143.985 117.016C143.612 116.365 143.425 115.624 143.425 114.792C143.425 113.96 143.601 113.224 143.953 112.584C144.316 111.944 144.806 111.443 145.425 111.08C146.054 110.707 146.758 110.52 147.537 110.52C148.326 110.52 149.025 110.701 149.633 111.064C150.252 111.416 150.737 111.917 151.089 112.568C151.441 113.208 151.617 113.949 151.617 114.792C151.617 114.845 151.612 114.904 151.601 114.968C151.601 115.021 151.601 115.08 151.601 115.144H144.289V114.296H150.993L150.545 114.632C150.545 114.024 150.412 113.485 150.145 113.016C149.889 112.536 149.537 112.163 149.089 111.896C148.641 111.629 148.124 111.496 147.537 111.496C146.961 111.496 146.444 111.629 145.985 111.896C145.526 112.163 145.169 112.536 144.913 113.016C144.657 113.496 144.529 114.045 144.529 114.664V114.84C144.529 115.48 144.668 116.045 144.945 116.536C145.233 117.016 145.628 117.395 146.129 117.672C146.641 117.939 147.222 118.072 147.873 118.072C148.385 118.072 148.86 117.981 149.297 117.8C149.745 117.619 150.129 117.341 150.449 116.968L151.089 117.704C150.716 118.152 150.246 118.493 149.681 118.728C149.126 118.963 148.513 119.08 147.841 119.08ZM154.132 119V110.6H155.268V114.312H160.564V110.6H161.7V119H160.564V115.288H155.268V119H154.132ZM164.929 119V110.6H166.065V114.312H171.361V110.6H172.497V119H171.361V115.288H166.065V119H164.929ZM181.149 119V115.976L181.357 116.216H178.509C177.432 116.216 176.589 115.981 175.981 115.512C175.373 115.043 175.069 114.36 175.069 113.464C175.069 112.504 175.395 111.789 176.045 111.32C176.696 110.84 177.565 110.6 178.653 110.6H182.189V119H181.149ZM175.005 119L177.309 115.768H178.493L176.237 119H175.005ZM181.149 115.64V111.256L181.357 111.592H178.685C177.907 111.592 177.299 111.741 176.861 112.04C176.435 112.339 176.221 112.824 176.221 113.496C176.221 114.744 177.016 115.368 178.605 115.368H181.357L181.149 115.64ZM188.96 115.16V114.168H193.152V115.16H188.96ZM199.913 119V110.6H203.625C204.574 110.6 205.321 110.781 205.865 111.144C206.42 111.507 206.697 112.04 206.697 112.744C206.697 113.427 206.436 113.955 205.913 114.328C205.39 114.691 204.702 114.872 203.849 114.872L204.073 114.536C205.076 114.536 205.812 114.723 206.281 115.096C206.75 115.469 206.985 116.008 206.985 116.712C206.985 117.437 206.718 118.003 206.185 118.408C205.662 118.803 204.846 119 203.737 119H199.913ZM201.017 118.104H203.689C204.404 118.104 204.942 117.992 205.305 117.768C205.678 117.533 205.865 117.16 205.865 116.648C205.865 116.136 205.7 115.763 205.369 115.528C205.038 115.293 204.516 115.176 203.801 115.176H201.017V118.104ZM201.017 114.328H203.545C204.196 114.328 204.692 114.205 205.033 113.96C205.385 113.715 205.561 113.357 205.561 112.888C205.561 112.419 205.385 112.067 205.033 111.832C204.692 111.597 204.196 111.48 203.545 111.48H201.017V114.328ZM209.647 119V110.6H210.783V119H209.647ZM210.223 108.744C209.989 108.744 209.791 108.664 209.631 108.504C209.471 108.344 209.391 108.152 209.391 107.928C209.391 107.704 209.471 107.517 209.631 107.368C209.791 107.208 209.989 107.128 210.223 107.128C210.458 107.128 210.655 107.203 210.815 107.352C210.975 107.501 211.055 107.688 211.055 107.912C211.055 108.147 210.975 108.344 210.815 108.504C210.666 108.664 210.469 108.744 210.223 108.744ZM219.782 118.456V111.592H215.734L215.638 113.464C215.617 114.029 215.58 114.584 215.526 115.128C215.484 115.672 215.404 116.173 215.286 116.632C215.18 117.08 215.025 117.448 214.822 117.736C214.62 118.013 214.358 118.173 214.038 118.216L212.902 118.008C213.233 118.019 213.505 117.901 213.718 117.656C213.932 117.4 214.097 117.053 214.214 116.616C214.332 116.179 214.417 115.683 214.47 115.128C214.524 114.563 214.566 113.987 214.598 113.4L214.71 110.6H220.918V118.456H219.782ZM212.55 121.032V118.008H222.23V121.032H221.158V119H213.622V121.032H212.55ZM229.8 119V108.28L230.312 108.824H227.16V107.8H230.952V119H229.8ZM244.36 118.456V111.592H240.312L240.216 113.464C240.195 114.029 240.158 114.584 240.104 115.128C240.062 115.672 239.982 116.173 239.864 116.632C239.758 117.08 239.603 117.448 239.4 117.736C239.198 118.013 238.936 118.173 238.616 118.216L237.48 118.008C237.811 118.019 238.083 117.901 238.296 117.656C238.51 117.4 238.675 117.053 238.792 116.616C238.91 116.179 238.995 115.683 239.048 115.128C239.102 114.563 239.144 113.987 239.176 113.4L239.288 110.6H245.496V118.456H244.36ZM237.128 121.032V118.008H246.808V121.032H245.736V119H238.2V121.032H237.128ZM249.022 119V110.6H250.158V114.312H255.454V110.6H256.59V119H255.454V115.288H250.158V119H249.022ZM265.243 119V115.976L265.451 116.216H262.603C261.526 116.216 260.683 115.981 260.075 115.512C259.467 115.043 259.163 114.36 259.163 113.464C259.163 112.504 259.488 111.789 260.139 111.32C260.79 110.84 261.659 110.6 262.747 110.6H266.283V119H265.243ZM259.099 119L261.403 115.768H262.587L260.331 119H259.099ZM265.243 115.64V111.256L265.451 111.592H262.779C262 111.592 261.392 111.741 260.955 112.04C260.528 112.339 260.315 112.824 260.315 113.496C260.315 114.744 261.11 115.368 262.699 115.368H265.451L265.243 115.64Z" fill="#735F3D"/>
<path d="M45.9743 56V34.56L46.9983 35.648H40.6943V33.6H48.2783V56H45.9743ZM75.0958 54.912V41.184H66.9998L66.8078 44.928C66.7651 46.0587 66.6904 47.168 66.5838 48.256C66.4984 49.344 66.3384 50.3467 66.1038 51.264C65.8904 52.16 65.5811 52.896 65.1758 53.472C64.7704 54.0267 64.2478 54.3467 63.6078 54.432L61.3358 54.016C61.9971 54.0373 62.5411 53.8027 62.9678 53.312C63.3944 52.8 63.7251 52.1067 63.9598 51.232C64.1944 50.3573 64.3651 49.3653 64.4718 48.256C64.5784 47.1253 64.6638 45.9733 64.7278 44.8L64.9518 39.2H77.3678V54.912H75.0958ZM60.6318 60.064V54.016H79.9918V60.064H77.8478V56H62.7758V60.064H60.6318ZM91.6195 56.16C89.8702 56.16 88.3342 55.7973 87.0115 55.072C85.6888 54.3253 84.6542 53.312 83.9075 52.032C83.1608 50.7307 82.7875 49.248 82.7875 47.584C82.7875 45.92 83.1395 44.448 83.8435 43.168C84.5688 41.888 85.5502 40.8853 86.7875 40.16C88.0462 39.4133 89.4542 39.04 91.0115 39.04C92.5902 39.04 93.9875 39.4027 95.2035 40.128C96.4408 40.832 97.4115 41.8347 98.1155 43.136C98.8195 44.416 99.1715 45.8987 99.1715 47.584C99.1715 47.6907 99.1608 47.808 99.1395 47.936C99.1395 48.0427 99.1395 48.16 99.1395 48.288H84.5155V46.592H97.9235L97.0275 47.264C97.0275 46.048 96.7608 44.9707 96.2275 44.032C95.7155 43.072 95.0115 42.3253 94.1155 41.792C93.2195 41.2587 92.1848 40.992 91.0115 40.992C89.8595 40.992 88.8248 41.2587 87.9075 41.792C86.9902 42.3253 86.2755 43.072 85.7635 44.032C85.2515 44.992 84.9955 46.0907 84.9955 47.328V47.68C84.9955 48.96 85.2728 50.0907 85.8275 51.072C86.4035 52.032 87.1928 52.7893 88.1955 53.344C89.2195 53.8773 90.3822 54.144 91.6835 54.144C92.7075 54.144 93.6568 53.9627 94.5315 53.6C95.4275 53.2373 96.1955 52.6827 96.8355 51.936L98.1155 53.408C97.3688 54.304 96.4302 54.9867 95.2995 55.456C94.1902 55.9253 92.9635 56.16 91.6195 56.16ZM104.201 56V39.2H106.473V46.624H117.065V39.2H119.337V56H117.065V48.576H106.473V56H104.201ZM133.027 45.12C135.139 45.1413 136.739 45.6107 137.827 46.528C138.936 47.4453 139.491 48.768 139.491 50.496C139.491 52.288 138.893 53.664 137.699 54.624C136.525 55.584 134.819 56.0533 132.579 56.032L125.795 56V39.2H128.067V45.056L133.027 45.12ZM132.451 54.304C134.008 54.3253 135.181 54.016 135.971 53.376C136.781 52.7147 137.187 51.7547 137.187 50.496C137.187 49.2373 136.792 48.32 136.003 47.744C135.213 47.1467 134.029 46.8373 132.451 46.816L128.067 46.752V54.24L132.451 54.304Z" fill="#735F3D"/>
</svg>
