<svg width="19" height="13" viewBox="0 0 19 13" fill="none" xmlns="http://www.w3.org/2000/svg">
<path d="M9.89877 12.9833L6.20588 12.9141C5.01019 12.8901 3.81154 12.9381 2.63931 12.6885C0.856066 12.3155 0.729734 10.4864 0.597542 8.95211C0.415395 6.79515 0.485909 4.59905 0.829644 2.4601C1.02369 1.25992 1.78736 0.543768 2.96834 0.465837C6.95503 0.183013 10.9682 0.21653 14.946 0.348478C15.3662 0.360574 15.7892 0.426686 16.2034 0.501939C18.2483 0.868976 18.2981 2.94172 18.4306 4.68658C18.5629 6.44946 18.507 8.22137 18.2543 9.97224C18.0517 11.4219 17.6638 12.6376 16.0272 12.7549C13.9764 12.9084 11.9728 13.032 9.91636 12.9926C9.91645 12.9833 9.90464 12.9833 9.89877 12.9833ZM7.72771 9.31314C9.27307 8.40456 10.789 7.51113 12.3255 6.60863C10.7772 5.70005 9.26424 4.80662 7.72771 3.90413V9.31314Z" fill="black"/>
</svg>
