<svg width="24" height="17" viewBox="0 0 24 17" fill="none" xmlns="http://www.w3.org/2000/svg">
<path d="M12.5317 16.9777L7.60783 16.8855C6.01359 16.8534 4.41539 16.9175 2.85241 16.5846C0.474754 16.0873 0.306312 13.6485 0.130056 11.6028C-0.112807 8.72687 -0.0187875 5.79873 0.439526 2.9468C0.69826 1.34657 1.71648 0.391691 3.29112 0.287782C8.6067 -0.0893163 13.9576 -0.0446261 19.2614 0.131305C19.8216 0.147432 20.3856 0.235581 20.9378 0.335919C23.6644 0.825302 23.7308 3.58896 23.9075 5.91544C24.0839 8.26594 24.0093 10.6285 23.6725 12.963C23.4023 14.8959 22.8851 16.5168 20.7029 16.6732C17.9685 16.8779 15.2971 17.0427 12.5551 16.9901C12.5553 16.9777 12.5395 16.9777 12.5317 16.9777ZM9.63694 12.0842C11.6974 10.8728 13.7186 9.6815 15.7674 8.47818C13.703 7.26674 11.6856 6.07549 9.63694 4.87218V12.0842Z" fill="#735F3D"/>
</svg>
